<svg width="32" height="32" viewBox="0 0 32 32" fill="none" xmlns="http://www.w3.org/2000/svg">
  <path fill-rule="evenodd" clip-rule="evenodd" d="M22.025 11.1667C21.1255 8.62733 18.7027 6.80844 15.8551 6.80844C13.0074 6.80844 10.5846 8.62733 9.68509 11.1667L7.87039 10.3057C9.09753 7.09145 12.2097 4.80844 15.8551 4.80844C19.5004 4.80844 22.6126 7.09144 23.8397 10.3057L22.025 11.1667Z" fill="currentColor"/>
  <path d="M28.197 23.9596L28.5 23.8297V23.5V13V12.25L27.8077 12.5385L16.1923 17.3782C16.0692 17.4295 15.9308 17.4295 15.8077 17.3782L4.19231 12.5385L3.5 12.25V13V23.4223V23.7487L3.79876 23.8801L6.88285 25.236C7.03 25.3007 7.125 25.4463 7.125 25.607C7.125 25.9003 6.82314 26.0965 6.55514 25.9773L2.79693 24.307C2.61637 24.2268 2.5 24.0477 2.5 23.8501V11.5165C2.5 11.1576 2.86703 10.9156 3.19696 11.057L15.4091 16.2907C15.7864 16.4525 16.2136 16.4525 16.5909 16.2907L28.803 11.057C29.133 10.9156 29.5 11.1576 29.5 11.5165V23.8501C29.5 24.0477 29.3836 24.2268 29.2031 24.307L25.417 25.9897C25.1621 26.103 24.875 25.9164 24.875 25.6375C24.875 25.4833 24.9669 25.3439 25.1086 25.2831L28.197 23.9596Z" fill="currentColor" stroke="currentColor"/>
</svg>
