<?xml version="1.0" standalone="no"?>
<!DOCTYPE svg PUBLIC "-//W3C//DTD SVG 20010904//EN"
 "http://www.w3.org/TR/2001/REC-SVG-20010904/DTD/svg10.dtd">
<svg version="1.0" xmlns="http://www.w3.org/2000/svg"
 width="700.000000pt" height="700.000000pt" viewBox="0 0 700.000000 700.000000"
 preserveAspectRatio="xMidYMid meet">
<metadata>
Created by potrace 1.14, written by Peter Selinger 2001-2017
</metadata>
<g transform="translate(0.000000,700.000000) scale(0.100000,-0.100000)"
fill="#000000" stroke="none">
<path d="M3245 5935 c-381 -52 -708 -196 -990 -435 -219 -187 -404 -439 -510
-699 l-23 -55 82 -39 c305 -148 326 -156 326 -123 0 17 84 189 123 251 57 91
153 209 229 280 100 93 108 99 202 160 138 90 273 149 426 189 133 34 155 37
335 41 185 4 310 -14 465 -65 337 -112 611 -332 794 -640 25 -42 60 -110 77
-151 17 -41 34 -77 38 -82 4 -4 36 7 72 24 35 17 120 58 188 91 69 32 127 60
129 63 7 6 -36 109 -81 195 -83 159 -204 324 -330 453 -275 280 -684 488
-1052 533 -27 4 -54 9 -58 11 -19 11 -358 9 -442 -2z"/>
<path d="M563 4676 c-59 -28 -109 -88 -119 -145 -4 -20 -7 -655 -7 -1411 0
-1360 0 -1375 20 -1421 11 -25 33 -58 49 -73 34 -31 33 -31 529 -252 360 -160
383 -169 441 -169 52 1 67 5 100 30 46 34 61 52 75 84 30 72 17 150 -34 207
-35 41 -53 50 -397 199 -85 37 -187 82 -226 100 -39 18 -80 36 -92 39 -12 4
-23 10 -23 14 -1 4 -2 518 -3 1143 l-1 1136 40 -17 c22 -9 443 -185 935 -390
492 -205 1050 -438 1240 -518 418 -175 409 -174 585 -98 61 25 119 51 130 56
11 5 49 21 85 36 36 14 79 32 95 39 17 7 271 113 565 235 294 122 549 227 565
235 17 7 125 52 240 100 116 47 224 92 240 100 17 7 125 52 240 100 116 47
224 93 242 101 17 7 35 14 40 14 4 0 8 -515 8 -1145 l0 -1145 -30 -14 c-16 -8
-86 -37 -155 -66 -69 -29 -147 -62 -175 -75 -27 -12 -116 -50 -197 -84 -144
-61 -186 -89 -214 -142 -48 -93 -5 -217 90 -260 68 -31 119 -24 242 31 27 13
67 31 89 40 42 18 81 36 206 93 41 19 86 38 100 42 13 4 29 11 34 15 6 4 38
20 73 34 68 29 169 74 247 112 59 28 110 91 121 149 9 50 10 2747 0 2796 -16
86 -118 169 -208 169 -38 0 -111 -25 -223 -74 -33 -15 -69 -31 -80 -36 -11 -4
-46 -20 -78 -34 -32 -14 -60 -26 -63 -26 -3 0 -29 -11 -57 -24 -29 -13 -113
-49 -187 -80 -74 -32 -159 -68 -188 -82 -29 -13 -55 -24 -58 -24 -4 0 -40 -16
-81 -35 -41 -19 -79 -35 -85 -35 -5 0 -22 -6 -36 -14 -15 -8 -45 -22 -67 -31
-43 -18 -51 -21 -135 -58 -30 -14 -100 -43 -155 -66 -55 -23 -118 -50 -140
-60 -22 -10 -96 -42 -165 -71 -116 -49 -243 -103 -315 -135 -16 -7 -174 -76
-350 -152 -415 -179 -359 -177 -710 -25 -143 62 -273 119 -290 126 -16 8 -264
114 -550 236 -286 122 -538 230 -560 240 -22 10 -85 37 -140 60 -55 23 -118
50 -140 60 -22 10 -206 89 -410 176 -415 177 -434 182 -522 140z"/>
</g>
</svg>
