<?xml version="1.0" standalone="no"?>
<!DOCTYPE svg PUBLIC "-//W3C//DTD SVG 20010904//EN"
 "http://www.w3.org/TR/2001/REC-SVG-20010904/DTD/svg10.dtd">
<svg version="1.0" xmlns="http://www.w3.org/2000/svg"
 width="700.000000pt" height="700.000000pt" viewBox="0 0 700.000000 700.000000"
 preserveAspectRatio="xMidYMid meet">
<metadata>
Created by potrace 1.14, written by Peter Selinger 2001-2017
</metadata>
<g transform="translate(0.000000,700.000000) scale(0.100000,-0.100000)"
fill="#000000" stroke="none">
<path d="M769 5893 c-151 -39 -270 -156 -315 -308 -16 -56 -17 -185 -17 -2085
0 -1899 1 -2029 17 -2085 43 -145 149 -255 294 -303 42 -14 324 -16 2732 -17
2237 -1 2695 1 2744 12 157 36 282 158 322 315 15 57 17 243 17 2083 0 2156 2
2053 -50 2163 -46 98 -180 204 -288 228 -16 4 -1239 7 -2718 8 -2193 2 -2697
0 -2738 -11z m2511 -460 c0 -75 0 -3790 0 -3846 l0 -57 -1202 2 -1203 3 -1
1960 c0 1078 1 1963 3 1968 2 4 544 7 1204 7 l1199 0 0 -37z m2845 -1933 l0
-1965 -1202 -3 -1203 -2 0 47 c0 59 0 3660 0 3796 l0 97 1202 -2 1203 -3 0
-1965z"/>
<path d="M1358 4810 l-46 -5 1 -215 2 -215 763 0 c674 0 762 1 763 15 4 55 3
420 -1 420 -37 4 -1448 4 -1482 0z"/>
<path d="M1312 3500 l-1 -219 767 2 766 2 1 205 c0 113 -1 211 -3 217 -3 10
-173 13 -767 12 l-763 0 0 -219z"/>
<path d="M1315 2620 c-2 -3 -3 -101 -3 -217 0 -212 0 -213 21 -214 12 0 356
-1 764 -2 654 -2 743 0 744 13 6 97 2 413 -6 418 -12 8 -1515 10 -1520 2z"/>
<path d="M4157 4805 c-2 -5 -3 -104 -3 -220 l1 -210 755 -1 c415 0 760 1 767
4 8 2 11 64 12 218 l0 214 -22 0 c-12 1 -356 2 -764 3 -488 1 -744 -1 -746 -8z"/>
<path d="M4155 3500 l0 -219 766 0 767 0 0 219 1 219 -767 0 -767 0 0 -219z"/>
<path d="M4159 2625 c-5 -1 -3 -419 2 -427 5 -8 656 -12 1401 -9 l127 1 -2
218 -2 217 -762 0 c-420 1 -763 1 -764 0z"/>
</g>
</svg>
