<svg
  xmlns="http://www.w3.org/2000/svg"
  version="1.1"
  xmlns:xlink="http://www.w3.org/1999/xlink"
  style="overflow: hidden; display: block; margin: auto"
  viewBox="208.59 182.59 618.11 225.01"
  width="150"
>
  <defs></defs>
  <g id="two-0" transform="matrix(1 0 0 1 0 0)" opacity="1"></g>
  <path
    d="M 524.2637945767924 184.7891599809706 Q 524.2637945767924 184.7891599809706 521.7117042281402 186.62001703689495 519.159613879488 188.4508740928193 513.525056993516 194.65052429948946 507.89050010754414 200.85017450615965 498.38587584357305 210.94398108958353 488.88125157960195 221.03778767300741 483.7793697808598 227.3667040481757 478.6774879821176 233.695620423344 471.7016820005123 241.91813688824192 464.7258760189069 250.14065335313984 450.82154377761253 265.29807709905947 436.9172115363181 280.4555008449791 427.36346523259624 290.6371580519898 417.8097189288744 300.81881525900053 410.788837084403 307.2081021647521 403.7679552399315 313.5973890705037 387.36204587855184 328.10627545404293 370.95613651717224 342.6151618375822 364.51567341606074 347.7760636750046 358.0752103149492 352.9369655124269 352.3588372252948 357.381622196775 346.6424641356404 361.82627888112313 340.3300487688616 367.5007351798157 334.0176334020828 373.1751914785083 330.18154901541186 376.3743184951516 326.34546462874084 379.57344551179494 323.3200756581313 383.3645795706571 320.2946866875218 387.15571362951925 319.743427712909 388.48825507514346 319.19216873829623 389.8207965207676 319.0964695832083 389.93195027719696 319.00077042812035 390.04310403362626 318.881250627487 390.12812463765533 318.76173082685364 390.21314524168434 318.6253368771033 390.2670912918122 318.4889429273529 390.3210373419401 318.3436020512535 390.3407734911988 318.19826117515413 390.36050964045745 318.0524205912534 390.34488882292464 317.90658000735266 390.3292680053919 317.7687159772392 390.2791981037167 317.63085194712573 390.2291282020414 317.5089771347072 390.14751928126157 317.3871023222887 390.06591036048167 317.2883000973892 389.95750553490734 317.18949787248965 389.84910070933296 317.1195106250625 389.7202004725199 317.04952337763535 389.5913002357068 317.0124187697894 389.4493962754749 316.9753141619434 389.30749231524305 316.97324871522994 389.16083209642835 316.9711832685164 389.01417187761365 317.00427702679553 388.8712792990245 317.0373707850746 388.7283867204353 317.1037003375601 388.597566705453 317.17002989004567 388.4667466904707 321.089429662219 384.5480475806002 325.00882943439234 380.6293484707297 328.25658054525945 378.74699966128185 331.5043316561266 376.8646508518339 337.9615296530489 374.3276367169841 344.4187276499712 371.79062258213423 347.57879014528646 370.55682406270785 350.7388526406018 369.32302554328146 357.768820768802 368.04921539994507 364.79878889700217 366.77540525660874 368.07601233703633 366.7710659365914 371.35323577707055 366.76672661657415 376.42740326011744 366.7069127729395 381.5015707431644 366.64709892930483 384.7616755954534 367.31238163166915 388.0217804477425 367.9776643340335 391.50141665495676 369.0900114652485 394.981052862171 370.2023585964635 398.87864421397506 369.48837324200974 402.77623556577913 368.774387887556 396.6313348551264 367.6819289066548 390.4864341444736 366.58946992575363 385.9670526635148 365.8426252956361 381.447671182556 365.09578066551853 368.84749696644747 363.12961685776077 356.247322750339 361.16345305000306 351.132636037521 360.4693273862049 346.0179493247031 359.7752017224068 337.7960705316301 358.47526523695853 329.57419173855703 357.17532875151034 313.81219493867866 355.2563042050941 298.0501981388003 353.33727965867797 287.2358979378318 352.0466284358308 276.4215977368633 350.7559772129836 269.42937559250504 350.1051905821176 262.4371534481468 349.45440395125155 246.04503200379298 348.18349657968383 229.65291055943922 346.91258920811606 223.22082214251995 346.266093487892 216.78873372560068 345.619597767668 212.9237672999261 345.5790967023298 209.05880087425152 345.5385956369917 208.63711095845275 341.6856267718461 208.21542104265401 337.8326579067005 211.55948484198598 335.81855160410487 214.90354864131794 333.8044453015093 218.75276126440326 331.9162116702875 222.60197388748855 330.0279780390657 228.32042090426722 327.51218332917006 234.0388679210459 324.99638861927446 245.40650232896107 319.9640010587649 256.77413673687624 314.93161349825533 266.93311852271256 310.5005286763003 277.0921003085488 306.06944385434525 285.3443092225051 302.2729114635375 293.5965181364614 298.4763790727298 299.97266860976487 295.92820834440386 306.34881908306835 293.38003761607797 315.79191198083686 288.35361280894006 325.23500487860537 283.3271880018022 335.39818381534167 278.8757771575739 345.561362752078 274.4243663133457 351.8666971546415 270.0269094462209 358.17203155720495 265.62945257909604 367.67576471849776 259.92306240251554 377.1794978797906 254.216672225935 382.8784003476545 249.79653729660913 388.5773028155184 245.37640236728325 395.5488069082968 240.30483369622 402.52031100107524 235.23326502515673 408.7939305166409 229.6431555084477 415.0675500322065 224.05304599173866 412.05245393953135 221.46573267002537 409.03735784685625 218.87841934831206 404.77567972690656 218.26948129126782 400.51400160695687 217.66054323422355 400.3763968935112 217.61690100625123 400.2387921800655 217.57325877827887 400.12232654953834 217.48796248216485 400.00586091901124 217.4026661860508 399.9227283536628 217.28464636651427 399.83959578831434 217.1666265469777 399.79850028968144 217.02823991027833 399.7574047910485 216.88985327357895 399.7626490686861 216.7455889371097 399.76789334632366 216.60132460064045 399.8189283229788 216.46628707851173 399.869963299634 216.331249556383 399.9614455997789 216.21957731280816 400.0529278999239 216.10790506923328 400.1752793025845 216.03129021759318 400.29763070524507 215.95467536595308 400.43804098626515 215.9211395014388 400.57845126728523 215.88760363692452 400.7222194331772 215.90065797340333 400.86598759906923 215.91371230988213 400.99806108491316 215.9719900548787 401.13013457075715 216.03026779987525 401.2366852477212 216.12766725810457 401.3432359246852 216.22506671633388 401.41310790876446 216.35139013880843 401.4829798928438 216.47771356128294 401.50885756886083 216.61973485232343 401.5347352448779 216.76175614336393 401.5139092133227 216.90460563630847 401.4930831817675 217.04745512925305 401.42773393364143 217.17617644448177 401.36238468551534 217.30489775971049 401.25935430434765 217.40601374153977 401.15632392317997 217.50712972336908 401.0263997170764 217.5700535018094 400.89647551097283 217.63297728024972 400.753260578609 217.6511207190881 400.61004564624517 217.66926415792648 400.4685346288447 217.64072763432716 400.3270236114442 217.61219111072782 400.2020327498842 217.5399624062445 400.0770418883242 217.46773370176123 399.9816577588043 217.3593751808199 399.8862736292844 217.2510166598786 399.83048297534435 217.11787348822565 399.77469232140436 216.98473031657272 399.76433643923906 216.84074261942663 399.7539805570737 216.69675492228055 399.7901437102795 216.55699824954155 399.82630686348523 216.41724157680258 399.90520276037523 216.29634848899866 399.9840986572653 216.1754554011947 400.0974668766088 216.08608343653157 400.21083509595223 215.99671147186842 400.34680595525754 215.94821789863823 400.48277681456284 215.89972432540802 400.6271141289679 215.897186433529 400.77145144337294 215.89464854164999 400.77131900127 215.8946292329121 400.77118655916706 215.89460992417423 405.3609972267239 216.57477474992254 409.95080789428073 217.25493957567087 413.11127690300304 221.0710348819195 416.2717459117253 224.8871301881681 409.858377171328 230.69490826650912 403.4450084309308 236.50268634485016 396.49345569857235 241.56165289681593 389.54190296621397 246.6206194487817 383.76785640890057 251.09534047008222 377.9938098515871 255.57006149138275 368.53625130428793 261.25087489981365 359.07869275698874 266.93168830824453 352.6430811607936 271.40782430665706 346.20746956459845 275.88396030506954 336.0996219355244 280.3164337307469 325.9917743064504 284.7489071564243 316.47384709681694 289.8206798600165 306.9559198871835 294.8924525636087 300.62307744290837 297.43648093771844 294.29023499863325 299.98050931182826 286.0306033679585 303.8007055393732 277.7709717372838 307.62090176691817 267.6269733327306 312.07369887489773 257.4829749281773 316.5264959828773 246.13033927820473 321.5920306423804 234.77770362823213 326.6575653018835 229.11981682267364 329.2015825512011 223.46193001711515 331.7455998005187 219.7163453833959 333.66028285809915 215.97076074967666 335.5749659156796 212.67458085649133 339.81649606341966 209.37840096330604 344.05802621115976 213.16382311557368 344.0283908937963 216.94924526784135 343.9987555764328 223.36459381241923 344.63058314734633 229.7799423569971 345.26241071825984 246.18541614306463 346.516099092889 262.5908899291321 347.76978746751826 269.60807172421056 348.3975057316048 276.625253519289 349.0252239956913 287.44594616450473 350.2805336737397 298.26663880972046 351.535843351788 314.06590365594417 353.4088713119238 329.8651685021679 355.28189927205955 338.0698433032494 356.5066480415769 346.27451810433087 357.7313968110943 351.4290527023204 358.3263064856235 356.58358730031 358.9212161601526 369.196059254567 360.7363291587005 381.8085312088239 362.5514421572484 386.1516634088458 363.0615533413546 390.4947956088678 363.57166452546085 394.5034411205172 363.4347050960381 398.5120866321667 363.2977456666154 401.47476637853526 364.05994692937327 404.43744612490383 364.8221481921311 403.8785666538314 368.1856858007439 403.31968718275897 371.54922340935667 398.38687308822773 372.0813273427761 393.4540589936965 372.6134312761955 390.5521241290501 371.1905008723175 387.65018926440376 369.7675704684395 384.5722798912403 369.1759889567432 381.49437051807695 368.5844074450469 376.4266615421899 368.5247783322492 371.3589525663028 368.4651492194515 368.2338793624672 368.4823597652131 365.1088061586315 368.49957031097466 358.2593028285754 369.7610384945675 351.40979949851925 371.0225066781603 348.221043404169 372.32398725747856 345.0322873098187 373.6254678367968 338.82387177196074 376.16987607041267 332.6154562341028 378.7142843040286 329.536061251129 380.63476058974186 326.4566662681553 382.5552368754552 322.824451349416 386.1879661412553 319.19223643067676 389.8206954070554 319.0965483914429 389.93185873284443 319.0008603522091 390.0430220586335 318.88134905423374 390.1280546142175 318.7618377562584 390.21308716980144 318.62544920179505 390.2670468590545 318.48906064733166 390.32100654830765 318.3437217455739 390.34075723155524 318.1983828438161 390.3605079148028 318.0525406985628 390.3449016814065 317.9066985533095 390.3292954480102 317.7688295168952 390.27923933298825 317.6309604804809 390.22918321796635 317.5090775077797 390.14758648507575 317.3871945350785 390.06598975218515 317.2883814701905 389.9575948073753 317.18956840530245 389.84919986256546 317.11956826820153 389.7203066251216 317.04956813110067 389.5914133876778 317.0124493330442 389.44951313861617 316.97533053498773 389.30761288955455 316.9732504222627 389.16095287801784 316.97117030953774 389.0142928664811 317.0042497783935 388.87139697923055 317.03732924724926 388.72850109198004 317.1036457174017 388.5976744446966 317.1699621875541 388.4668477974132 317.897211254768 387.25330414835037 318.6244603219819 386.0397604992876 321.98101033073226 382.2029586586334 325.3375603394826 378.36615681797923 329.1503201989815 375.18417059705035 332.96308005848044 372.0021843761215 339.3164155623414 366.28933466333615 345.6697510662023 360.5764849505508 351.3743590955807 356.13549859682865 357.0789671249591 351.6945122431065 363.48592442131485 346.5538624538086 369.89288171767055 341.4132126645108 386.28439877018116 326.9058862997199 402.6759158226917 312.3985599349289 409.64279725643166 306.04605126794297 416.6096786901717 299.693542600957 426.1449650884873 289.50778314801005 435.6802514868029 279.322023695063 449.5452174143169 264.1748564716921 463.41018334183093 249.02768924832128 470.34671972980755 240.80266136682923 477.2832561177842 232.57763348533717 482.3973589470268 226.16604839384502 487.5114617762694 219.75446330235286 496.95634452705065 209.63132110673004 506.4012272778319 199.50817891110722 512.1211818212422 193.1071216779428 517.8411363646526 186.70606444477838 520.3165029251801 184.76632881881795 522.7918694857076 182.82659319285753 522.9199849382835 182.75278482099117 523.0481003908595 182.67897644912478 523.1901568561753 182.63797394178312 523.3322133214912 182.59697143444149 523.479954471108 182.59115785927776 523.6276956207249 182.58534428411403 523.7725347320857 182.61505752638988 523.9173738434464 182.64477076866575 524.0508928605934 182.70828389334406 524.1844118777406 182.77179701802237 524.298850669124 182.86541863931265 524.4132894605074 182.95904026060293 524.501996838195 183.07732908547703 524.5907042158826 183.19561791035113 524.6485245029155 183.3316989867496 524.7063447899483 183.467780063148 524.7299174685272 183.6137443525168 524.7534901471062 183.75970864188554 524.7414451720447 183.9070726928684 524.7294001969832 184.05443674385128 524.6824376227978 184.19463575088128 524.6354750486124 184.33483475791124 524.5563243423212 184.45972034811254 524.4771736360301 184.58460593831384 524.3704350404017 184.68691975531624 524.2636964447734 184.7892335723186 524.2637455107829 184.7891967766446 Z"
    fill="currentColor"
  ></path>
  <path
    d="M 426.20088033707293 365.9245404252812 Q 426.20088033707293 365.9245404252812 427.45734529872885 366.27930577664335 428.7138102603848 366.6340711280056 431.00334061335707 363.17878813565324 433.29287096632936 359.72350514330094 435.8527473312573 357.87300309453957 438.4126236961852 356.0225010457782 440.91398742137625 354.0511195238982 443.4153511465673 352.0797380020182 446.74208387553324 350.4610228804037 450.06881660449915 348.8423077587891 453.05144575990096 346.6720022791309 456.0340749153027 344.5016967994726 459.3942624130217 341.63767565896364 462.7544499107406 338.7736545184547 464.5828530713218 335.51683536828875 466.4112562319029 332.26001621812276 462.4854987493469 333.27767609983147 458.55974126679087 334.2953359815402 460.6042624900324 336.62562278022017 462.6487837132739 338.9559095789001 466.45153178510617 339.18328592113113 470.25427985693847 339.41066226336216 476.2866150916574 338.1486538248696 482.3189503263763 336.886645386377 488.7507720300772 335.6740140962206 495.1825937337781 334.46138280606425 497.65875389680946 333.07956555112014 500.13491405984075 331.697748296176 500.346848177654 331.65495501679175 500.55878229546727 331.61216173740746 500.77479902453433 331.6213327688056 500.99081575360145 331.63050380020377 501.1983601914795 331.6911061216085 501.4059046293575 331.7517084430133 501.5929142835655 331.86021984465725 501.77992393777356 331.9687312463012 501.93552979842246 332.11884504042246 502.09113565907137 332.26895883454364 502.20629390622906 332.4519504003747 502.32145215338676 332.6349419662058 502.38946978431784 332.84017582534284 502.45748741524886 333.04540968447986 502.4744112420477 333.26095763538694 502.4913350688466 333.47650558629397 502.4561814779046 333.68983997193686 502.4210278869625 333.9031743575797 502.33584000663683 334.1018961734414 502.25065212631114 334.3006179893031 502.12038108020886 334.4731775141088 501.9901100341066 334.6457370389145 501.82232718154796 334.7821051049748 501.6545443289893 334.9184731710351 501.4590012172482 335.0107240599434 501.2634581055072 335.1029749488517 498.4283873311532 337.5474547258987 495.5933165567992 339.99193450294575 498.3778379687079 338.70372120651496 501.16235938061664 337.4155079100842 504.7431630792511 335.7548334439473 508.32396677788546 334.0941589778103 510.60940184494245 332.23903660533364 512.8948369119995 330.38391423285697 513.2198105342807 330.1505063003307 513.5447841565617 329.9170983678044 513.9272751649917 329.79967713201205 514.3097661734215 329.6822558962197 514.7097276584498 329.693115391545 515.1096891434779 329.7039748868703 515.4852450320425 329.84197812128605 515.8608009206071 329.97998135570174 516.1726304120381 330.2306793541353 516.4844599034691 330.4813773525688 516.6999143676987 330.8185219684063 516.9153688319284 331.15566658424376 517.0118901296775 331.5439586872095 517.1084114274265 331.93225079017526 517.0758937533415 332.33103609458954 517.0433760792563 332.7298213990038 516.8852240423977 333.0973469782254 516.7270720055391 333.464872557447 516.459844165914 333.76265838631406 516.1926163262889 334.0604442151811 515.8442915092476 334.25731203880343 515.4959666922061 334.45417986242575 515.1030145980415 334.529517567702 514.7100625038768 334.6048552729782 514.3136253205771 334.55077498227877 513.9171881372774 334.49669469157936 513.5587729425836 334.31885862561626 513.2003577478896 334.14102255965315 512.9174907072984 333.8580502014769 512.6346236667071 333.5750778433006 512.456921034038 333.21659647350964 512.2792184013689 332.8581151037187 512.2252856891714 332.4616578163601 512.1713529769738 332.0652005290016 512.2468369544519 331.67227650671634 512.3223209319299 331.2793524844311 512.5193184067156 330.9311009760744 512.7163158815013 330.5828494677176 513.0142011659824 330.31573249814375 513.3120864504635 330.0486155285699 513.6796708767208 329.8906003150054 514.047255302978 329.7325851014408 514.4460526845494 329.7002158784578 514.8448500661207 329.66784665547476 515.2331062118833 329.7645124892641 515.621362357646 329.86117832305354 515.9584267466491 330.07675827530034 516.2954911356521 330.2923382275472 516.5460730373904 330.6042610203436 516.7966549391288 330.91618381314 516.9345183623432 331.29179104774056 517.0723817855577 331.66739828234114 517.0830923934453 332.06736378213253 517.093803001333 332.4673292819239 516.9762393904206 332.84977655349735 516.8586757795082 333.2322238250708 516.6251468908922 333.5571105381362 516.3916180022761 333.88199725120165 516.3918803585045 333.8817349926179 516.3921427147328 333.88147273403416 514.7830770324964 335.3070996560582 513.17401135026 336.73272657808224 509.84784912332304 338.7276355441431 506.5216868963861 340.72254451020393 503.17995948099673 341.80041573873166 499.8382320656074 342.87828696725944 495.8439009147263 345.1616037071564 491.8495697638453 347.4449204470534 490.25967271209436 344.87060732782095 488.6697756603434 342.2962942085885 490.9426864830607 339.5905603662652 493.2155973057779 336.88482652394197 496.6751705549647 334.29131563217305 500.1347438041515 331.69780474040414 500.34667364157724 331.6549902678221 500.5586034790029 331.6121757952401 500.7746211240931 331.6213252249195 500.9906387691832 331.6304746545989 501.1981892662556 331.69105622125693 501.40573976332803 331.75163778791494 501.59276026774114 331.8601304880509 501.7797807721543 331.96862318818694 501.9354016434046 332.11872142097155 502.0910225146548 332.26881965375617 502.20619906039326 332.45179970284755 502.3213756061317 332.634779751939 502.38941376010854 332.8400068082868 502.45745191408537 333.04523386463455 502.4743972955947 333.2607801220812 502.491342677104 333.47632637952785 502.45621041977626 333.68966427946316 502.4210781624485 333.90300217939847 502.3359101547303 334.10173251305457 502.25074214701215 334.3004628467106 502.12048835751364 334.4730353977581 501.9902345680152 334.6456079488056 501.8224653531021 334.7819927924693 501.6546961381889 334.918377636133 501.45916225251443 335.0106480788912 501.26362836683995 335.10291852164937 498.59390100255007 336.2670629394539 495.92417363826013 337.4312073572584 489.7116258620449 338.75394441074894 483.4990780858297 340.07668146423947 480.24869621466894 341.59657526331125 476.9983143435081 343.116469062383 472.3533085482977 344.0788940948182 467.70830275308737 345.0413191272535 463.27293541202596 345.4107750422439 458.8375680709646 345.7802309572343 455.7345734424749 344.62929367925744 452.6315788139853 343.4783564012806 451.57488962305104 340.3175279983129 450.5182004321167 337.1566995953453 452.3438596959133 333.53077467979733 454.1695189597099 329.9048497642494 457.4571785377483 326.929171796814 460.74483811578665 323.95349382937866 464.43429697492365 324.23615193808683 468.1237558340607 324.518810046795 470.0394232010331 327.7036044930701 471.9550905680055 330.8883989393451 471.1105839318741 334.05140387761526 470.2660772957427 337.2144088158854 467.6829316470287 340.2266363468017 465.0997859983146 343.2388638777179 462.1108791163464 345.4668584218814 459.1219722343781 347.6948529660449 455.7557238001002 350.5843284156614 452.38947536582225 353.47380386527794 448.5185773177413 356.01251512564227 444.64767926966033 358.5512263860066 442.04398455968646 360.3964225327039 439.4402898497126 362.2416186794012 436.3209967831893 365.4303018823873 433.201703716666 368.61898508537337 430.68757599643715 370.23061466403044 428.1734482762083 371.84224424268757 427.80505670401425 371.91727237454256 427.4366651318202 371.99230050639756 427.06102305978504 371.97698369372654 426.68538098774985 371.96166688105546 426.32432075074973 371.85689533773046 425.9632605137497 371.75212379440546 425.6377669497234 371.56398684744727 425.31227338569715 371.3758499004891 425.0412641958792 371.1152820780944 424.77025500606123 370.8547142556998 424.5694812572971 370.536859771949 424.368707508533 370.2190052881982 424.2498381805342 369.8623378606212 424.13096885253543 369.50567043304426 424.1009126362303 369.13091958928976 424.0708564199252 368.7561687455353 424.1313601840176 368.38511502225 424.1918639481099 368.01406129896463 424.339411210988 367.66827035597964 424.486958473866 367.3224794129946 424.71297378167884 367.02204863616316 424.93898908949166 366.7216178593317 425.2303364219298 366.4840082995189 425.521683754368 366.24639873970614 425.86142999078135 366.0854202756924 426.2011762271947 365.92444181167866 426.20102828213385 365.9244911184799 Z"
    fill="currentColor"
  ></path>
  <path
    d="M 568.400355319916 320.83686110487406 Q 568.400355319916 320.83686110487406 572.2146314817062 318.40381493175767 576.0289076434965 315.9707687586413 581.006696963953 309.8229051265454 585.9844862844095 303.67504149444943 587.8243118557272 298.7746861751701 589.6641374270448 293.8743308558907 590.9487323971365 284.49849608590756 592.2333273672282 275.1226613159244 587.3185604901621 266.5670664039865 582.4037936130961 258.0114714920486 578.7309570290392 255.5387811495836 575.0581204449824 253.06609080711863 565.6917526316206 249.30065342867653 556.3253848182588 245.53521605023442 549.4180547613307 244.25655486105728 542.5107247044025 242.9778936718801 535.6136758685834 242.9640890388942 528.7166270327644 242.95028440590826 516.0896388729896 242.9431602201763 503.46265071321466 242.93603603444433 492.0874002948259 244.1854405965466 480.71214987643714 245.4348451586489 456.7529394966632 249.20999597395087 432.7937291168893 252.9851467892528 415.65917279393267 257.4059493302205 398.524616470976 261.82675187118815 365.73647577967563 273.79134167419875 332.9483350883752 285.7559314772094 322.65411034327553 290.8666155497435 312.3598855981758 295.9772996222776 297.23212322681286 306.05010080474347 282.10436085544995 316.12290198720933 273.8418411322792 323.09319901629425 265.5793214091085 330.06349604537917 254.25549998019955 344.51176783855504 242.93167855129056 358.9600396317309 241.0113809278301 365.2149639485086 239.0910833043696 371.4698882652863 240.32098926636365 375.7164799227327 241.5508952283577 379.963071580179 243.9807817523777 382.36068526030317 246.41066827639776 384.75829894042727 251.97558681105158 387.2168347589362 257.5405053457054 389.67537057744516 263.7916004018829 390.9281534724555 270.0426954580604 392.1809363674658 279.44770846597805 392.18430912388766 288.85272147389577 392.1876818803095 303.38555762004137 392.18794630005925 317.9183937661869 392.1882107198089 331.16789678456496 389.6811588550795 344.41739980294295 387.17410699035 375.95549431466225 381.4962872795376 407.49358882638154 375.8184675687252 422.2020953406718 372.63074753442936 436.9106018549621 369.44302750013344 437.03669858840465 369.4366024262087 437.16279532184717 369.430177352284 437.28434247357313 369.4643527479236 437.40588962529904 369.4985281435633 437.51016117643735 369.56972583582245 437.6144327275756 369.6409235280816 437.6905114191971 369.7416890997863 437.7665901108186 369.842454671491 437.80651048382765 369.9622379406843 437.84643085683666 370.0820212098776 437.8460132376413 370.2082808366552 437.84559561844594 370.3345404634328 437.8048837318861 370.4540570315418 437.7641718453263 370.57357359965084 437.6874282366718 370.6738336928609 437.6106846280173 370.774093786071 437.5059443733525 370.84460014615695 437.40120411868776 370.9151065062429 437.2794335503249 370.9484770986919 437.157662981962 370.9818476911409 437.0316115105529 370.9745886061145 436.90556003914384 370.9673295210881 436.78842528701944 370.92020078670487 436.6712905348951 370.87307205232156 436.57533654152337 370.7910080595121 436.47938254815165 370.7089440667026 436.414655721968 370.60053693717686 436.3499288957844 370.4921298076511 436.3232061525765 370.3687297964872 436.29648340936865 370.2453297853233 436.31056262740447 370.11985690626443 436.32464184544034 369.9943840272056 436.37804892687495 369.879975323811 436.4314560083096 369.76556662041634 436.51859921761877 369.6742007141322 436.605742426928 369.58283480784814 436.71749784709345 369.52407773318083 436.8292532672589 369.4653206585135 436.9539200762887 369.445324296691 437.0785868853185 369.4253279348685 437.20311243539845 369.4461859102521 437.32763798547836 369.46704388563575 437.4389844186435 369.52657236269687 437.5503308518086 369.586100839758 437.6368401671139 369.6780671712344 437.7233494824192 369.7700335027107 437.775964131716 369.88480878941994 437.8285787810129 369.99958407612917 437.8417899966309 370.1251513152551 437.8550012122489 370.250718554381 437.8274257764255 370.37393082284063 437.7998503406021 370.4971430913002 437.73437540874716 370.6051000320609 437.66890047689225 370.71305697282156 437.5723812916547 370.79445546568786 437.4758621064172 370.8758539585541 437.35840425197 370.9221715598357 437.24094639752286 370.9684891611173 437.2410608071483 370.96846438527643 437.24117521677374 370.96843960943556 422.5056813476249 374.1615540608368 407.7701874784761 377.354668512238 376.2385293458173 383.03136047465557 344.70687121315854 388.70805243707315 331.3151383379118 391.2284861694884 317.9234054626651 393.7489199019037 303.3871686168844 393.74899959062816 288.8509317711037 393.74907927935254 279.29529701850754 393.73071897398063 269.7396622659114 393.7123586686087 263.3255699207606 392.4083107643455 256.9114775756097 391.1042628600824 251.12170549844853 388.49193459816377 245.33193342128737 385.87960633624516 242.713282749933 383.1740537729403 240.0946320785786 380.46850120963546 238.84450437060428 375.80811236716784 237.59437666262994 371.14772352470027 239.6381713475784 364.587246800358 241.68196603252684 358.0267700760158 253.12280654763543 343.4481583407201 264.56364706274405 328.86954660542443 272.8982561078434 321.8426621627916 281.23286515294274 314.8157777201588 296.44555142111983 304.6915234351377 311.658237689297 294.5672691501166 322.0318866245739 289.4194152709441 332.4055355598507 284.2715613917717 365.266310807266 272.28037080099796 398.12708605468123 260.2891802102242 415.3355418519952 255.8476513391716 432.5439976493091 251.40612246811904 456.5397833813357 247.61870611215647 480.5355691133624 243.83128975619388 491.9985794496588 242.56696744704317 503.4615897859552 241.30264513789245 516.090414002397 241.29570722708434 528.7192382188388 241.28876931627624 535.7666400086921 241.2968793802143 542.8140417985455 241.3049894441524 549.8930186911282 242.60452789309267 556.9719955837107 243.90406634203296 566.5233276840747 247.72347408448252 576.0746597844387 251.54288182693207 580.0178825300154 254.20485360597252 583.9611052755921 256.86682538501293 589.101129552334 266.0689787144124 594.241153829076 275.27113204381186 593.6410613357536 282.3012187990953 593.0409688424314 289.3313055543787 591.6910785783643 294.49862488398367 590.3411883142973 299.66594421358866 589.0014531046961 302.3373011667595 587.6617178950949 305.00865811993043 582.5204933215999 311.4721701445117 577.379268748105 317.935682169093 573.6523595461258 320.5300929051564 569.9254503441465 323.1245036412197 569.7774990750564 323.19913153461226 569.6295478059664 323.27375942800484 569.4680358229712 323.3108104718028 569.3065238399759 323.3478615156008 569.1408382271158 323.3451823013979 568.9751526142556 323.342503087195 568.8149230271348 323.3002493310465 568.654693440014 323.25799557489796 568.5092324297642 323.1786230670965 568.3637714195145 323.09925055929506 568.2415331868859 322.9873724337234 568.1192949542574 322.8754943081517 568.0273839910739 322.73761292672464 567.9354730278903 322.5997315452975 567.8792312036503 322.44386058038185 567.8229893794104 322.2879896154662 567.8056854715815 322.12318829486645 567.7883815637524 321.9583869742667 567.8110212762704 321.7942335584793 567.8336609887883 321.63008014269184 567.894928500498 321.47611523595504 567.9561960122078 321.32215032921823 568.05253045245 321.1873223791456 568.1488648926922 321.0524944290729 568.2746672992738 320.9446396424575 568.4004697058554 320.8367848558421 568.4004125128856 320.8368229803581 Z"
    fill="currentColor"
  ></path>
  <path
    d="M 547.4787132979483 355.1827790261707 Q 547.4787132979483 355.1827790261707 544.9737836834186 356.7067537198864 542.4688540688888 358.23072841360215 542.3767351173685 359.1539026339126 542.2846161658481 360.077076854223 542.1088995769854 360.17830863441105 541.9331829881228 360.2795404145991 541.7383456206603 360.33577735229886 541.5435082531977 360.3920142899986 541.3408740640866 360.39998789174865 541.1382398749756 360.40796149349865 540.9395859728079 360.36720833319066 540.74093207064 360.3264551728826 540.5578042295433 360.23934382610844 540.3746763884466 360.1522324793342 540.2177180071496 360.0238258616613 540.0607596258527 359.89541924398833 539.9390931328512 359.73318035406896 539.8174266398496 359.5709414641496 539.7381232974332 359.38429963388865 539.6588199550167 359.1976578036277 539.6264888771727 358.99746066496925 539.5941577993289 358.79726352631087 539.6106780698207 358.59514654636 539.6271983403125 358.39302956640915 539.691609800243 358.2007397935371 539.7560212601734 358.008450020665 539.8645803124649 357.8371633455057 539.9731393647564 357.6658766703464 540.1195365521893 357.525548282508 540.2659337396221 357.38521989466955 543.0426350365458 356.06883326833224 545.8193363334696 354.752446641995 549.5292949156712 352.28952528480295 553.2392534978729 349.8266039276109 557.6786225819368 347.41552904686284 562.1179916660006 345.00445416611484 567.2006898560969 341.91599892249985 572.2833880461931 338.82754367888487 574.1877458106762 337.98360981918734 576.0921035751593 337.13967595948975 576.2597818663965 337.07920689482836 576.4274601576337 337.01873783016697 576.6047373597967 337.0001552919509 576.7820145619595 336.9815727537348 576.9585873157291 337.00595675995817 577.1351600694986 337.03034076618155 577.3007659581294 337.09627411725705 577.4663718467604 337.16220746833255 577.6113858482242 337.2658581147978 577.7563998496883 337.3695087612631 577.8723937434069 337.5048525226755 577.9883876371255 337.64019628408795 578.0686198525457 337.7993669746752 578.148852067966 337.9585376652624 578.1886595049581 338.13228427700886 578.2284669419502 338.30603088875534 578.2255359904057 338.4842552604229 578.2226050388613 338.6624796320905 578.1771060458218 338.83482335482404 578.1316070527822 339.00716707755754 578.0461844218609 339.1636135260942 577.9607617909395 339.32005997463085 577.8403802894591 339.4515164740311 577.7199987879786 339.58297297343137 577.5716549944611 339.68179926577363 577.4233112009437 339.78062555811584 575.1068543245417 342.1678546051744 572.7903974481396 344.5550836522329 570.3588974906046 348.69022077591615 567.9273975330696 352.82535789959945 570.4285772493022 354.7891802151834 572.9297569655349 356.7530025307674 577.7773926420664 355.7147196838582 582.6250283185977 354.676436836949 586.3365007576549 352.9532424682455 590.0479731967122 351.230048099542 593.3034397697872 350.01456745295934 596.5589063428624 348.79908680637664 599.7500834467587 347.58553692320993 602.941260550655 346.37198704004317 608.0107819943923 343.87120425475763 613.0803034381297 341.3704214694721 615.8237367953169 340.47726944039255 618.5671701525041 339.58411741131295 618.7374981790404 339.6033443802696 618.9078262055765 339.62257134922623 619.0686030372101 339.6820030189725 619.2293798688437 339.7414346887188 619.3712611485662 339.8376168878167 619.5131424282886 339.9337990869146 619.627882009456 340.06114170143337 619.7426215906236 340.18848431595217 619.8235508033877 340.3395861871529 619.9044800161519 340.4906880583536 619.9468952508643 340.6567671383826 619.9893104855767 340.82284621841154 619.990746566803 340.99424998333427 619.9921826480294 341.165653748257 619.9525561106614 341.3324202032028 619.9129295732934 341.49918665814863 619.8345435135445 341.6516233289206 619.7561574537958 341.8040599996926 619.6435676731419 341.9333072598232 619.5309778924881 342.0625545199539 619.3907281142706 342.16110051261177 619.2504783360531 342.25964650526964 619.0907198839717 342.3217637327313 618.9309614318903 342.383880960193 618.7609794746861 342.4059591662798 618.5909975174819 342.4280373723666 618.9696601541054 345.5092248328715 619.3483227907288 348.59041229337646 623.5912177498666 346.4746445070349 627.8341127090043 344.3588767206933 632.8562073323567 340.8349920790132 637.8783019557089 337.3111074373331 641.1885504851878 335.4454977789421 644.4987990146665 333.5798881205512 648.9274348829988 330.5121899943257 653.3560707513311 327.4444918681002 657.1647633925838 324.3419791680187 660.9734560338366 321.2394664679373 666.0757098091428 317.45529174099215 671.1779635844492 313.67111701404707 678.1342763780334 308.0153324888912 685.0905891716176 302.3595479637353 696.4499128818095 291.66236095331607 707.8092365920015 280.96517394289685 715.4751577579354 274.5820911403348 723.1410789238693 268.19900833777274 727.5839989625252 263.7775869585927 732.0269190011812 259.3561655794126 738.3535629460472 253.0390648201673 744.6802068909132 246.72196406092203 747.8795099980512 243.52947199161576 751.0788131051893 240.3369799223095 754.8790267108666 236.54167093400247 758.6792403165438 232.74636194569547 753.5177811626307 232.9031010592473 748.3563220087177 233.0598401727991 742.7643123365708 236.72877592234107 737.172302664424 240.397711671883 731.4754098107819 244.7746154103829 725.7785169571398 249.15151914888278 717.5235122409199 254.8376249875721 709.2685075247 260.5237308262614 702.9460941652833 266.1778728670216 696.6236808058667 271.83201490778185 686.501379821254 280.67172490686204 676.3790788366412 289.5114349059422 667.4975250663224 297.74061589853176 658.6159712960037 305.9697968911213 649.7255703486712 313.5864420816674 640.8351694013388 321.20308727221357 631.9582066755058 328.8051694330477 623.0812439496729 336.4072515938818 609.1623264679658 347.1650918886509 595.2434089862587 357.92293218342 588.8615598828361 363.6494754270266 582.4797107794135 369.3760186706331 578.6426741087867 372.5748609735 574.8056374381599 375.7737032763669 573.1797114966413 378.8280655475684 571.5537855551227 381.88242781876977 577.7462329126809 381.6687430036476 583.938680270239 381.45505818852547 587.0698065521506 380.3099461342334 590.2009328340621 379.16483407994144 590.3963537021998 379.1219018644191 590.5917745703374 379.07896964889676 590.7906738732204 379.1006850385081 590.9895731761035 379.12240042811953 591.1711261042158 379.20648981584 591.3526790323281 379.29057920356047 591.4978769461709 379.4282384082983 591.6430748600136 379.56589761303604 591.7367154996791 379.7427136797166 591.8303561393445 379.91952974639713 591.8626353051409 380.11698998616407 591.8949144709374 380.314450225931 591.8624525256851 380.51188049955636 591.8299905804326 380.7093107731817 591.7361862983685 380.88604007890024 591.6423820163044 381.06276938461883 591.4970567305227 381.20029411747 591.3517314447408 381.33781885032107 591.1701007510248 381.4217401344722 590.9884700573087 381.5056614186233 590.7895507372364 381.5271926734707 590.5906314171641 381.54872392831817 590.3952503760567 381.50561082579566 590.1998693349492 381.4624977232732 590.0284830193862 381.3592542165957 589.8570967038232 381.25601070991814 589.7276493062857 381.10344642148834 589.5982019087481 380.95088213305854 589.524246605929 380.76497058414816 589.4502913031099 380.5790590352377 589.4395712347366 380.3792652140935 589.4288511663634 380.17947139294927 589.4824887264247 379.9867137653855 589.5361262864858 379.7939561378217 589.648505608284 379.6284164783273 589.7608849300823 379.46287681883297 589.92023986896 379.34188717345535 590.0795948078378 379.2208975280777 590.269240859629 379.157125544626 590.4588869114201 379.0933535611743 590.6589680844404 379.0934761831501 590.8590492574607 379.0935988051259 591.0486170000786 379.1576031939759 591.2381847426966 379.2216075828259 591.3973912622191 379.34279246214214 591.5565977817416 379.4639773414583 591.6687741135481 379.6296546223865 591.7809504453547 379.7953319033147 591.8343516978935 379.9881551308072 591.8877529504323 380.1809783582997 591.8767879984659 380.3807588895376 591.8658230464997 380.58053942077555 591.7916399233936 380.7663601814014 591.7174568002876 380.9521809420272 591.5878224986134 381.1045864493515 591.4581881969391 381.2569919566758 591.2866754623021 381.36002531385054 591.1151627276652 381.46305867102524 591.1153350945108 381.4629901037827 591.1155074613564 381.4629215365402 587.8766029342839 382.85290384354016 584.6376984072115 384.2428861505402 579.4276082556528 385.67114950696316 574.217518104094 387.0994128633861 571.7733711117426 384.1357645324514 569.329224119391 381.1721162015167 571.5608355043329 377.8660823340665 573.7924468892747 374.56004846661637 577.6054382406617 371.3768661769969 581.4184295920487 368.1936838873774 587.8415991055942 362.4257028942976 594.2647686191398 356.65772190121777 608.1477132152502 345.9195700955992 622.0306578113605 335.1814182899807 630.900645359546 327.57170793622487 639.7706329077316 319.96199758246905 648.6274192415331 312.35610996452624 657.4842055753344 304.7502223465834 666.3706027047208 296.4897467568365 675.2569998341071 288.22927116708956 685.3525479760997 279.3758788927826 695.4480961180922 270.5224866184757 701.8340933335726 264.76806006164713 708.2200905490531 259.0136335048186 716.4012959022964 253.31261558650698 724.5825012555397 247.61159766819534 730.2944454171015 243.12607996466727 736.0063895786634 238.6405622611392 741.8330822064725 234.73633907379724 747.6597748342816 230.8321158864553 754.2460209748056 228.9486219577475 760.8322671153294 227.0651280290397 760.320357996623 230.47034814435045 759.8084488779167 233.87556825966124 756.0131468229179 237.67579004903428 752.2178447679191 241.4760118384073 749.0253482390046 244.67531798335233 745.8328517100903 247.87462412829737 739.5149662928503 254.20188546042846 733.1970808756104 260.5291467925596 728.7121080723035 265.01415945312425 724.2271352689967 269.4991721136889 716.6173798586497 275.86720092057254 709.0076244483025 282.23522972745616 697.6250836006145 293.0014636955925 686.2425427529266 303.7676976637289 679.2873319919439 309.4882491813055 672.3321212309612 315.20880069888216 667.3147215565284 319.0196844517262 662.2973218820955 322.83056820457034 658.4895873021976 326.0660691538601 654.6818527222997 329.3015701031498 650.2585053693214 332.5506382000564 645.835158016343 335.79970629696305 642.8073931471399 337.7476058713701 639.7796282779367 339.6955054457772 634.671386901658 343.75581274873093 629.5631455253795 347.8161200516847 626.9734604103893 349.3290267176933 624.3837752953991 350.8419333837019 620.8401654042643 351.4154850720794 617.2965555131296 351.9890367604569 616.6314807780358 348.58247086405515 615.9664060429419 345.17590496765337 617.2667169997839 342.38001179227706 618.5670279566258 339.5841186169008 618.7373579050072 339.6033285529587 618.9076878533887 339.62253848901656 619.0684706273853 339.6819540807826 619.229253401382 339.74136967254856 619.371144298615 339.83753768303757 619.5130351958479 339.9337056935266 619.6277875107032 340.06103683345054 619.7425398255584 340.18836797337457 619.823484148105 340.3394617508985 619.9044284706515 340.4905555284224 619.9468603130598 340.65663036609754 619.9892921554681 340.82270520377267 619.9907453770638 340.99410882423024 619.9921985986595 341.1655124446878 619.9525887381351 341.33228286145356 619.9129788776106 341.49905327821926 619.8346080619208 341.651497786835 619.7562372462311 341.8039422954508 619.6436603908661 341.93320081391323 619.5310835355011 342.0624593323757 619.3908436125841 342.1610193495186 619.2506036896672 342.25957936666157 619.0908514501073 342.32171256965785 618.9310992105474 342.3838457726541 618.7611194620138 342.40594097682623 618.5911397134801 342.42803618099833 616.2422826052972 342.8134814188512 613.8934254971143 343.19892665670415 608.8109663416611 345.7687012903628 603.7285071862079 348.33847592402145 600.5813953807469 349.6602951563733 597.4342835752859 350.9821143887252 594.340600397461 352.3125938514088 591.246917219636 353.6430733140923 587.3314938439248 355.7118383190799 583.4160704682138 357.7806033240675 578.1872432457701 359.25604892496176 572.9584160233265 360.7314945258561 569.7799562056489 360.4770606077593 566.6014963879711 360.22262668966255 565.9864093142733 356.04862694915744 565.3713222405754 351.8746272086523 568.020969118901 347.15793400603627 570.6706159972266 342.44124080342027 573.3812937657813 339.7904916682479 576.0919715343359 337.1397425330755 576.2596437778284 337.07925670088736 576.4273160213207 337.0187708686992 576.6045913643434 337.00017060285586 576.7818667073661 336.98157033701244 576.9584418986534 337.0059366858386 577.1350170899407 337.0303030346647 577.3006295710786 337.09621982482173 577.4662420522166 337.16213661497875 577.61126641802 337.2657727595256 577.7562907838236 337.3694089040725 577.8722982113384 337.50474106541884 577.988305638853 337.6400732267652 578.0685537709412 337.79923589333504 578.1488019030294 337.9583985599049 578.1886267144835 338.13214119003896 578.2284515259377 338.305883820173 578.225538396845 338.4841084840446 578.2226252677524 338.66233314791623 578.1771435093126 338.83468141968734 578.1316617508728 339.00702969145846 578.0462547650234 339.16348468147595 577.9608477791741 339.31993967149344 577.8404794239455 339.4514082083865 577.7201110687167 339.58287674527963 577.5717771585703 339.6817178715071 577.4234432484237 339.7805589977345 575.4490042148045 340.25841137453006 573.4745651811854 340.7362637513257 568.4272013276493 343.9750461951538 563.3798374741133 347.21382863898197 556.7060881984446 351.0660336841979 550.032338922776 354.91823872941393 546.1585448356891 357.4976073180284 542.284750748602 360.0769759066428 542.109044283796 360.17822525798357 541.9333378189899 360.2794746093243 541.7385060761953 360.33573103047956 541.5436743334009 360.39198745163486 541.3410409426631 360.3999813167639 541.1384075519254 360.40797518189294 540.9397495754349 360.36724188717886 540.7410915989443 360.3265085924648 540.5579550476286 360.23941555891025 540.3748184963129 360.1523225253557 540.2178472751389 360.0239316041629 540.060876053965 359.8955406829701 539.9391933376828 359.73331396051117 539.8175106214006 359.57108723805226 539.7381886151977 359.3844533390587 539.6588666089948 359.19781944006525 539.6265155115987 358.99762553551557 539.5941644142026 358.79743163096595 539.6106644729139 358.59531299999867 539.6271645316251 358.39319436903133 539.6915567622563 358.20089815597476 539.7559489928874 358.0086019429181 539.8644909159686 357.83730441271 539.9730328390499 357.6660068825019 540.119415992912 357.5256638556464 540.265799146774 357.38532082879095 540.2164135789817 357.0195807840104 540.1670280111892 356.65384073922985 542.6895553058392 354.40722275106083 545.2120826004892 352.1606047628918 545.4093687391564 352.0469465866605 545.6066548778238 351.9332884104292 545.8254089075006 351.8701482802852 546.0441629371775 351.80700815014114 546.271670863381 351.79805577341494 546.4991787895846 351.7891033966888 546.7222178409543 351.8348590859365 546.9452568923241 351.88061477518414 547.1508640287152 351.97841920759674 547.3564711651062 352.0762236400093 547.532696490091 352.2203924173797 547.7089218150758 352.3645611947501 547.8455231044863 352.54671522096373 547.9821243938969 352.7288692471774 548.0711623743746 352.9384217216723 548.1602003548521 353.1479741961672 548.1965001347879 353.37274591927996 548.2327999147237 353.59751764239275 548.2142517492023 353.8244448710152 548.1957035836809 354.0513720996376 548.123385492954 354.26726581258004 548.0510674022271 354.4831595255225 547.9291825171254 354.675471970045 547.8072976320237 354.86778441456755 547.6429299077963 355.02533838235877 547.4785621835688 355.1828923501499 547.4786377407586 355.1828356881603 Z"
    fill="currentColor"
  ></path>
  <path
    d="M 545.0777587890625 391.12289447698964 Q 545.0777587890625 391.12289447698964 541.3071661071777 390.9345560914112 537.536573425293 390.74621770583275 534.34060031984 390.9903022598221 531.144627214387 391.2343868138115 530.89707885639 391.20432803509334 530.649530498393 391.1742692563752 530.4163696625939 391.08583993785214 530.1832088267947 390.99741061932906 529.9779868319249 390.8557502771485 529.7727648370552 390.71408993496794 529.6074091950991 390.5274318748733 529.442053553143 390.3407738147786 529.32617474178 390.1199666119926 529.2102959304173 389.8991594092066 529.1506288316086 389.65703638872986 529.0909617328001 389.4149133682531 529.090974201132 389.1655467314117 529.0909866694639 388.9161800945704 529.1506779802761 388.6740630420141 529.2103692910883 388.4319459894578 529.326270182592 388.211150375657 529.4421710740958 387.99035476185617 529.6075453810311 387.803713238259 529.7729196879664 387.6170717146618 529.9781558478442 387.47543189538897 530.183392007722 387.33379207611614 530.4165616852872 387.24538607411876 530.6497313628524 387.15698007212137 530.8972827254895 387.1269460483893 531.1448340881267 387.0969120246572 536.5362581187187 386.04612592732485 541.9276821493107 384.9953398299925 552.7529659313827 382.5974670463821 563.5782497134547 380.19959426277177 583.217402422388 377.1257001640466 602.8565551313212 374.0518060653214 626.972555716364 372.8293965021064 651.0885563014068 371.6069869388914 678.3447200570662 371.6424245085234 705.6008838127256 371.67786207815533 717.7727368465727 371.71062424430283 729.9445898804198 371.74338641045034 745.7767725868111 372.3953093391287 761.6089552932024 373.04723226780703 771.8334853380259 374.32875387934916 782.0580153828495 375.61027549089135 788.4199895129939 376.26042867451997 794.7819636431384 376.9105818581486 804.348212933719 380.0849662835412 813.9144622242997 383.25935070893377 818.4432130109035 384.59606472083317 822.9719637975073 385.93277873273263 825.6743137854892 390.7554170720357 828.376663773471 395.57805541133877 823.985687730248 401.43932046618795 819.5947116870248 407.30058552103714 819.5006500096935 407.38871282113405 819.4065883323622 407.4768401212309 819.2893107505488 407.5303189859229 819.1720331687353 407.583797850615 819.043818676214 407.5970290286519 818.9156041836926 407.6102602066888 818.7898768716757 407.58185839023736 818.6641495596588 407.553456573786 818.5540731109031 407.48639544052605 818.4439966621475 407.4193343072662 818.3610961098952 407.3206351755525 818.2781955576431 407.22193604383887 818.2311506115988 407.1019327388159 818.1841056655544 406.9819294337929 818.1778419439875 406.85318633317434 818.1715782224204 406.7244432325558 818.2067515386323 406.6004397729613 818.2419248548441 406.4764363133668 818.3148525533427 406.3701556897496 818.3877802518411 406.2638750661324 818.4908267833425 406.1864448878406 818.5938733148438 406.10901470954883 818.716249680298 406.06854193668914 818.8386260457523 406.0280691638295 818.9675194073923 406.0287913064042 819.0964127690323 406.02951344897883 819.2183279578696 406.0713548984696 819.340243146707 406.1131963479604 819.4424156102882 406.19177629356057 819.5445880738692 406.2703562391607 819.6163203282861 406.37744733982277 819.688052582703 406.48453844048487 819.7218342419828 406.60892822970027 819.7556159012627 406.73331801891567 819.7479100167614 406.8619828529178 819.7402041322599 406.99064768691994 819.6918175121189 407.1101163236246 819.6434308919777 407.22958496032925 819.5594296280984 407.3273490019368 819.4754283642192 407.4251130435443 819.3646074111041 407.49093656909116 819.2537864579891 407.55676009463804 819.1277487986833 407.58375136362383 819.0017111393774 407.6107426326096 818.8736529500809 407.5960756520464 818.7455947607843 407.58140867148325 818.6289237677205 407.52661907810784 818.5122527746566 407.4718294847324 818.4191844615975 407.3826537634342 818.3261161485383 407.2934780421359 818.2663947924286 407.1792529144749 818.206673436319 407.0650277868139 818.1865518789085 406.9377126538087 818.1664303214981 406.8103975208035 818.1880152951592 406.68332231048777 818.2096002688204 406.556247100172 818.2706318211129 406.4427166206103 818.3316633734055 406.32918614104864 818.3315905184514 406.32928086967286 818.3315176634974 406.3293755982971 822.6952710359233 400.8038934458609 827.0590244083493 395.27841129342477 824.6577635995363 391.2811482643692 822.2565027907234 387.2838852353137 817.8259726814331 386.05336170421845 813.3954425721428 384.82283817312316 804.0004226306935 381.7020357273575 794.6054026892441 378.58123328159184 788.2255153363112 377.953064737735 781.8456279833782 377.3248961938782 771.6914274248834 376.08200601830106 761.5372268663887 374.83911584272397 745.7408860148855 374.23417612087945 729.9445451633823 373.62923639903494 717.77311872412 373.66218406777716 705.6016922848577 373.6951317365194 678.4038378633502 373.7523931408265 651.2059834418427 373.8096545451335 627.228350247145 375.1547549436922 603.2507170524474 376.4998553422508 583.744854917146 379.75319738279524 564.2389927818446 383.0065394233397 553.6333022421949 385.65749049796756 543.0276117025452 388.3084415725954 537.0862228953359 389.7714141880316 531.1448340881267 391.2343868034678 530.8972827254895 391.2043527797357 530.6497313628524 391.17431875600363 530.4165616852872 391.08591275400624 530.183392007722 390.99750675200886 529.9781558478442 390.85586693273603 529.7729196879664 390.7142271134632 529.6075453810311 390.527585589866 529.4421710740958 390.34094406626883 529.326270182592 390.120148452468 529.2103692910883 389.8993528386672 529.1506779802761 389.6572357861109 529.0909866694639 389.4151187335546 529.090974201132 389.1657520967133 529.0909617328001 388.9163854598719 529.1506288316086 388.67426243939514 529.2102959304173 388.4321394189184 529.32617474178 388.2113322161324 529.442053553143 387.9905250133464 529.6074091950991 387.8038669532517 529.7727648370552 387.61720889315706 529.9779868319249 387.4755485509765 530.1832088267947 387.33388820879594 530.4163696625939 387.24545889027286 530.649530498393 387.1570295717498 530.89707885639 387.12697079303166 531.144627214387 387.0969120143135 534.34060031984 387.3409965683029 537.536573425293 387.58508112229225 541.3071661071777 387.3967427367138 545.0777587890625 387.20840435113536 545.3119657993791 387.2368431448899 545.5461728096957 387.2652819386444 545.7667676975684 387.3489454558788 545.9873625854412 387.43260897311313 546.1815243656225 387.56663468627477 546.3756861458038 387.7006603994364 546.5321301265067 387.8772587277792 546.6885741072097 388.05385705612196 546.7982077569254 388.2627640965052 546.9078414066411 388.47167113688835 546.9642928124969 388.70074520230946 547.0207442183527 388.9298192677305 547.0207324219879 389.16574656274423 547.0207206256231 389.40167385775794 546.9642463126431 389.6307422768931 546.907771999663 389.8598106960282 546.7981174597915 390.0687067720019 546.68846291992 390.27760284797563 546.5320012801665 390.4541855310374 546.375539640413 390.63076821409913 546.1813644586312 390.7647745104126 545.9871892768494 390.89878080672617 545.7665860237279 390.98242226405347 545.5459827706063 391.0660637213808 545.3117729175815 391.09447909429207 545.0775630645566 391.1228944672034 545.0776609268096 391.1228944720965 Z"
    fill="currentColor"
  ></path>
</svg>