<svg xmlns="http://www.w3.org/2000/svg" version="1.1" xmlns:xlink="http://www.w3.org/1999/xlink" style="overflow: hidden; display: block;" viewBox="101.77 203.33 555.94 233.17"><defs/><g id="two-0" transform="matrix(1 0 0 1 0 0)" opacity="1"/><path d="M 342.56569893637254 206.65735849402066 Q 342.56569893637254 206.65735849402066 333.6823367364293 217.27028313811638 324.7989745364861 227.88320778221214 321.5573133569883 232.28015565821818 318.3156521774904 236.67710353422422 302.551809740292 260.5391457887851 286.7879673030936 284.401188043346 282.2122485434578 290.88534801924953 277.63652978382197 297.36950799515307 271.3120358328987 307.4338800372021 264.98754188197546 317.4982520792511 260.5157784449958 324.49148614975564 256.0440150080162 331.4847202202602 249.0687226513418 341.6117724080667 242.09343029466743 351.73882459587327 238.29132196156678 358.67409989685484 234.4892136284661 365.6093751978364 228.77073138777303 374.5037114534071 223.05224914707998 383.3980477089778 219.87883570501327 389.0907866172933 216.7054222629466 394.7835255256088 213.51609268527847 399.8864438533691 210.32676310761036 404.9893621811294 207.13268914147818 409.4640579084675 203.93861517534597 413.9387536358056 198.20836693019814 420.31689640807184 192.4781186850503 426.6950391803381 188.75726680763972 431.34830206662946 185.03641493022917 436.00156495292083 184.87228301001124 436.13037859472314 184.70815108979332 436.25919223652545 184.5179607626953 436.3449819854885 184.3277704355973 436.4307717344516 184.1225755723662 436.4685514863349 183.9173807091351 436.5063312382182 183.70910724486293 436.49390523206716 183.50083378059077 436.4814792259162 183.30158657880673 436.4195696617922 183.10233937702267 436.3576600976682 182.92369869445605 436.24986516234696 182.7450580118894 436.14207022702567 182.59740645340432 435.9946549672127 182.44975489491924 435.84723970739975 182.34167397603227 435.6687719049217 182.23359305714527 435.49030410244364 182.17136444594027 435.2911563143658 182.10913583473527 435.092008526288 182.09637626101926 434.8837552314104 182.08361668730325 434.6755019365328 182.12106773810012 434.47024682613846 182.15851878889703 434.2649917157441 182.24400380737484 434.0746642264929 182.32948882585268 433.8843367372418 182.458039418721 433.7199987117517 182.58659001158935 433.55566068626155 186.13459742691586 425.49569699630183 189.68260484224237 417.4357333063422 195.481038914156 409.21187989653316 201.27947298606958 400.98802648672415 206.36192534664542 393.883991665906 211.44437770722126 386.77995684508795 214.96363147836087 380.608163077338 218.4828852495005 374.4363693095881 220.38365232686687 370.6340595705614 222.28441940423326 366.83174983153475 222.56144790080492 366.61279962073775 222.83847639737655 366.39384940994074 223.15985428976265 366.2475612251606 223.48123218214874 366.1012730403805 223.82828097214394 366.03614915778996 224.17532976213914 365.97102527519945 224.5278789577629 365.99085069791454 224.88042815338667 366.0106761206296 225.2179875788249 366.1142985941506 225.55554700426313 366.2179210676716 225.85849768984917 366.39931804896884 226.16144837543524 366.58071503026605 226.41218281308878 366.82934371826354 226.6629172507423 367.07797240626104 226.8468627431662 367.37938248993066 227.03080823559011 367.6807925736003 227.13727386212207 368.01746608471746 227.243739488654 368.3541395958346 227.26653746207768 368.7065090541147 227.28933543550136 369.0588785123947 227.22714073653023 369.4064641883664 227.1649460375591 369.754049864338 227.0213734250196 370.0766500621826 226.87780081248005 370.3992502600272 226.66119473335866 370.6781154410887 226.44458865423726 370.9569806221502 221.17268688062143 374.03178931593925 215.90078510700556 377.10659800972826 210.9742322107264 382.1738176880041 206.04767931444724 387.24103736627995 202.12489525186575 393.3616916178113 198.20211118928427 399.48234586934257 203.55651030419403 403.58916966171853 208.91090941910377 407.69599345409455 218.0414949223034 409.6566142979956 227.17208042550303 411.6172351418967 238.38521106770074 411.95189232660266 249.59834170989845 412.28654951130864 254.68482572533821 412.4270774406492 259.77130974077795 412.56760536998985 272.3364507932374 412.0366754267593 284.9015918456968 411.5057454835287 289.8890833862681 410.33196139866897 294.87657492683934 409.15817731380923 301.88855429987575 407.9263308347674 308.9005336729121 406.69448435572554 316.5023595828862 404.6052872640695 324.10418549286027 402.5160901724135 330.6779835615185 398.7601999129974 337.2517816301767 395.0043096535813 340.5594881072585 390.1399515864589 343.8671945843403 385.27559351933644 345.1260992928858 375.1712907214111 346.3850040014312 365.06698792348567 342.85717284406013 354.6946509514913 339.3293416866891 344.32231397949704 335.6680657663013 338.07341650095407 332.0067898459135 331.82451902241104 328.2716289821687 326.11994131970755 324.5364681184239 320.4153636170041 318.3193457617436 313.5197119232977 312.1022234050633 306.62406022959124 304.55148723337595 299.0306863340712 297.0007510616887 291.43731243855126 289.45521011517974 285.11722459949283 281.90966916867075 278.7971367604344 271.21553045734714 271.22564191481183 260.52139174602354 263.6541470691892 230.36739557691962 249.18412534821482 200.2133994078157 234.7141036272404 190.57281667518737 230.83121616336183 180.93223394255907 226.94832869948326 168.33975694056517 223.15962400253875 155.74727993857127 219.37091930559424 146.27645042871148 217.46488283698602 136.80562091885173 215.55884636837783 128.68178244471528 215.5525234058145 120.55794397057886 215.54620044325114 114.94724833625473 216.15184912746383 109.3365527019306 216.75749781167656 106.44299720019897 223.67563170883093 103.54944169846735 230.5937656059853 107.12680331329074 239.7216588422305 110.70416492811414 248.84955207847568 114.96229194528432 255.07785086904659 119.2204189624545 261.30614965961746 125.42858623930286 268.2280668830359 131.63675351615123 275.1499841064544 136.66060014907666 280.23875367591256 141.68444678200208 285.3275232453707 147.29352337391254 289.7310618307492 152.902599965823 294.1346004161277 163.51909166927828 299.77933556352855 174.13558337273355 305.4240707109294 185.45914742951578 309.8520779607281 196.78271148629798 314.28008521052675 203.7738839878984 316.83652052538514 210.76505648949882 319.3929558402436 219.61606676996547 322.56292715828135 228.46707705043215 325.7328984763191 241.69684160873223 329.5227688308655 254.9266061670323 333.3126391854119 258.869255271224 334.5116035528781 262.8119043754157 335.71056792034426 263.0322720150623 335.8261399153255 263.25263965470884 335.9417119103067 263.4245675715099 336.12159958095646 263.59649548831095 336.3014872516062 263.70198278399283 336.52685631132175 263.8074700796747 336.7522253710373 263.8354722065336 336.9994796197748 263.8634743333925 337.24673386851225 263.8110594613544 337.48998572116 263.7586445893163 337.7332375738078 263.6313005693198 337.9470184971814 263.5039565493233 338.160799420555 263.31501633387757 338.32272649554454 263.12607611843185 338.48465357053414 262.8953217979695 338.5777729896437 262.6645674775071 338.67089240875316 262.4161590902937 338.6854545442207 262.1677507030803 338.70001667968825 261.9276966728305 338.6344968720863 261.6876426425807 338.5689770644844 261.48107668962984 338.4302352549645 261.274510736679 338.29149344544464 261.1230603708292 338.09405593808776 260.9716100049793 337.89661843073094 260.89113211951394 337.6611569846758 260.8106542340485 337.4256955386207 260.80957488481994 337.176863029425 260.80849553559136 336.9280305202294 260.88692773074877 336.6918797772915 260.9653599259061 336.45572903435357 261.11509179391237 336.25698510279665 261.2648236619186 336.05824117123973 261.4701782366682 335.9177125931611 261.67553281141767 335.7771840150825 261.91500941472583 335.709584169703 262.154486018034 335.6419843243236 262.4030113863188 335.65439093329906 262.65153675460357 335.66679754227454 262.88309021620114 335.75791163037024 263.11464367779877 335.84902571846595 263.3049815241558 336.0093076166064 263.4953193705128 336.1695895147469 263.6245131788713 336.3822576658866 263.75370698722986 336.59492581702625 263.8082301317509 336.83771380960184 263.862753276272 337.0805018021774 263.8368971693315 337.32798966927646 263.81104106239104 337.5754775363755 263.707512845211 337.80175323298226 263.60398462803096 338.028028929589 263.433623732279 338.2094013305378 263.263262836527 338.39077373148655 263.04390609295916 338.5082530985203 262.8245493493913 338.6257324655541 262.57916346696373 338.66701867793296 262.33377758453616 338.7083048903118 262.08805452991464 338.6690752707011 261.84233147529307 338.62984565109036 261.84255042112454 338.62991836905843 261.84276936695596 338.6299910870265 258.01858752761575 337.2506694909955 254.19440568827557 335.8713478949646 240.87941134386926 332.0662172015962 227.56441699946296 328.26108650822783 218.70014829942016 325.103360653738 209.8358795993774 321.9456347992481 202.80767924319002 319.39900704904517 195.77947888700268 316.85237929884215 184.29701606681374 312.3855446802019 172.81455324662477 307.9187100615617 161.9674534813875 302.1761184590258 151.12035371615022 296.43352685648995 145.33125670929505 291.9525423708406 139.54215970243987 287.47155788519126 134.4036035092481 282.3869768707266 129.2650473160563 277.30239585626185 122.82922886720357 270.29057595455964 116.39341041835083 263.27875605285743 111.78938171051651 256.7775999378069 107.18535300268219 250.2764438227563 103.44589643439417 236.2092946479294 99.70643986610614 222.1421454731025 104.29252759328415 218.1804373817683 108.87861532046216 214.2187292904341 114.71997421714521 213.5677908445668 120.56133311382825 212.91685239869943 128.9388306706951 212.94312910847327 137.31632822756194 212.96940581824708 146.91354372184998 214.89862491871867 156.51075921613798 216.82784401919022 169.22021934762896 220.64653781577556 181.92967947911993 224.4652316123609 191.65642961798557 228.37034422742002 201.38317975685118 232.27545684247914 231.74145805607324 246.84246043540566 262.0997363552953 261.4094640283322 272.90158737608704 269.02830188141866 283.70343839687877 276.64713973450506 291.369411344682 283.02490048265355 299.0353842924852 289.40266123080204 306.6744020730789 297.01003018912684 314.31341985367266 304.6173991474516 320.72961805486926 311.64432017457005 327.14581625606587 318.67124120168853 331.01630559808336 324.3862188614236 334.88679494010086 330.10119652115867 338.80961807768995 336.52842358444195 342.732441215279 342.9556506477253 345.3983650170819 349.3437153744067 348.0642888188848 355.73178010108813 349.4112907529153 360.59641428485793 350.7582926869459 365.46104846862767 349.47114232152796 376.76653674475483 348.1839919561101 388.07202502088205 343.86400780879376 393.337942409859 339.5440236614774 398.6038597988359 332.1630121271657 402.432163826137 324.782000592854 406.2604678534381 317.11806121931625 407.9849623833327 309.4541218457785 409.7094569132273 302.55330527755495 411.0127963890793 295.65248870933135 412.3161358649313 290.3706342480406 413.6667635805372 285.08877978674974 415.01739129614305 272.4301649187406 415.74332557359025 259.77155005073143 416.4692598510374 254.68493117556665 416.6097870018891 249.59831230040183 416.75031415274077 238.02625073891463 417.0741048175994 226.45418917742742 417.397895482458 216.613622990737 416.82323722099727 206.7730568040466 416.2485789595365 201.93768267719713 414.69484456316025 197.10230855034763 413.14111016678396 193.8252386413074 406.93341989814746 190.54816873226721 400.72572962951097 192.90225486403472 395.8845800727413 195.2563409958022 391.0434305159717 198.73024497101176 387.22042801931116 202.20414894622132 383.3974255226506 207.44008646235008 378.31312801219735 212.67602397847884 373.22883050174414 217.48011857098714 370.03039418118334 222.28421316349545 366.83195786062254 222.56121976366092 366.6129799480707 222.83822636382635 366.3940020355188 223.1595896257871 366.2476817136809 223.48095288774786 366.10136139184306 223.82799516361956 366.0362028046992 224.17503743949126 365.97104421755535 224.52758861589456 365.9908343852518 224.88013979229785 366.0106245529483 225.21770957829563 366.1142132700087 225.55527936429337 366.2178019870691 225.85824818806276 366.39916867239083 226.16121701183218 366.5805353577125 226.41197631110083 366.82913897102316 226.66273561036945 367.0777425843338 226.84671124288195 367.3791342719471 227.03068687539442 367.6805259595605 227.13718616874507 368.01718882243165 227.24368546209575 368.3538516853028 227.2665186723512 368.70621886202366 227.28935188260667 369.0585860387445 227.22719194251405 369.40617793244814 227.16503200242144 369.7537698261518 227.0214916506195 370.07638437964465 226.87795129881758 370.3989989331375 226.66137310729727 370.6778857734125 226.44479491577695 370.9567726136875 224.52080305688156 373.5361263186693 222.5968111979862 376.11548002365106 218.48867612071706 382.6201759377559 214.38054104344795 389.12487185186075 209.26799567569137 396.0511815420515 204.15545030793479 402.9774912322423 198.59917620455406 411.1679604324817 193.0429021011733 419.35842963272114 189.03971965718307 427.6799360410835 185.03653721319287 436.0014424494459 184.87241817515977 436.13027250379616 184.70829913712666 436.25910255814637 184.51811738995448 436.34491132571316 184.3279356427823 436.43072009327994 184.12274455855237 436.4685203644607 183.91755347432243 436.5063206356414 183.709278768491 436.4939154568989 183.5010040626596 436.48151027815635 183.3017506709154 436.41962063906203 183.10249727917116 436.35773099996777 182.92384581800422 436.2499539292537 182.74519435683726 436.14217685853964 182.5975280575645 435.9947763646196 182.4498617582917 435.8473758706995 182.3417629931649 435.66891887720567 182.23366422803812 435.4904618837119 182.1714157023655 435.29132031949086 182.10916717669284 435.0921787552699 182.0963867777112 434.88392673739094 182.08360637872954 434.67567471951196 182.12103690382816 434.47041586503883 182.15846742892677 434.26515701056564 182.24393341422828 434.0748209737643 182.3293993995298 433.88448493696296 182.45793355795286 433.72013405723527 182.58646771637592 433.5557831775076 186.55764727985604 429.2491905899802 190.5288268433362 424.94259800245277 196.16424659213823 418.67655131520553 201.79966634094026 412.4105046279583 204.9438063990715 408.0008558393538 208.08794645720275 403.5912070507493 211.23717672653112 398.54178127519833 214.38640699585952 393.49235549964743 217.59401832107437 387.7227079430358 220.80162964628926 381.95306038642417 226.4600451475897 373.1323188662144 232.1184606488902 364.31157734600464 235.9757131687142 357.2493710409223 239.8329656885382 350.18716473584 246.7588921631336 340.0854113188175 253.684818637729 329.983657901795 258.1186083697222 322.97948395932804 262.5523981017155 315.97531001686104 268.8736040118598 305.81953446494634 275.1948099220041 295.66375891303164 279.68468976452846 289.1726601752595 284.1745696070529 282.6815614374874 299.88708141641087 258.7063753712864 315.5995932257689 234.73118930508548 318.79182002579375 230.14847045198843 321.98404682581855 225.56575159889138 330.6967838080043 214.81195412079472 339.40952079018996 204.0581566426981 339.58796272558936 203.88820324880044 339.7664046609888 203.71824985490278 339.9803348482559 203.59594059367413 340.194265035523 203.4736313324455 340.4312498421223 203.40607482389515 340.66823464872164 203.33851831534483 340.91450050655897 203.32964094692386 341.16076636439624 203.3207635785029 341.4020002902433 203.37108130328104 341.6432342160903 203.4213990280592 341.8654156828426 203.52798737750817 342.0875971495948 203.63457572695714 342.2778129599654 203.79123978119895 342.468028770336 203.94790383544074 342.615223572489 204.145538272282 342.76241837464204 204.34317270912328 342.85803719976036 204.570291005809 342.95365602487874 204.79740930249469 342.9921415023539 205.04081133295034 343.0306269798291 205.28421336340597 343.00974233190203 205.5297525901853 342.98885768397497 205.77529181696463 342.90981672736444 206.0086974886706 342.8307757707539 206.2421031603766 342.6981723695718 206.44980972840312 342.56556896838975 206.6575162964297 342.5656339523812 206.65743739522517 Z" fill="currentColor"/><path d="M 416.41566757156795 410.087422433733 Q 416.41566757156795 410.087422433733 419.5965827006529 408.265989274174 422.77749782973785 406.44455611461495 430.8538957094979 401.033175705784 438.93029358925804 395.62179529695305 443.5708904958178 392.05889867801045 448.21148740237754 388.4960020590678 452.00847500678003 384.99313315374667 455.8054626111826 381.49026424842555 459.105030417114 377.73420970752807 462.4045982230454 373.97815516663064 462.35596746993315 373.2290561394864 462.3073367168209 372.47995711234216 462.52729596190727 372.1534418500618 462.7472552069937 371.8269265877815 463.0389650868126 371.56254120237406 463.3306749666315 371.2981558169666 463.6771812892618 371.11126639945405 464.0236876118921 370.92437698194146 464.40485141358215 370.8258455540506 464.78601521527213 370.7273141261597 465.17968323795867 370.7228673391089 465.57335126064515 370.7184205520582 465.95664350035327 370.80831685332 466.3399357400613 370.8982131545817 466.69057523381025 371.0772277669028 467.0412147275591 371.2562423792239 467.3388222914975 371.5139709649254 467.63642985543584 371.77169955062686 467.8637085239644 372.09316291219835 468.09098719249306 372.41462627376984 468.23472751871844 372.7811409455329 468.3784678449438 373.147655617296 468.43031563435216 373.5379197493072 468.4821634237605 373.9281838813184 468.43910528039527 374.3195153038887 468.39604713703005 374.71084672645907 468.2605856022068 375.0805012389221 468.12512406738347 375.4501557513852 463.099324425355 376.412741609671 458.0735247833265 377.3753274679569 449.08096114956663 382.58669935073766 440.0883975158067 387.79807123351844 434.65340652791133 392.62079359713147 429.218415540016 397.4435159607445 426.0119041180153 401.55067082630103 422.8053926960147 405.65782569185757 422.4404921269462 407.5448991471527 422.0755915578777 409.4319726024478 421.8882547018029 409.712081461023 421.7009178457281 409.99219031959825 421.4519884734587 410.2193251648287 421.2030591011893 410.4464600100592 420.9070049995375 410.60741975406825 420.6109508978857 410.76837949807725 420.28497874514954 410.8538091529804 419.9590065924134 410.93923880788356 419.62206190542565 410.94417319812396 419.28511721843796 410.9491075883643 418.9567832382377 410.87325992694934 418.62844925803734 410.7974122655343 418.32780877098037 410.64519082210904 418.0271682839234 410.4929693786838 417.77169452924306 410.2732212706923 417.5162207745628 410.0534731627008 417.32076189888454 409.7789701605043 417.1253030232063 409.50446715830776 417.0012191055681 409.19116338929143 416.8771351879299 408.87785962027505 416.83163799145495 408.5439643142146 416.78614079498004 408.21006900815405 416.82187461886514 407.8749881759257 416.85760844275023 407.53990734369734 416.9724964354723 407.2231158990139 417.0873844281943 406.9063244543305 422.75417119722806 404.4186301365962 428.4209579662618 401.9309358188619 434.6427769186866 398.76115907249414 440.86459587111136 395.59138232612645 449.9631766343941 391.94540352506124 459.0617573976768 388.29942472399597 467.53490256867786 386.41358917692787 476.00804773967894 384.5277536298597 483.3100683214093 383.7108238731448 490.61208890313964 382.8938941164299 494.70761272511845 387.41261095839343 498.8031365470973 391.9313278003569 499.5994086525128 397.7856321357013 500.3956807579283 403.6399364710457 507.4151923932108 400.5640283710289 514.4347040284933 397.48812027101206 521.02747162938 395.2125618373951 527.6202392302667 392.93700340377814 533.5133151532201 394.815574617502 539.4063910761735 396.6941458312259 547.5294942378902 398.3039249506965 555.6525973996069 399.9137040701671 562.9639252619014 397.42086575396127 570.275253124196 394.9280274377555 577.9175303133711 391.4882627970056 585.5598075025462 388.0484981562557 590.5034693662303 385.42682113391174 595.4471312299145 382.8051441115678 602.9274411237477 382.23963509755595 610.4077510175808 381.674126083544 624.0070545450678 383.3127737208331 637.6063580725549 384.9514213581221 646.4478701860114 385.83382493658246 655.289382299468 386.7162285150428 655.6803536352302 386.7808146558357 656.0713249709924 386.8454007966285 656.4212058189867 387.0314474229805 656.7710866669811 387.2174940493324 657.0432444100629 387.5055220303529 657.3154021531449 387.7935500113734 657.481341803771 388.1534027414176 657.6472814543971 388.5132554714618 657.6896290873431 388.90725627470215 657.731976720289 389.3012570779425 657.6462985272067 389.6881539662737 657.5606203341245 390.07505085460485 657.3558868444464 390.41433562168766 657.1511533547684 390.75362038877046 656.8488002189083 391.0097698299289 656.5464470830483 391.26591927108734 656.1781307541443 391.4121144722152 655.8098144252402 391.55830967334305 655.4140977201545 391.5792439582905 655.0183810150687 391.6001782432379 654.6366955772828 391.4936597868448 654.2550101394969 391.3871413304517 653.9273185351022 391.16432264322054 653.5996269307076 390.94150395598933 653.3602385571864 390.62571421329164 653.1208501836652 390.309924470594 652.9948290669176 389.9342269418506 652.8688079501701 389.55852941310724 652.8693485343858 389.16225972875213 652.8698891186016 388.7659900443971 652.9969348044707 388.39063774498726 653.1239804903398 388.01528544557743 653.3642295610149 387.7001500159445 653.60447863169 387.38501458631157 653.9327769460518 387.16309078912576 654.2610752604137 386.94116699193995 654.6430498982861 386.83569030734884 655.0250245361586 386.7302136227577 655.4206826521252 386.75222748748104 655.8163407680915 386.77424135220434 656.1842568529667 386.9214409087946 656.5521729378418 387.06864046538476 656.8538260804187 387.32561388140994 657.1554792229956 387.58258729743517 657.3592862596179 387.9224293884031 657.56309329624 388.26227147937095 657.6477155763735 388.6494006886477 657.7323378565068 389.0365298979244 657.6889154050832 389.4304136951065 657.6454929536596 389.8242974922885 657.4785721128055 390.18369613983566 657.3116512719515 390.54309478738287 657.0387086977672 390.830379152025 656.7657661235829 391.11766351666716 656.4153789756353 391.3027548495905 656.0649918276878 391.4878461825138 655.6738457328602 391.55136537230186 655.2826996380327 391.6148845620899 655.2830670372389 391.61488506328953 655.2834344364452 391.61488556448916 646.2703810051626 391.2188445412321 637.2573275738798 390.82280351797505 623.09823823388 389.92626520042745 608.9391488938803 389.0297268828799 603.7428754046325 388.5074141374822 598.5466019153848 387.9851013920846 593.2733040453672 390.46651611374034 588.0000061753497 392.9479308353961 576.1810026327721 399.4072643514421 564.3619990901947 405.8665978674881 557.0942025487768 408.26959323541746 549.826406007359 410.67258860334687 543.8417766057005 411.1801815213563 537.857147204042 411.6877744393657 533.6733749628986 406.1577372175982 529.4896027217552 400.62769999583065 523.352196475297 402.1873830361965 517.2147902288389 403.74706607656225 507.01313723705425 406.5215476479261 496.8114842452696 409.29602921929 494.4551873729498 403.6560609815945 492.09889050063 398.01609274389904 491.24750061293173 392.92389388063214 490.3961107252334 387.8316950173652 483.73251574871125 388.3039576728748 477.0689207721891 388.7762203283844 468.9980837486093 390.7366123111982 460.92724672502953 392.69700429401195 449.0046025061396 398.61417255685427 437.08195828724956 404.5313408196966 429.57883805129654 406.98153199958034 422.0757178153436 409.4317231794641 421.8884089710913 409.7118507703243 421.7011001268389 409.9919783611846 421.45219346929866 410.2191380982166 421.2032868117584 410.4462978352486 420.90724880756125 410.6072871838629 420.6112108033641 410.7682765324773 420.2852471952233 410.8537387841685 419.9592835870825 410.9392010358597 419.62233939521855 410.9441691205441 419.28539520335454 410.9491372052284 418.95705364002976 410.8733223775906 418.62871207670497 410.79750754995285 418.3280563690069 410.6453161713374 418.02740066130883 410.4931247927219 417.77190493309513 410.2734022332046 417.5164092048814 410.0536796736872 417.3209228798803 409.7791962187507 417.1254365548791 409.50471276381427 417.00132130748455 409.19142140475617 416.8772060600899 408.8781300456981 416.8316754743119 408.54423929102666 416.7861448885339 408.2103485363553 416.82184520415717 407.87526413241994 416.85754551978044 407.5401797284846 416.9724018327836 407.22337679658585 417.0872581457868 406.9065738646872 418.04414621043435 404.9258993907597 419.0010342750819 402.9452249168323 422.1220401897374 398.21122892073527 425.2430461043928 393.47723292463826 431.2921652963181 388.13735790367684 437.34128448824333 382.7974828827154 443.8903181557282 378.81533097246063 450.43935182321314 374.8331790622058 456.3732700295958 373.6567135393826 462.3071882359785 372.4802480165595 462.5271148284389 372.15371075998723 462.7470414208994 371.827173503415 463.03872486072123 371.5627589483415 463.330408300543 371.2983443932681 463.67689593249906 371.1114203260578 464.0233835644552 370.92449625884746 464.4045375110966 370.8259267150691 464.785691457738 370.72735717129075 465.1793590337775 370.7228710174601 465.5730266098169 370.71838486362935 465.95632783723863 370.8082428352177 466.3396290646604 370.89810080680604 466.6902864581173 371.07708035428277 467.04094385157424 371.25605990175956 467.3385771868831 371.513758725416 467.6362105221919 371.77145754907247 467.86352133592027 372.09289818116986 468.0908321496486 372.4143388132672 468.23460912662233 372.7808391091651 468.37838610359614 373.147339405063 468.43027291915837 373.53759835034396 468.4821597347206 373.9278572956249 468.43914072471284 374.3191930220529 468.39612171470515 374.7105287484809 468.26069714601033 375.08019680524916 468.12527257731557 375.4498648620174 467.02101433396194 377.61291049948306 465.9167560906083 379.7759561369487 458.7812668422664 386.13846551706683 451.64577759392444 392.50097489718496 447.41335831168453 396.54345530464434 443.1809390294446 400.58593571210366 434.7997319218748 406.55089057389085 426.4185248143051 412.51584543567805 423.31511880691545 414.46500495800376 420.2117127995258 416.4141644803295 419.80560057648086 416.59532102150496 419.39948835343586 416.77647756268044 418.96182281012403 416.85517764091895 418.5241572668122 416.93387771915746 418.08037554517443 416.9055472822141 417.6365938235366 416.87721684527077 417.2124885380855 416.7435024594718 416.78838325263433 416.60978807367286 416.40860342248675 416.37846122540344 416.02882359233917 416.147134377134 415.71544203906717 415.8316397936844 415.40206048579523 415.5161452102348 415.17329095999924 415.13481945161857 414.9445214342032 414.7534936930023 414.81366003147104 414.3284994302267 414.68279862873896 413.9035051674511 414.65745101994605 413.45954308703693 414.6321034111531 413.01558100662277 414.7137428005134 412.57845420554315 414.79538218987364 412.1413274044636 414.97926369224166 411.73644171293563 415.1631451946097 411.33155602140766 415.4385816084282 410.98244341484644 415.71401802224676 410.6333308082852 416.0650009702033 410.36028172778697 416.41598391815984 410.0872326472888 416.4158257448639 410.0873275405109 Z" fill="currentColor"/></svg>