<svg xmlns="http://www.w3.org/2000/svg" version="1.1" xmlns:xlink="http://www.w3.org/1999/xlink" style="overflow: hidden; display: block;" viewBox="170.67 161.2 415.67 204.18"><defs/><g id="two-0" transform="matrix(1 0 0 1 0 0)" opacity="1"/><path d="M 372.3987452872292 164.14072907630404 Q 372.3987452872292 164.14072907630404 370.36120780445185 171.01237002229178 368.32367032167446 177.8840109682795 366.2936974001705 183.02032957446767 364.2637244786666 188.15664818065585 362.3028727870686 193.80196044105304 360.3420210954706 199.44727270145023 350.8482868565006 227.13632377292572 341.35455261753054 254.8253748444012 330.51456506167324 275.8859971107341 319.67457750581593 296.94661937706695 306.324988994189 317.28822143920297 292.9754004825621 337.62982350133905 287.7819023164021 344.1285264568127 282.58840415024207 350.6272294122864 278.7751409058843 355.6865569408001 274.9618776615266 360.7458844693138 271.2337452709985 364.0546537733627 267.5056128804704 367.3634230774116 263.97831798188315 362.4398648044057 260.451023083296 357.51630653139983 260.27119131410893 352.43459437466174 260.0913595449219 347.3528822179237 261.3219469489391 341.68627126032777 262.55253435295634 336.01966030273184 264.8299140703848 331.5952193195539 267.1072937878133 327.170778336376 262.3553286552786 325.17415827186244 257.60336352274385 323.17753820734885 251.9913712995305 325.77283728512634 246.37937907631712 328.3681363629039 251.5109857466486 324.986255698402 256.64259241698005 321.60437503390006 262.04786087959394 320.3600509648348 267.4531293422079 319.1157268957695 272.53978748925687 321.80550710236446 277.62644563630585 324.4952873089594 280.5011401251515 332.6024252752979 283.37583461399714 340.7095632416364 286.39550767354217 345.4217067679566 289.41518073308714 350.1338502942769 293.1614096425247 353.5216351356248 296.90763855196224 356.90941997697274 304.9672400680919 352.3370026697021 313.0268415842216 347.76458536243143 315.3858797934408 342.11084462002555 317.74491800266 336.45710387761966 317.6010727260556 330.57023589637544 317.45722744945124 324.6833679151312 315.3930920426993 319.52279706084494 313.32895663594735 314.3622262065587 309.3568523016958 310.80744808973446 305.3847479674443 307.2526699729102 296.74855143386515 301.53972463810715 288.11235490028594 295.826779303304 279.33232210594196 290.69575125906385 270.552289311598 285.56472321482374 249.27409368984559 277.983007356215 227.99589806809323 270.4012914976062 218.50456749546572 268.43616771706695 209.0132369228382 266.4710439365276 200.13226120146197 264.53553408898165 191.25128548008578 262.6000242414356 184.29126700704813 261.30868615624445 177.33124853401046 260.0173480710533 174.72376223266127 260.184423640639 172.1162759313121 260.3514992102247 171.91119012845627 260.28782811692474 171.70610432560048 260.22415702362474 171.52221628652777 260.11325443690555 171.33832824745505 260.0023518501863 171.18632555363627 259.8506634335987 171.03432285981748 259.6989750170111 170.9230399149592 259.5153169084542 170.8117569701009 259.33165879989735 170.74766154418688 259.12670521726966 170.68356611827286 258.92175163464196 170.67038344046875 258.7074144897955 170.65720076266464 258.4930773449491 170.69569701082378 258.2818139228129 170.73419325898294 258.0705505006767 170.8221310293536 257.8746394412715 170.91006879972426 257.67872838186634 171.04233714496075 257.50955604516963 171.17460549019725 257.3403837084729 171.34351696785984 257.20778239864205 171.5124284455224 257.0751810888112 171.70816591259305 256.98685760020373 171.9039033796637 256.8985341115963 172.11509056535957 256.85962180952 172.32627775105544 256.82070950744367 172.54064044622135 256.8334699767235 172.75500314138722 256.84623044600335 179.6343930711774 257.45549572991473 186.5137830009676 258.0647610138261 197.15677367289703 258.7650629718397 207.79976434482643 259.46536492985337 217.99281438011815 260.78382151302037 228.18586441540984 262.1022780961873 257.1480423625045 264.66001742726223 286.11022030959913 267.2177567583371 305.77473470916055 267.2623074228669 325.439249108722 267.30685808739673 347.6013189243808 267.3255156468979 369.7633887400396 267.34417320639903 386.9445096393515 267.98630916173147 404.1256305386634 268.62844511706385 425.65264326681427 269.90087348080795 447.17965599496506 271.173301844552 463.0869106310071 272.4487277757913 478.99416526704914 273.72415370703067 496.71955258002936 274.99631936595813 514.4449398930095 276.26848502488554 527.8078599000632 277.54097350454145 541.170779907117 278.8134619841974 550.1124199379581 280.08727975332204 559.0540599687992 281.36109752244676 559.2569288278864 281.4246980737564 559.4597976869737 281.488298625066 559.6317379576662 281.6133480050262 559.8036782283589 281.7383973849864 559.9266877189274 281.91180289050556 560.0496972094959 282.08520839602465 560.1108967938064 282.28881442490024 560.1720963781171 282.49242045377576 560.1650784435374 282.70490940103775 560.1580605089575 282.9173983482997 560.0835598350905 283.11652256507807 560.0090591612234 283.3156467818565 559.8748759882892 283.48055791009097 559.7406928153549 283.6454690383255 559.5608761569806 283.7589008393576 559.3810594986064 283.87233264038963 559.174436206391 283.9224087747082 558.9678129141754 283.97248490902666 558.7560165013568 283.95396239214966 558.5442200885383 283.93543987527266 558.3494256954476 283.85025801960666 558.154631302357 283.76507616394065 557.9972339533715 283.62215353225963 557.839836604386 283.47923090057867 557.7363158434935 283.2935315301477 557.6327950826008 283.1078321597166 557.5939895607933 282.89879882363954 557.5551840389859 282.68976548756245 557.5851567046404 282.479284031306 557.615129370295 282.26880257504956 557.7107420774055 282.0789104626456 557.8063547845161 281.88901835024154 557.9575968574088 281.7395973359853 558.1088389303017 281.5901763217291 558.2998752840208 281.49687082525656 558.4909116377398 281.403565328784 558.7017407156221 281.3761444602061 558.9125697935044 281.34872359162824 559.1211177354421 281.3900583231235 559.3296656773799 281.43139305461875 559.514097458801 281.5371556288883 559.698529240222 281.6429182031579 559.8395348049263 281.8020352507571 559.9805403696306 281.96115229835635 560.0633563977717 282.15696422239876 560.1461724259128 282.35277614644116 560.1621280574832 282.5647813867902 560.1780836890534 282.77678662713924 560.1255083652156 282.98278817916645 560.0729330413777 283.18878973119365 559.9573314124161 283.3672191780226 559.8417297834544 283.54564862485154 559.6752053704372 283.67782435629846 559.50868095742 283.8100000877454 559.3086689103482 283.8820832698368 559.1086568632765 283.9541664519282 558.8960984962766 283.958609956471 558.6835401292767 283.96305346101377 558.6837352759735 283.96308125000195 558.6839304226704 283.9631090389901 549.8025583324977 282.70164848784043 540.921186242325 281.4401879366908 527.588466380571 280.1773981005215 514.2557465188171 278.9146082643522 496.51871274274856 277.6514961308767 478.7816789666801 276.38838399740126 462.90158458953283 275.1285937153436 447.02149021238563 273.8688034332859 425.5234355714125 272.6168199701525 404.02538093043944 271.36483650701905 386.89433913353673 270.75010513439145 369.763297336634 270.1353737617639 347.59971504707767 270.15366653714324 325.4361327575213 270.1719593125226 305.64489519070924 270.17359419801085 285.85365762389716 270.1752290834991 256.82755276234366 267.68405323321906 227.80144790079018 265.19287738293906 217.70238431094384 263.98683135725673 207.60332072109748 262.78078533157446 196.80446077648594 262.21353972965176 186.00560083187437 261.646294127729 179.0610260149088 260.9989126283939 172.1164511979432 260.35153112905874 171.9113590290035 260.28788054465736 171.7062668600638 260.224229960256 171.52236773165188 260.11334576289516 171.33846860323996 260.00246156553436 171.18645074133957 259.85078834997455 171.03443287943915 259.69911513441474 170.92313156932647 259.5154681550706 170.81183025921376 259.3318211757265 170.74771433826197 259.12687400366616 170.6835984173102 258.92192683160584 170.67039430585754 258.7075910060988 170.6571901944049 258.4932551805918 170.6956653160294 258.2819879098871 170.73414043765388 258.07072063918247 170.82205861647896 257.8748007869798 170.909976795304 257.67888093477717 171.04222822264552 257.50969537209187 171.17447964998703 257.3405098094065 171.3433778666741 257.2078916090909 171.51227608336117 257.0752734087753 171.70800471710427 256.9869303468628 171.90373335084738 256.8985872849502 172.1149166442571 256.85965386435 172.32609993766687 256.82072044374974 172.54046390780786 256.83345947669625 172.75482787794886 256.8461985096428 175.29359854192478 257.0349155912105 177.8323692059007 257.22363267277825 184.8488279264427 258.4783548207658 191.86528664698469 259.7330769687533 200.743789072215 261.60130577872053 209.62229149744536 263.4695345886877 219.34845578351695 265.4039373526691 229.07462006958858 267.3383401166506 250.68069741088613 274.9253139799256 272.28677475218365 282.5122878432005 281.25307698778295 287.53287581847746 290.21937922338225 292.55346379375436 299.2544285292913 298.2172480069138 308.28947783520044 303.88103222007317 313.1581567196997 307.96404753025047 318.026835604199 312.04706284042777 320.99018580760446 318.25214648402823 323.9535360110099 324.45723012762875 323.7879545788321 331.26815068441766 323.6223731466544 338.0790712412066 320.8677267973363 345.10153425104573 318.11308044801814 352.1239972608849 312.44249319361757 358.0459432043431 306.771905939217 363.96788914780126 300.26269312220484 363.52791653046563 293.75348030519274 363.08794391313 288.6157036343307 358.8376264382185 283.4779269634687 354.58730896330695 280.1487224332782 349.1045608197488 276.81951790308773 343.62181267619064 271.4975675926755 335.42615882099506 266.17561728226326 327.2305049657994 261.30469278982906 328.55407890027755 256.43376829739486 329.87765283475574 248.58121988349473 334.16938907101746 240.7286714695946 338.46112530727925 241.91902458021002 330.7760364942119 243.10937769082548 323.0909476811446 252.72701342939047 317.91029879161624 262.3446491679554 312.7296499020879 269.4125139282534 316.0931035615482 276.4803786885514 319.4565572210086 274.6538811457418 324.5374710789398 272.8273836029323 329.61838493687094 270.0295720942728 338.4990325417911 267.23176058561336 347.3796801467113 270.003013558317 353.2396753274784 272.77426653102054 359.09967050824554 276.5895758749201 353.9942888654631 280.40488521881974 348.8889072226806 285.4922369923978 342.47406961837817 290.5795887659759 336.05923201407575 303.8071606308229 315.8245650377595 317.0347324956699 295.5898980614432 327.72196201062013 274.7030793092574 338.40919152557035 253.81626055707164 347.8007757329354 226.10633991001288 357.19235994030043 198.3964192629541 359.0344233937045 192.64347255861662 360.87648684710854 186.89052585427913 362.6491566452854 181.85439857916924 364.4218264434623 176.81827130405938 366.15488164256965 169.8643906207136 367.88793684167706 162.91050993736783 367.9943128661977 162.64956228417748 368.10068889071835 162.38861463098715 368.2664244353945 162.1607083661999 368.4321599800707 161.9328021014127 368.6476224872588 161.7511831478462 368.86308499444687 161.5695641942797 369.1157517731056 161.4447882540485 369.36841855176436 161.3200123138173 369.64360459684667 161.25933137043023 369.9187906419289 161.1986504270432 370.20050212756496 161.205591259781 370.48221361320105 161.21253209251879 370.75407745460956 161.2866912998566 371.02594129601806 161.36085050719444 371.2721567539629 161.49791795251747 371.5183722119077 161.6349853978405 371.72462923240477 161.82699471478645 371.9308862529018 162.01900403173244 372.0851971682288 162.25479562977893 372.23950808355573 162.49058722782542 372.3329043360636 162.75645688821533 372.4263005885715 163.02232654860526 372.45335398367627 163.30282191418493 372.4804073787811 163.5833172797646 372.4395455718882 163.8621359467075 372.3986837649953 164.1409546136504 372.39871452611226 164.14084184497722 Z" fill="currentColor"/><path d="M 358.87486446384867 336.7715552900946 Q 358.87486446384867 336.7715552900946 360.27516052132717 337.35812612654706 361.6754565788057 337.9446969629995 366.0160641112489 335.2212658102416 370.3566716436921 332.49783465748374 376.0432810813679 328.8788277677256 381.72989051904375 325.2598208779675 386.46183110968724 321.9643736936648 391.19377170033073 318.66892650936217 391.81228016499404 317.9318075820403 392.4307886296574 317.19468865471845 392.87906284349367 317.0321612287071 393.32733705733 316.8696338026957 393.801480984783 316.8191118168294 394.27562491223597 316.768589830963 394.74808128596453 316.83300962543393 395.22053765969315 316.8974294199049 395.6638472930579 317.0730469132318 396.1071569264227 317.2486644065587 396.4955546427037 317.525272701778 396.8839523589847 317.80188099699734 397.1948644646629 318.1634036069945 397.5057765703411 318.52492621699173 397.7211328392263 318.9503514306877 397.9364891081115 319.3757766443837 398.0437730237377 319.8403787283699 398.15105693936385 320.3049808123561 398.1440331555141 320.78175707168214 398.1370093716643 321.2585333310081 398.01608611098595 321.7197735070805 397.89516285030754 322.18101368315297 397.66736817839273 322.5999104752673 397.4395735064779 323.0188072673816 397.1181468603613 323.3710143742983 396.79672021424466 323.72322148121503 396.40034292570067 323.9882686093318 396.0039656371566 324.25331573744853 404.41306936463843 323.8799453553453 412.8221730921202 323.506574973242 418.0621248221491 321.99418654230715 423.302076552178 320.48179811137226 429.5137430200108 320.26673867670195 435.72540948784365 320.0516792420317 438.9368893227655 324.30388846055075 442.1483691576874 328.55609767906975 446.0885471391696 332.0890784055599 450.0287251206518 335.62205913205 456.31968226979336 335.7270703083728 462.61063941893485 335.83208148469555 470.9383200552021 333.98694965605983 479.26600069146934 332.1418178274241 487.59804415713256 328.5625339441731 495.93008762279584 324.983250060922 507.53453502089224 321.34689560973425 519.1389824189887 317.71054115854656 525.7429525820895 317.39314911740587 532.3469227451903 317.0757570762651 539.2477307867698 319.00357182853946 546.1485388283494 320.9313865808138 552.3518768693926 323.318832388506 558.5552149104359 325.7062781961982 566.6861175325446 328.37638767666044 574.8170201546532 331.04649715712264 579.6821705348352 331.8178022747942 584.5473209150172 332.58910739246573 584.8689437206749 332.684396047031 585.1905665263326 332.77968470159624 585.4649255883144 332.9726827894534 585.7392846502962 333.16568087731065 585.9376545023887 333.43618144771455 586.1360243544812 333.70668201811844 586.2376356208057 334.02636358994255 586.3392468871302 334.3460451617667 586.3334608412799 334.6814369900533 586.3276747954296 335.01682881833995 586.2150972379324 335.33281529013266 586.1025196804351 335.6488017619253 585.8949375112784 335.912299010215 585.6873553421217 336.1757962585047 585.4065024692127 336.359216051839 585.1256495963037 336.5426358451732 584.8009313895739 336.6267740827718 584.476213182844 336.7109123203704 584.1416277242554 336.6869597065465 583.8070422656666 336.6630070927225 583.4976207410552 336.53347147246626 583.1881992164438 336.40393585221 582.9363381411158 336.18237963915635 582.684477065788 335.96082342610265 582.5165463608153 335.6704436142435 582.3486156558424 335.3800638023843 582.2821977103649 335.0512632346741 582.2157797648873 334.72246266696385 582.2578285553292 334.38966684963674 582.299877345771 334.05687103230963 582.4459903526731 333.7549237752894 582.5921033595753 333.45297651826917 582.8269825125449 333.2134917790721 583.0618616655146 332.97400703987506 583.3609150552338 332.822058933913 583.659968444953 332.67011082795096 583.9918851025759 332.6216083620285 584.3238017601986 332.57310589610603 584.6538299240543 332.63312729120867 584.98385808791 332.69314868631125 585.277443722124 332.8554096865276 585.5710293563379 333.01767068674394 585.7974339675088 333.26518252251867 586.0238385786798 333.51269435829334 586.1593575442532 333.819542475084 586.2948765098265 334.12639059187467 586.3253209583331 334.4604479108532 586.3557654068397 334.79450522983177 586.2779477964846 335.1207958615187 586.2001301861293 335.4470864932056 586.0221980412582 335.7314477223308 585.8442658963871 336.015808951456 585.5848487595376 336.2284680822661 585.3254316226883 336.44112721307613 585.0116905365682 336.5598187784386 584.697949450448 336.6785103438012 584.3627331895937 336.6908073054912 584.0275169287393 336.70310426718123 584.0278254785071 336.70314325248046 584.0281340282751 336.70318223777974 578.7630376601205 336.19607326019275 573.4979412919661 335.68896428260575 565.1604929388191 333.28848584198397 556.8230445856722 330.88800740136213 550.3499917966489 328.1943071450635 543.8769390076255 325.5006068887648 538.1120335908709 323.65783131447256 532.3471281741163 321.8150557401803 526.2098165688242 321.5302632584293 520.0725049635321 321.2454707766783 508.90263853125 325.2149515324053 497.7327720989678 329.1844322881322 489.58538542936503 333.21082810799624 481.4379987597622 337.2372239278602 472.0296913367061 340.4302315427062 462.62138391365 343.62323915755223 455.0006056464913 343.7170167010952 447.37982737933265 343.81079424463815 441.1900341319579 339.7273480117718 435.00024088458304 335.64390177890556 432.19226197717484 331.46348240754867 429.38428306976664 327.2830630361917 422.694666988222 328.9825838144804 416.00505090667747 330.68210459276906 408.86476876128984 333.8968183674854 401.72448661590226 337.1115321422018 395.40004214244743 337.62633425633237 389.07559766899266 338.141136370463 387.0999185676326 332.9536526740756 385.12423946627246 327.7661689776882 388.77733759122157 322.4805181632747 392.4304357161706 317.19486734886124 392.878693675023 317.03229509624117 393.3269516338753 316.8697228436211 393.801090506759 316.8191534436147 394.2752293796427 316.76858404360826 394.74769219298844 316.83295659211984 395.22015500633415 316.8973291406314 395.6634821992317 317.072902302117 396.10680939212926 317.2484754636025 396.49523476729775 317.52504491766723 396.8836601424662 317.80161437173194 397.1946083988508 318.163105888711 397.50555665523535 318.5245974056901 397.7209554655651 318.9500010816321 397.9363542758948 319.3754047575741 398.0436846511929 319.83999611084573 398.151015026491 320.30458746411745 398.14403892030214 320.78136442343794 398.13706281411334 321.25814138275837 398.0161856780571 321.71939364885066 397.89530854200086 322.18064591494294 397.6675557609042 322.59956548442995 397.4398029798075 323.01848505391695 397.1184115560086 323.37072430173714 396.79702013220975 323.7229635495574 396.40066935036043 323.98805031407767 396.00431856851105 324.253137078598 394.27811656667996 325.14800583852366 392.55191456484886 326.0428745984493 386.75713507924877 330.7621005325084 380.9623555936486 335.4813264665675 375.7711431927173 338.7641471985835 370.579930791786 342.0469679305995 365.6897792512655 344.30330000406366 360.799627710745 346.5596320775278 358.42933108633883 345.88933868668533 356.0590344619326 345.2190452958429 355.5740715397592 344.98920091677985 355.0891086175858 344.7593565377168 354.6732458062381 344.4201285957547 354.2573829948905 344.0809006537925 353.93479026050335 343.6520050928567 353.6121975261162 343.2231095319209 353.40162397356903 342.7294737821645 353.19105042102194 342.2358380324082 353.1047345950827 341.70615222680055 353.0184187691434 341.17646642119286 353.0613773496711 340.64151592364294 353.1043359301988 340.1065654260931 353.2740721624747 339.5974415846531 353.44380839475065 339.0883177432131 353.73045720098 338.63461085946864 354.01710600720935 338.18090397572416 354.4040073453059 337.80898351507574 354.79090868340245 337.4370630544273 355.2555758294175 337.1685450515224 355.7202429754326 336.9000270486175 356.2356694530075 336.7505177824013 356.7510959305825 336.60100851618506 357.2873251286234 336.57919747223457 357.82355432666435 336.55738642828413 358.3494205789865 336.66454126549866 358.8752868313087 336.77169610271324 358.8750756475787 336.77162569640393 Z" fill="currentColor"/></svg>