<svg xmlns="http://www.w3.org/2000/svg" version="1.1" xmlns:xlink="http://www.w3.org/1999/xlink" style="overflow: hidden; display: block;" viewBox="470.7 273.8 355.66 160.62"><defs/><g id="two-0" transform="matrix(1 0 0 1 0 0)" opacity="1"/><path d="M 641.575033492361 288.6153975454075 Q 641.575033492361 288.6153975454075 639.3603910484355 291.46229749587326 637.1457486045102 294.30919744633894 634.4393855510887 298.67476307307743 631.7330224976671 303.040328699816 627.6323229389375 308.93656838570917 623.5316233802079 314.8328080716023 618.9363010245938 322.3190742835536 614.3409786689798 329.8053404955049 606.2265300525504 342.3980020233752 598.112081436121 354.9906635512456 592.5142110290016 364.2762418610759 586.9163406218821 373.56182017090623 582.3536575712519 380.77859767793245 577.7909745206217 387.9953751849586 574.0513797896571 393.9379240220301 570.3117850586924 399.88047285910153 567.6422308366853 404.20272915833544 564.9726766146781 408.52498545756936 562.7333236722297 411.8373311076593 560.4939707297813 415.1496767577492 559.2943201146306 417.28609233206714 558.09466949948 419.42250790638514 556.4664707520446 422.4222168687856 554.8382720046092 425.42192583118606 553.8709975537502 427.4801302843429 552.9037231028913 429.5383347374998 552.4561655371076 431.2058360791395 552.008607971324 432.8733374207792 551.8770660281559 433.1303066233666 551.7455240849879 433.387275825954 551.5563060791144 433.6052964675091 551.3670880732409 433.82331710906425 551.1311913640538 433.9897178196563 550.8952946548667 434.1561185302483 550.6264295701874 434.26122809275927 550.3575644855082 434.36633765527023 550.0713574766909 434.4040470969885 549.7851504678736 434.4417565387068 549.4982358997181 434.40987418510787 549.2113213315627 434.37799183150895 548.9403746922509 434.27837068648205 548.6694280529391 434.17874954145515 548.4301967738782 434.0171795906299 548.1909654948171 433.85560963980464 547.9973537091862 433.6414813363143 547.8037419235552 433.42735303282404 547.667002357432 433.17311152372827 547.5302627913089 432.91887001463255 547.4583427547013 432.63929182838547 547.3864227180936 432.35971364213844 547.3835022069082 432.0710478760607 547.3805816957229 431.7823821099829 547.4468304502071 431.5014060319618 547.5130792046914 431.2204299539407 549.2815694926574 430.7592016294211 551.0500597806232 430.29797330490146 552.295884013319 428.75679800978025 553.5417082460148 427.2156227146591 556.5507854836858 423.20515633538395 559.5598627213569 419.1946899561088 560.6812798992248 417.31560825400356 561.8026970770927 415.4365265518983 563.0058719303657 413.6118926650777 564.2090467836388 411.787258778257 564.4418819914627 411.40797857281495 564.6747171992864 411.0286983673729 564.9166790839297 410.77274437464496 565.1586409685731 410.51679038191696 565.4548271466242 410.3261814945455 565.7510133246755 410.13557260717397 566.0842094415498 410.0213870226487 566.4174055584242 409.9072014381235 566.768246240154 409.8760756279821 567.1190869218836 409.8449498178407 567.4671812915624 409.89869281563097 567.8152756612412 409.95243581342123 568.1403924577481 410.0879240735865 568.465509254255 410.2234123337518 568.7487526741015 410.4327712722454 569.0319960939481 410.642130210739 569.2569040162647 410.913191876219 569.4818119385812 411.18425354169904 569.6353127043556 411.5012638174319 569.7888134701299 411.8182740931648 569.8619856076429 412.16280832703035 569.9351577451558 412.50734256089595 569.9237484863373 412.859376407034 569.9123392275188 413.21141025317206 569.8170116790275 413.55048348790484 569.721684130536 413.8895567226376 569.5479787339689 414.1959623936312 569.3742733374017 414.50236806462476 571.0370761988439 413.7881732590944 572.6998790602861 413.07397845356394 571.4884259909795 411.48466824843604 570.2769729216731 409.8953580433082 568.9254419636582 407.2883944560343 567.5739110056434 404.6814308687604 566.1698036699788 403.49482498475106 564.7656963343142 402.3082191007418 562.8909696483947 401.1070013247302 561.0162429624753 399.90578354871866 556.2723697574238 398.6119493226982 551.5284965523723 397.31811509667773 545.1414202237772 396.29328993401316 538.7543438951822 395.26846477134853 531.503315392468 395.5075015497006 524.2522868897538 395.7465383280526 516.5009104953282 396.8812972810339 508.7495341009025 398.0160562340151 503.6770928900773 399.1852853235603 498.6046516792521 400.35451441310556 494.96886019083115 401.20179484945845 491.3330687024102 402.0490752858114 488.45802231350183 403.1273139884391 485.5829759245935 404.20555269106677 483.3656770296081 405.40596916837353 481.1483781346227 406.60638564568035 479.02721018119723 407.575577725986 476.9060422277718 408.5447698062917 475.6897544223176 409.6192295235947 474.4734666168634 410.6936892408977 474.1948754665208 410.81431368867936 473.91628431617823 410.9349381364611 473.61692081044214 410.98538392801265 473.3175573047061 411.0358297195642 473.0148204645955 411.01316494311055 472.71208362448493 410.9905001666569 472.42356852937104 410.8960421000703 472.13505343425714 410.8015840334838 471.8775285950238 410.64082258403243 471.6200037557905 410.4800611345811 471.4084365281937 410.26233976526044 471.1968693005969 410.04461839593984 471.04355598184503 409.78259108296436 470.89024266309315 409.52056376998894 470.8040938304755 409.2294595531001 470.7179449978578 408.9383553362113 470.7039676255737 408.6350932061722 470.6899902532896 408.331831076133 470.74899670687296 408.03403664219013 470.80800316045634 407.7362422082473 470.93656398205246 407.4612232968932 471.06512480364864 407.18620438553916 471.255768032266 406.94994510882356 471.44641126088345 406.71368583210796 471.68805670311747 406.5299175902941 471.92970214535154 406.34614934848025 473.7134925266389 405.92198566420825 475.4972829079263 405.4978219799362 477.96937555967713 404.44087494413725 480.44146821142795 403.3839279083383 485.6007098998148 401.18480975845057 490.75995158820155 398.9856916085628 501.54781756097736 393.0683859333243 512.3356835337532 387.15108025808587 521.2885302550055 382.1178974341132 530.2413769762578 377.08471461014057 537.6557421990801 372.7994684918683 545.0701074219023 368.5142223735961 551.4213189575462 364.2119521761867 557.7725304931902 359.90968197877726 563.3384044930533 355.5835787545524 568.9042784929164 351.25747553032744 573.4121956093395 347.2842915989529 577.9201127257625 343.31110766757837 580.8050091346703 339.2373193050521 583.6899055435781 335.1635309425258 585.2417340479892 331.3794929597189 586.7935625524003 327.595454976912 587.4470871963324 324.2728260720291 588.1006118402644 320.9501971671462 588.3529031729645 318.22905203892253 588.6051945056646 315.5079069106988 587.0552438305131 313.34352591855236 585.5052931553616 311.17914492640597 583.2832513731564 310.007909852646 581.0612095909512 308.83667477888605 577.4874982096537 308.27874885508675 573.9137868283561 307.72082293128744 569.0094724768132 309.2003317712156 564.1051581252705 310.6798406111438 558.4280413290271 313.76043930604226 552.7509245327839 316.8410380009408 546.7888923848524 321.6905225928268 540.8268602369209 326.5400071847128 536.1702584691473 331.78404357131654 531.5136567013737 337.0280799579203 527.7525185974497 342.4549581379589 523.9913804935256 347.88183631799757 521.0125420823883 355.4596656073844 518.033703671251 363.03749489677125 516.7613818338455 367.99420751353864 515.48905999644 372.95092013030603 516.2692688563841 377.12101404491636 517.049477716328 381.29110795952664 523.6523225588758 385.41316553974474 530.2551674014236 389.53522311996284 530.4647722449153 389.72828411276816 530.6743770884069 389.92134510557344 530.8113625276311 390.171228531992 530.9483479668553 390.42111195841056 530.9983715901647 390.7016549577336 531.048395213474 390.98219795705654 531.006219534303 391.26402760319866 530.9640438551321 391.54585724934077 530.8340846782232 391.79946590395514 530.7041255013145 392.05307455856956 530.4999895867961 392.2519093285719 530.2958536722779 392.45074409857426 530.0389141042866 392.573986931058 529.7819745362954 392.6972297635418 529.4991329554255 392.731977101413 529.2162913745556 392.76672443928425 528.937161368987 392.7093382270954 528.6580313634183 392.65195201490644 528.4118379184172 392.50844060422213 528.165644473416 392.3649291935378 527.9781641076628 392.1503182669401 527.7906837419096 391.9357073403423 527.6815456991885 391.6724667184976 527.5724076564675 391.40922609665296 527.5530387186612 391.12491714215736 527.533669780855 390.84060818766176 527.6060978808648 390.56499812310113 527.6785259808745 390.2893880585405 527.8351678775101 390.0513333304284 527.9918097741457 389.81327860231625 528.2162650194799 389.6377036035263 528.4407202648141 389.46212860473634 528.70948833541 389.36741608398916 528.9782564060059 389.272703563242 529.2631972139243 389.2687699464615 529.5481380218425 389.264836329681 529.8194181892773 389.35209346758245 530.0906983567119 389.4393506054839 530.3199147785215 389.60866265269544 530.549131200331 389.777974699907 530.7122848566447 390.0116146403915 530.8754385129585 390.24525458087595 530.9554471728919 390.51876025118975 531.0354558328254 390.7922659215035 531.0239425685634 391.0770012057662 531.0124293043012 391.3617364900289 530.9105995576512 391.62788952881544 530.8087698110011 391.89404256760196 530.6272851833176 392.11374706749376 530.445800555634 392.33345156738557 530.2036625353429 392.48370440924765 529.9615245150518 392.63395725110973 529.6840850167957 392.69902692273627 529.4066455185398 392.76409659436274 529.1229525310232 392.73717028395765 528.8392595435066 392.7102439735525 528.5790157974101 392.59414087292305 528.3187720513135 392.4780377722936 528.3189927624142 392.4781830019459 528.3192134735147 392.47832823159825 521.1823500889986 387.56250197771607 514.0454867044825 382.6466757238339 513.0485522119143 377.432335938723 512.0516177193462 372.21799615361215 513.3870133555793 366.97482233365054 514.7224089918122 361.7316485136889 517.8793764010009 353.7963047103356 521.0363438101895 345.8609609069823 524.9231646274825 340.24589314959917 528.8099854447755 334.6308253922161 533.6620627276138 329.1696034581171 538.5141400104523 323.7083815240181 544.7415821796776 318.6448139521872 550.969024348903 313.5812463803562 556.9999041939018 310.310094565383 563.0307840389007 307.03894275040983 568.7016602563651 305.45433159468394 574.3725364738297 303.8697204389581 578.7085070322462 304.58866010730105 583.0444775906626 305.307599775644 585.8549896486852 307.140754330454 588.6655017067078 308.97390888526394 590.4703357739581 312.18135150503304 592.2751698412086 315.3887941248022 591.9344713444499 318.51800272153605 591.5937728476912 321.64721131826985 590.8520273046613 325.300889345502 590.1102817616313 328.9545673727342 588.3791215908377 333.09880953063464 586.6479614200441 337.2430516885351 583.5054657599961 341.64019326128994 580.3629700999481 346.03733483404477 575.7807323080285 350.1145754286993 571.1984945161088 354.19181602335385 565.5596568865072 358.6240412881083 559.9208192569057 363.05626655286267 553.4864659176144 367.4806527725369 547.0521125783232 371.9050389922112 539.6585453978053 376.27192676891525 532.2649782172874 380.63881454561925 523.3487504474544 385.7797469610898 514.4325226776215 390.9206793765604 503.5432012276691 397.0612930606736 492.65387977771667 403.2019067447869 487.5434446316052 405.6120542031854 482.4330094854937 408.0222016615838 478.453346733316 409.3578818462604 474.47368398113827 410.69356203093696 474.1951048946334 410.8142143372305 473.91652580812854 410.93486664352406 473.61716734846846 410.98534237117394 473.3178088888084 411.0358180988238 473.0150697837338 411.01318359616744 472.7123306786592 410.990549093511 472.42380613918124 410.89611987890623 472.1352815997033 410.8016906643014 471.8777406856127 410.64095496813775 471.6201997715221 410.48021927197414 471.40861077284626 410.2625190604648 471.19702177417037 410.0448188489555 471.0436822534538 409.78280686862206 470.8903427327373 409.5207948882886 470.80416479012865 409.2296992877385 470.7179868475201 408.9386036871885 470.7039791490929 408.6353429564029 470.6899714506658 408.3320822256173 470.7489481245108 408.03428189251804 470.80792479835577 407.7364815594188 470.93645811741806 407.4614497933577 471.0649914364803 407.1864180272966 471.25561103821684 406.95013968743945 471.4462306399534 406.71386134758234 471.6878577041551 406.53006894214315 471.92948476835676 406.34627653670395 473.5405463153101 405.34414039402736 475.15160786226346 404.3420042513508 477.1927133584162 403.5796771337473 479.2338188545689 402.8173500161438 481.71816046939045 401.64089084166073 484.202502084212 400.4644316671776 487.29823645884306 399.3446373994862 490.3939708334741 398.2248431317948 494.0178027265199 397.29489690717173 497.64163461956576 396.3649506825486 502.8614289444069 395.04979843687005 508.081223269248 393.7346461911915 516.0603532535501 392.4184176245973 524.0394832378522 391.10218905800315 531.7363887323054 390.6660991674784 539.4332942267587 390.2300092769537 546.1527638267007 391.0113076863713 552.8722334266428 391.792606095789 558.5995980853828 393.051145937007 564.3269627441229 394.309685778225 566.7227490637699 395.7194384206468 569.118535383417 397.12919106306856 570.9734626989473 398.69142936501 572.8283900144777 400.25366766695134 574.450976018526 402.40297232093315 576.0735620225743 404.55227697491495 576.6459272588169 406.7058298109288 577.2182924950595 408.85938264694255 577.538323764715 411.2958110201674 577.8583550343704 413.7322393933922 577.2643039528066 415.7936206437327 576.6702528712426 417.8550018940732 574.5814441215873 418.87360895282745 572.492635371932 419.89221601158175 570.6833949244005 419.63356740907903 568.8741544768692 419.3749188065763 566.7900616053618 417.56653697317137 564.7059687338543 415.7581551397664 564.6902561365772 413.39354425115675 564.6745435393001 411.02893336254715 564.9164798273343 410.7729551749105 565.1584161153687 410.51697698727395 565.4545832310503 410.32633848223776 565.7507503467317 410.13569997720157 566.0839350433816 410.02148107363564 566.4171197400317 409.90726217006966 566.7679573074262 409.8761012760158 567.1187948748207 409.84494038196186 567.4668946170588 409.8986485700465 567.8149943592969 409.95235675813115 568.1401247030042 410.0878125059394 568.4652550467115 410.2232682537477 568.7485194010357 410.4325988668526 569.0317837553598 410.6419294799574 569.2567187827183 410.9129686532899 569.4816538100769 411.1840078266224 569.6351862761112 411.5010027506937 569.7887187421455 411.81799767476497 569.861925332716 412.16252458969416 569.9351319232865 412.5070515046233 569.9237578679096 412.85908648992705 569.9123838125327 413.2111214752308 569.8170901718413 413.55020424102304 569.7217965311498 413.8892870068153 569.5481217760183 414.1957100468165 569.3744470208868 414.50213308681765 569.080197964887 414.8360240889194 568.7859489088871 415.1699150910211 567.517455305756 416.68957147937226 566.2489617026249 418.20922786772337 564.9865623185648 420.1549069247785 563.7241629345046 422.1005859818336 561.8178676887776 425.0529481776613 559.9115724430505 428.00531037348895 558.500499712062 429.6512715861339 557.0894269810736 431.2972327987788 554.5490587876465 432.085172717428 552.0086905942193 432.8731126360773 551.8771743486292 433.13009499157414 551.7456581030391 433.387077347071 551.5564619001758 433.6051169093366 551.3672656973125 433.82315647160215 551.1313856293759 433.98958077103305 550.8955055614393 434.1560050704639 550.6266509890606 434.26114151895774 550.3577964166819 434.3662779674516 550.0715931802399 434.4040160296821 549.7853899437978 434.4417540919127 549.4984721888416 434.40990042992996 549.2115544338853 434.3780467679473 548.9405978338137 434.27845271808235 548.6696412337421 434.17885866821746 548.4303937988823 434.0173126413279 548.1911463640224 433.8557666144384 547.9975131665292 433.64165767319724 547.8038799690361 433.4275487319561 547.6671149794457 433.17332089808815 547.5303499898554 432.9190930642202 547.4584019957888 432.6395220713747 547.3864540017221 432.35995107852915 547.3835046239748 432.07128560594583 547.3805552462275 431.78262013336257 547.4467759027727 431.5016374318709 547.512996559318 431.22065473037924 548.3443237095265 429.40934628157913 549.175650859735 427.598037832779 550.3200539585021 425.60936468009965 551.464457057269 423.62069152742026 553.1076242009569 420.4929511570397 554.750791344645 417.3652107866592 556.1565281605845 415.2679866740109 557.5622649765239 413.17076256136255 559.7559482345264 409.9162186877772 561.9496314925287 406.6616748141918 564.6188066059115 402.32165759609234 567.2879817192942 397.98164037799285 571.0181589941643 392.0289288738432 574.7483362690344 386.07621736969355 579.2750689387046 378.882609503534 583.8018016083748 371.68900163737453 589.4069035647381 362.3435817776457 595.0120055211013 352.99816191791683 603.073686299677 340.42358725983 611.1353670782527 327.8490126017432 615.7472309312444 320.24829686994406 620.3590947842362 312.647581138145 624.3439002866561 306.8073491348139 628.328705789076 300.96711713148284 631.0685980380837 296.38786182011097 633.8084902870913 291.80860650873916 635.9219652137715 288.8846599015877 638.0354401404516 285.96071329443623 638.2199871450009 285.76822294842316 638.4045341495502 285.57573260241014 638.6297856065041 285.43300239770053 638.8550370634582 285.2902721929909 639.1079013475554 285.20559761578863 639.3607656316526 285.1209230385864 639.6265462588204 285.09922537929685 639.8923268859883 285.07752772000737 640.1555766736881 285.120068047608 640.4188264613878 285.1626083752086 640.6642453195898 285.2669142438604 640.9096641777917 285.3712201125122 641.1229883509261 285.53122926022843 641.3363125240605 285.69123840794464 641.5051436011619 285.89765109554196 641.6739746782632 286.1040637831393 641.788500189198 286.3448832955163 641.9030257001326 286.58570280789337 641.956589416824 286.84693270367586 642.0101531335155 287.1081625994584 641.999641930233 287.3746201848297 641.9891307269505 287.64107777020104 641.9151555153227 287.8972765177799 641.8411803036948 288.15347526535874 641.7080405264973 288.3845248918984 641.5749007492997 288.6155745184381 641.5749671208303 288.61548603192284 Z" fill="currentColor"/><path d="M 597.151123046875 422.84550549141784 Q 597.151123046875 422.84550549141784 598.2331611633301 422.82542999348914 599.3151992797851 422.80535449556044 599.819551600966 421.05547380805535 600.3239039221468 419.3055931205503 600.502536072891 417.084080909368 600.6811682236352 414.86256869818567 603.2427834822045 414.1553065736391 605.8043987407736 413.4480444490925 604.9598962052784 415.83350342942737 604.1153936697831 418.21896240976224 603.5244865791334 420.322011487292 602.9335794884837 422.4250605648217 602.7043674408176 424.656902589997 602.4751553931516 426.88874461517224 603.7275755117284 425.1612466420679 604.9799956303052 423.4337486689635 607.040073192202 421.88708011966185 609.1001507540989 420.34041157036023 610.752934363418 418.8990352801406 612.4057179727372 417.45765898992096 614.00368672445 415.10602298198216 615.6016554761627 412.7543869740434 616.960235752889 411.5023937199675 618.3188160296155 410.2504004658915 618.4924309224168 410.09704155917717 618.6660458152181 409.9436826524628 619.0409051016222 409.7170921273563 619.4157643880264 409.4905016022497 619.8339586091524 409.3602083020062 620.2521528302783 409.2299150017626 620.6893765183454 409.20349157911403 621.1266002064126 409.17706815646545 621.5574419001275 409.2560503419777 621.9882835938425 409.3350325274899 622.3877027537237 409.51482987283 622.7871219136048 409.69462721817007 623.1319042793132 409.96478989317916 623.4766866450216 410.2349525681882 623.7467934492627 410.57977870550116 624.0169002535036 410.9246048428141 624.196632876124 411.3240531311287 624.3763654987443 411.7235014194434 624.4552778712726 412.15435590547486 624.5341902438009 412.58521039150634 624.5076959754381 413.0224297922829 624.4812017070753 413.4596491930595 624.3508406459434 413.8778222964653 624.2204795848115 414.2959953998712 623.9938283219086 414.67081796548854 623.7671770590057 415.0456405311059 623.4574085763808 415.3553278538102 623.1476400937559 415.6650151765145 623.3630107781987 417.5213342145146 623.5783814626415 419.3776532525146 626.0138839941063 418.4872222108057 628.4493865255712 417.59679116909683 630.9218207809944 415.9869443042063 633.3942550364176 414.37709743931583 635.8810665325459 412.5789382094608 638.3678780286743 410.7807789796057 639.9664988671497 409.2906253970414 641.565119705625 407.80047181447713 641.4039652161432 407.597569497629 641.2428107266613 407.39466718078086 641.5229652519571 407.0179942741168 641.8031197772528 406.64132136745275 642.165279545625 406.342642043041 642.5274393139972 406.0439627186293 642.950555582692 405.84063623283816 643.3736718513869 405.63730974704697 643.8331530829878 405.54115344478384 644.2926343145888 405.44499714252066 644.7617754383265 405.4615996325909 645.2309165620642 405.4782021226611 645.6824510737846 405.6065984675618 646.133985585505 405.7349948124625 646.5416702781715 405.9677226105954 646.9493549708382 406.2004504087282 647.2894951909582 406.52398350953104 647.6296354110783 406.8475166103339 647.8824621930771 407.24305125478696 648.1352889750758 407.63858589924 648.2861080145044 408.08313359522356 648.4369270539329 408.5276812912071 648.4769727411335 408.9954049057436 648.5170184283343 409.46312852028007 648.4439633060854 409.9268439349167 648.3709081838365 410.3905593495533 648.1889982192756 410.82331540260384 648.0070882547147 411.2560714556544 645.4151971138219 412.0442896670897 642.8233059729291 412.83250787852495 642.2813485163763 415.379494135917 641.7393910598236 417.9264803933091 643.7778070527711 418.37466997979914 645.8162230457186 418.82285956628914 649.4462315185807 418.1311018224458 653.0762399914428 417.4393440786025 653.5797271741924 417.4023445855271 654.083214356942 417.3653450924516 654.5721582766909 417.49105169140955 655.0611021964397 417.61675829036756 655.4843102957216 417.89200946726476 655.9075183950033 418.1672606441619 656.2206806741071 418.5632375281179 656.5338429532109 418.9592144120739 656.7041712388477 419.43445811881077 656.8744995244846 419.90970182554764 656.8841604001859 420.41445421351784 656.8938212758873 420.9192066014881 656.741803245417 421.4006199624296 656.5897852149468 421.882033323371 656.292004606224 422.2897035513123 655.9942239975014 422.69737377925355 655.5818585188658 422.98861769371473 655.1694930402303 423.2798616081759 654.6857174661491 423.42418589443196 654.2019418920678 423.56851018068807 653.6974076528514 423.5508040478701 653.1928734136351 423.53309791505217 652.7204053773137 423.3552151999402 652.2479373409924 423.1773324848282 651.8570030356883 422.8578975546509 651.4660687303842 422.53846262447354 651.1975990810594 422.1109204007431 650.9291294317345 421.6833781770127 650.8112332815424 421.19249244341387 650.6933371313502 420.70160670981505 650.7383582383372 420.1987733322369 650.7833793453244 419.6959399546588 650.9866039877049 419.2338057204689 651.1898286300855 418.771671486279 651.5299791341561 418.3986219717886 651.8701296382267 418.0255724572982 652.31159215642 417.7806660451499 652.7530546746134 417.5357596330017 653.24960796474 417.4446380891966 653.7461612548666 417.3535165453914 654.2458160563729 417.4257203196195 654.745470857879 417.4979240938476 655.195913181151 417.7258934318873 655.646355504423 417.953862769927 656.0004239193091 418.31372922190747 656.3544923341952 418.673595673888 656.5751157841919 419.1276811272914 656.7957392341884 419.5817665806948 656.8598183858419 420.08252816868287 656.9238975374953 420.583289756671 656.8247232867124 421.07829760879315 656.7255490359294 421.5733054609153 656.4735049529463 422.010732124385 656.2214608699634 422.4481587878547 655.8429360368018 422.7822055755372 655.4644112036402 423.11625236321976 654.999037270253 423.31194448826494 654.5336633368659 423.5076366133101 654.5341184588094 423.50752730655836 654.5345735807529 423.50741799980665 649.9489809291996 424.7901067165186 645.3633882776463 426.07279543323057 641.6323291272812 425.76740324630623 637.9012699769161 425.4620110593819 636.3588542157373 423.9984040276076 634.8164384545586 422.5347969958333 634.3011498500798 420.1504222637369 633.7858612456012 417.7660475316406 634.9226710604408 414.7205185511434 636.0594808752805 411.67498957064623 637.440615131354 409.8157446717029 638.8217493874273 407.95649977275957 642.0169536705557 406.68741383110046 645.212157953684 405.4183278894414 643.2273878219769 406.40666665170215 641.2426176902698 407.39500541396285 641.5227345468741 407.0183044937297 641.8028514034785 406.6416035734965 642.1649813021074 406.3428880346014 642.5271112007365 406.04417249570633 642.9502071346672 405.840803699305 643.3733030685979 405.6374349029037 643.8327746822713 405.54123265299825 644.2922462959446 405.44503040309274 644.7613890775856 405.46158597896766 645.2305318592266 405.4781415548426 645.6820792083238 405.6064927456502 646.133626557421 405.7348439364578 646.541334520829 405.96753096495786 646.9490424842369 406.20021799345784 647.2892150559662 406.5237170786211 647.6293876276957 406.8472161637843 647.8822539618947 407.2427255235815 648.1351202960936 407.63823488337874 648.2859837895376 408.08276749523566 648.4368472829816 408.5273001070925 648.4769397423435 408.99501971472165 648.5170322017053 409.4627393223508 648.4440234513631 409.92646204018104 648.3710147010208 410.39018475801134 648.1891480129748 410.8229589998946 648.0072813249286 411.25573324177776 647.8628891528783 411.48492886622427 647.7184969808281 411.71412449067077 646.4040091614042 413.00360090192083 645.0895213419805 414.2930773131709 642.6999183830233 416.3879060634294 640.3103154240661 418.4827348136879 637.6051134099926 420.421612287652 634.8999113959192 422.36048976161607 631.6438989942692 424.1741787207076 628.3878865926192 425.987867679799 626.1503731939918 426.7794902639056 623.9128597953643 427.57111284801215 620.999542389903 426.5346594499763 618.0862249844417 425.4982060519404 616.9926914462956 422.99246336143176 615.8991579081493 420.4867206709232 616.0795641438722 418.11013949051585 616.2599703795952 415.73355831010844 617.4628650752982 412.83873253544544 618.665759771001 409.94390676078245 619.0405963964785 409.71727875088027 619.4154330219559 409.4906507409781 619.8336142116609 409.360315621964 620.2517954013658 409.22998050294984 620.6890164449046 409.20351335806464 621.1262374884433 409.17704621317944 621.5570870782226 409.25598531412743 621.9879366680019 409.3349244150755 622.3873738056204 409.51468181760066 622.7868109432391 409.69443922012584 623.131620323491 409.96456741554755 623.4764297037428 410.2346956109693 623.746570989247 410.5794947358778 624.0167122747512 410.92429386078624 624.1964848413016 411.3237241738414 624.3762574078521 411.7231544868966 624.4552128654343 412.15400107953656 624.5341683230166 412.5848476721765 624.5077177767263 413.0220697201938 624.481267230436 413.4592917682111 624.3509479872662 413.87747790563213 624.2206287440964 414.2956640430532 623.9940149645832 414.6705092719227 623.7674011850701 415.04535450079226 623.4576636727262 415.3550727987963 623.1479261603823 415.6647910968004 622.6448550614225 416.0167585135323 622.1417839624626 416.36872593026425 620.8908750171355 417.8924307666131 619.6399660718084 419.41613560296196 618.3733168792577 420.9952146847379 617.1066676867069 422.5742937665139 615.4211501428559 424.1858095035103 613.7356325990049 425.7973252405067 611.3354582517882 428.03931642723273 608.9352839045714 430.2813076139588 604.7525912337512 431.60717863037127 600.569898562931 432.93304964678373 598.2462721911525 431.67201335162383 595.9226458193738 430.41097705646393 595.2987710187923 427.0501644751622 594.6748962182108 423.68935189386053 595.3213172199069 420.7122248927326 595.9677382216028 417.7350978916046 596.4044524065251 416.03439190472875 596.8411665914475 414.33368591785285 598.4470397937965 411.9608711257489 600.0529129961456 409.58805633364494 602.8583825651947 408.87708219381597 605.6638521342439 408.166108053987 607.1065162134722 411.7414766793255 608.5491802927005 415.31684530466396 608.3410044280554 417.19488374582426 608.1328285634103 419.07292218698456 607.2440138097195 421.8856646358061 606.3551990560287 424.69840708462766 604.572003024497 427.13742350194065 602.7888069929653 429.57643991925363 601.0520031363752 429.92674144231535 599.3151992797851 430.27704296537706 598.2331611633301 430.25696746744836 597.151123046875 430.23689196951966 596.708890604469 430.18319350334593 596.2666581620631 430.12949503717215 595.8501282899879 429.97152059602786 595.4335984179128 429.8135461548836 595.0669798519041 429.5604772207106 594.7003612858953 429.30740828653757 594.404961914235 428.97395323768023 594.1095625425745 428.64049818882296 593.9025509906227 428.2460374483883 593.6955394386708 427.85157670795365 593.5889472275534 427.4190363527093 593.4823550164359 426.98649599746506 593.482377290471 426.54101529318075 593.4823995645063 426.0955345888965 593.5890350291263 425.663004895036 593.6956704937463 425.23047520117547 593.9027214907371 424.8360351638683 594.1097724877278 424.44159512656114 594.405205203416 424.1081696193082 594.7006379191042 423.7747441120553 595.0672817901732 423.52171184100416 595.4339256612423 423.268679569953 595.8504713286789 423.11074678258575 596.2670169961154 422.9528139952185 596.7092548061569 422.8991597525574 597.1514926161983 422.8455055098963 597.1513078315367 422.84550550065705 Z" fill="currentColor"/><path d="M 809.4769504468517 277.5615451734142 Q 809.4769504468517 277.5615451734142 805.464954521086 281.48361055025373 801.4529585953204 285.4056759270933 796.9186439056556 290.94907259703666 792.3843292159908 296.4924692669801 787.1976471977702 303.5262682796163 782.0109651795495 310.56006729225254 776.9145091401272 317.8683928561606 771.8180531007047 325.17671842006865 766.7601248161161 332.60718950563273 761.7021965315274 340.0376605911968 755.9595999517644 349.2959621844409 750.2170033720015 358.55426377768504 745.9706032427805 365.73074183698714 741.7242031135594 372.90721989628923 738.1038532878606 378.8576429012045 734.4835034621618 384.8080659061197 731.5089148699474 389.84650687909357 728.5343262777328 394.88494785206746 726.2123897225285 399.50299032134876 723.8904531673244 404.12103279063 721.7747632377409 407.6091932737641 719.6590733081574 411.0973537568982 717.7126988705373 414.680765543286 715.7663244329173 418.26417732967377 714.6600340844185 420.8593453971435 713.5537437359197 423.4545134646132 712.7892105367832 425.63954676861283 712.0246773376468 427.8245800726124 711.7347051204813 428.7892675415478 711.4447329033159 429.75395501048325 711.315132362428 429.9925059607446 711.1855318215402 430.23105691100596 711.0026067146033 430.43165915755657 710.8196816076664 430.63226140410717 710.5940635504904 430.78325593495225 710.3684454933144 430.93425046579733 710.1132474179828 431.0268614717097 709.8580493426514 431.1194724776221 709.588103373293 431.1483174025868 709.3181574039347 431.17716232755157 709.0491528129721 431.1405647031745 708.7801482220095 431.1039670787974 708.5277195689084 431.00405396072676 708.2752909158074 430.90414084265615 708.0541093657464 430.74671918600865 707.8329278156855 430.58929752936115 707.6558484507464 430.3835166882176 707.4787690858071 430.17773584707396 707.3560837670001 429.93555581359016 707.233398448193 429.69337578010635 707.1722376520115 429.42887206920716 707.11107685583 429.1643683583079 707.1149952506216 428.89291393809845 707.1189136454134 428.6214595178889 707.1876834938889 428.35883133202594 707.2564533423645 428.096203146163 710.4504673877373 424.02099175326174 713.6444814331102 419.94578036036046 715.7385783466996 416.8641912845018 717.832675260289 413.7826022086432 719.8384445277028 410.9860435199829 721.8442137951166 408.18948483132266 723.3362568130954 405.61594097813327 724.8282998310741 403.0423971249439 725.7563930081485 401.184231203026 726.6844861852228 399.3260652811081 727.6743409297965 397.13566326874786 728.6641956743701 394.9452612563876 728.8314658384684 394.5387772751389 728.9987360025666 394.1322932938902 729.1776311979748 393.8750778668385 729.3565263933831 393.61786243978685 729.5917804920844 393.41093545774305 729.8270345907857 393.20400847569925 730.1049746135102 393.0593965445821 730.3829146362348 392.914784613465 730.6873866958028 392.8408925855056 730.9918587553708 392.7670005575463 731.3051669213746 392.7681230408815 731.6184750873784 392.7692455242167 731.9224098744892 392.84531728006226 732.2263446616 392.92138903590785 732.5032413657107 393.0679887702399 732.7801380698212 393.2145885045719 733.0139034414788 393.42319583394305 733.2476688131363 393.63180316331415 733.4247163979567 393.89029381993987 733.6017639827769 394.14878447656565 733.7118037668117 394.44213497133785 733.8218435508464 394.7354854661101 733.8584800166775 395.0466462544896 733.8951164825085 395.35780704286907 733.8562203170202 395.66869344521535 733.8173241515318 395.9795798475617 733.7051560016899 396.27212313156355 733.5929878518481 396.5646664155654 731.8414914204791 397.19399968343697 730.0899949891101 397.82333295130854 728.7936741225626 399.3505040922592 727.4973532560152 400.87767523320986 725.5255136451867 402.9022498898504 723.5536740343583 404.926824546491 722.4367135588532 406.4612441713957 721.3197530833479 407.9956637963005 723.0012483901955 408.48105933256096 724.6827436970432 408.9664548688214 726.620052308283 408.9364208959712 728.5573609195229 408.90638692312103 730.5204111600806 409.32715363281795 732.4834614006382 409.74792034251493 734.9674727496408 409.89681311834556 737.4514840986433 410.04570589417614 738.0673506663038 408.3365012903676 738.6832172339642 406.6272966865591 737.8730714029056 405.03736486289523 737.0629255718469 403.4474330392314 735.820312906513 401.81869227011384 734.5777002411792 400.18995150099624 732.7753919098841 398.42772546581193 730.9730835785891 396.6654994306276 728.79478897633 394.7470059169526 726.616494374071 392.8285124032776 724.0208996407181 390.89584815299565 721.4253049073652 388.96318390271375 718.6318124891861 387.42527427149076 715.838320071007 385.8873646402678 713.1560315836632 384.4904980259721 710.4737430963193 383.09363141167637 706.3858135338699 382.1577967947094 702.2978839714204 381.2219621777424 697.7669066197813 381.136121440347 693.2359292681421 381.0502807029516 689.8909877414153 381.3383560019265 686.5460462146884 381.62643130090146 684.6442369081609 382.5049321807959 682.7424276016334 383.38343306069027 681.1656214022744 384.177163827028 679.5888152029154 384.9708945933657 678.2927270045061 385.9526443066974 676.9966388060969 386.93439402002906 676.7114061526205 387.06931043256725 676.426173499144 387.2042268451054 676.1169410947281 387.2669598112436 675.8077086903121 387.3296927773818 675.4924491368305 387.3165962541807 675.1771895833489 387.3034997309795 674.8742257808624 387.2153348889828 674.5712619783759 387.12717004698607 674.2982021973197 386.969061030953 674.0251424162635 386.81095201491996 673.7978569039424 386.59208812829115 673.5705713916211 386.3732242416623 673.40226999269 386.1063258638119 673.2339685937588 385.83942748596144 673.1344329934312 385.5400067631502 673.0348973931036 385.24058604033894 673.0099126051473 384.92604531904493 672.9849278171909 384.6115045977509 673.0359459586556 384.3001249994744 673.0869641001203 383.98874540119783 673.2110199942272 383.6986243228207 673.3350758883341 383.4085032444435 673.524959400689 383.15650253667235 673.7148429130439 382.9045018289012 673.9595180049869 382.70526778471185 674.2041930969299 382.50603374052247 676.2500207211352 382.8947446389644 678.2958483453406 383.2834555374064 683.06926072019 382.4174035506398 687.8426730950395 381.5513515638732 693.5677159983093 379.51809903644767 699.2927589015792 377.4848465090221 705.750992818665 374.83629729711595 712.2092267357509 372.18774808520976 718.1306115198317 368.9558421837418 724.0519963039127 365.7239362822739 729.0206008692272 361.8982182429619 733.9892054345418 358.07250020364995 738.246702567198 353.96282995515037 742.5041996998542 349.8531597066508 745.7292525958401 345.9901706828912 748.9543054918258 342.12718165913157 751.0253763445526 339.08731317857576 753.0964471972792 336.04744469802 754.2301734976596 333.4422962859445 755.36389979804 330.83714787386896 755.1151744003118 327.93252043966834 754.8664490025836 325.0278930054678 753.7643652022352 323.327633349645 752.6622814018867 321.6273736938223 750.6600141820463 320.35982834113383 748.657746962206 319.09228298844533 745.5516697944798 318.50725401975234 742.4455926267536 317.92222505105934 737.9279144582019 317.9650804875396 733.4102362896502 318.00793592401976 728.3875091190646 319.41488168477815 723.3647819484789 320.82182744553654 718.3363636513318 322.83568464489787 713.3079453541845 324.8495418442592 709.3846680191623 326.7681461060171 705.4613906841399 328.68675036777506 702.3945283303273 330.5522448124217 699.3276659765146 332.4177392570684 695.5467005312121 335.3337575467482 691.7657350859095 338.249775836428 689.0783829525731 340.562261686649 686.3910308192368 342.8747475368699 686.1452395338839 343.0252288943467 685.899448248531 343.17571025182343 685.6184737664958 343.23982994730375 685.3374992844605 343.30394964278406 685.050759708182 343.2749943272252 684.7640201319035 343.24603901166637 684.5015371707101 343.12704031425085 684.2390542095167 343.0080416168353 684.028309898734 342.8114587325951 683.8175655879513 342.61487584835487 683.6806249125494 342.36129105716276 683.5436842371475 342.10770626597065 683.49488492199 341.8236699624043 683.4460856068323 341.53963365883806 683.4905369530976 341.2548845188592 683.5349882993629 340.9701353788804 683.6680362393631 340.71448671261135 683.8010841793634 340.4588380463423 684.0087985586595 340.25905633662603 684.2165129379555 340.0592746269098 684.4771460062036 339.93627707149096 684.7377790744519 339.8132795160721 685.0240424806061 339.7799439914711 685.3103058867604 339.74660846687016 685.5922277766302 339.80642521131256 685.8741496665001 339.86624195575496 686.1222127437959 340.0129481403075 686.3702758210918 340.15965432486007 686.5585078161386 340.3778897732734 686.7467398111853 340.5961252216868 686.8554327844131 340.8630406249036 686.9641257576409 341.1299560281204 686.9818995260607 341.4176052729649 686.9996732944804 341.7052545178094 686.9246669398467 341.9835206524144 686.8496605852131 342.2617867870195 686.6897272926559 342.5015352736368 686.5297940000987 342.74128376025413 686.301678827567 342.9174128690474 686.0735636550353 343.09354197784063 685.8011503213097 343.1876109446256 685.5287369875841 343.2816799114106 685.2405472406159 343.2838396905331 684.9523574936477 343.2859994696557 684.6785648760191 343.1960239316715 684.4047722583905 343.10604839368733 684.1740429294414 342.9333580011746 683.9433136004924 342.76066760866195 683.7798049818705 342.52334309130265 683.6162963632486 342.28601857394335 683.5371278504856 342.00890787135256 683.4579593377226 341.7317971687617 683.4714198950035 341.4439138446508 683.4848804522842 341.1560305205399 683.5895607557081 340.88751603493705 683.694241059132 340.6190015493342 683.8791810532975 340.3979694397631 684.0641210474632 340.1769373301919 684.0639187116963 340.1771118484261 684.0637163759292 340.17728636666027 686.818623719286 337.79430181522525 689.5735310626428 335.4113172637902 693.5059379556533 332.3711139799503 697.4383448486636 329.3309106961104 700.6394185574256 327.3656130106234 703.8404922661877 325.4003153251364 707.8760685400266 323.397235122839 711.9116448138657 321.3941549205416 717.1234224794346 319.2724220522498 722.3352001450033 317.150689183958 727.8285892217091 315.61610731827614 733.3219782984148 314.0815254525943 738.2722708323593 313.9923706593529 743.2225633663037 313.90321586611157 747.1183146667671 314.7048617590112 751.0140659672305 315.5065076519108 753.6055139390862 317.50172667944025 756.196961910942 319.49694570696977 757.4171013270384 322.0791630883557 758.6372407431348 324.6613804697416 758.7606258948999 328.4385539715511 758.884011046665 332.21572747336063 757.4986346705317 335.14861675021984 756.1132582943984 338.0815060270791 753.9543984755944 341.2830832174084 751.7955386567905 344.4846604077376 748.4623878357559 348.518194659452 745.1292370147213 352.5517289111664 740.7448978221731 356.8382252736167 736.360558629625 361.12472163606697 731.179318819918 365.17355570696327 725.998079010211 369.22238977785963 719.9186523512267 372.637666461073 713.8392256922423 376.0529431442864 707.3360058692114 378.8609766770119 700.8327860461804 381.6690102097374 694.7306973033576 383.98821620541116 688.6286085605346 386.3074222010849 682.8127343853412 386.62083828834363 676.9968602101478 386.9342543756024 676.7116410497388 387.0691993107313 676.4264218893296 387.2041442458601 676.1171957597564 387.2669081349251 675.8079696301833 387.32967202399004 675.4927087686256 387.31660702680966 675.177447907068 387.3035420296293 674.8744752896121 387.2154074844536 674.5715026721563 387.1272729392779 674.2984270815639 386.9691912300134 674.0253514909714 386.81110952074897 673.798044093398 386.5922683637657 673.5707366958246 386.37342720678237 673.4024086078972 386.10654566040625 673.2340805199698 385.8396641140302 673.1345149780676 385.5402533462761 673.0349494361654 385.24084257852195 673.009933194262 384.92630435727943 672.9849169523584 384.6117661360369 673.0359039556083 384.3003814375031 673.0868909588581 383.9889967389693 673.210917840237 383.69886325645336 673.3349447216158 383.40872977393747 673.5248030329506 383.1567100790751 673.7146613442852 382.9046903842127 673.9593165116005 382.7054318735104 674.2039716789158 382.50617336280806 675.9386764207914 381.5765468217014 677.6733811626668 380.64692028059477 679.4036930642438 379.98194027922557 681.1340049658208 379.31696027785637 683.6189931038211 378.460487694672 686.1039812418214 377.60401511148757 689.6863417215204 377.2044155312284 693.2687022012195 376.80481595096927 698.2480277380914 376.79824512950756 703.2273532749633 376.7916743080458 707.9381444910879 377.73964430715426 712.6489357072124 378.68761430626273 715.3936874077356 380.0259419747365 718.1384391082586 381.3642696432102 721.3252217702169 382.86749564343467 724.5120044321752 384.3707216436591 727.5011267704233 386.199055021714 730.4902491086714 388.02738839976894 732.965864275069 389.8663569929802 735.4414794414664 391.7053255861914 737.8003157921667 393.69228407238006 740.159152142867 395.6792425585687 741.9182368967959 397.78016835054007 743.6773216507248 399.8810941425115 744.8381317762954 401.9749042675036 745.998941901866 404.0687143924957 746.7450025534908 406.67127383404613 747.4910632051157 409.27383327559664 745.9897698352754 412.8390703421312 744.4884764654353 416.40430740866583 741.7004929631962 417.16326997012334 738.9125094609573 417.92223253158085 736.9132987025627 417.8467832294084 734.914087944168 417.771333927236 732.8299141032347 417.47340977143466 730.7457402623014 417.1754856156333 728.5449071559666 416.85784218452625 726.3440740496318 416.5401987534192 724.3016938519963 416.4894369109422 722.259313654361 416.43867506846516 720.2970323010967 416.3060493859627 718.3347509478324 416.17342370346023 715.8939370445246 414.50984963172425 713.4531231412167 412.8462755599882 713.5025541028206 410.403881748764 713.5519850644245 407.9614879375397 714.6959871788824 406.185854212271 715.8399892933403 404.41022048700233 717.5328937717072 402.4428358383475 719.2257982500743 400.4754511896927 721.4284137678014 398.48843751963454 723.6310292855287 396.5014238495763 726.3148218462055 395.31697343410997 728.9986144068823 394.13252301864355 729.1774838798534 393.8752897033585 729.3563533528245 393.61805638807334 729.5915867576514 393.41110588165435 729.8268201624783 393.20415537523536 730.10474572262 393.0595156508391 730.3826712827617 392.9148759264428 730.6871359516047 392.840953451647 730.9916006204475 392.7670309768512 731.3049088971331 392.7681221293642 731.6182171738187 392.7692132818772 731.9221595665854 392.8452546438638 732.2261019593521 392.9212960058504 732.5030133220516 393.06786804977907 732.7799246847511 393.2144400937077 733.0137109159728 393.42302404549866 733.2474971471944 393.6316079972896 733.424570580195 393.8900809478645 733.6016440131957 394.14855389843933 733.7117131317298 394.4418933877664 733.8217822502637 394.7352328770935 733.8584498319904 395.0463900002706 733.8951174137169 395.3575471234477 733.8562523370633 395.66843741385617 733.8173872604096 395.97932770426456 733.705248365457 396.27188220361865 733.5931094705043 396.5644367029727 733.3509906386041 396.9312977203193 733.108871806704 397.2981587376659 731.8322130786223 399.3892515272174 730.5555543505407 401.4803443167689 729.4384975878834 403.29711043325847 728.321440825226 405.1138765497481 726.6987360817496 407.792615988331 725.0760313382733 410.47135542691393 723.1475566770797 413.24387912169766 721.2190820158861 416.01640281648145 719.1480784690112 419.24926446304175 717.0770749221364 422.48212610960206 714.2609453460518 426.1179358489097 711.4448157699674 429.7537455882173 711.3152390848225 429.99230949734 711.1856623996777 430.23087340646265 711.00275735388 430.4314939445209 710.8198523080824 430.6321144825792 710.5942493514875 430.78313157447496 710.3686463948926 430.93414866637073 710.1134575819376 431.02678519162754 709.8582687689827 431.11942171688435 709.5883256854667 431.1482936363018 709.3183826019506 431.1771655557192 709.0493743525706 431.1405948319841 708.7803661031905 431.10402410824906 708.5279274600398 431.00413623354325 708.2754888168892 430.9042483588375 708.0542915257683 430.74684882113206 707.8330942346477 430.58944928342663 707.6559942925098 430.3836861512484 707.478894350372 430.17792301907025 707.3561848141751 429.9357552553292 707.2334752779782 429.6935874915881 707.1722880317313 429.42908989809104 707.1111007854846 429.16459230459395 707.1149920348148 428.89313749390226 707.1188832841449 428.6216826832105 707.187626869458 428.35904762167587 707.2563704547712 428.09641256014123 707.705085516146 427.1945474964292 708.153800577521 426.2926824327172 709.1273550925973 424.0858274246052 710.1009096076738 421.8789724164932 711.3869502434441 419.23222970937127 712.6729908792144 416.58548700224935 714.6582607784314 412.92689387266324 716.6435306776485 409.26830074307713 718.6869070989871 405.9002965255972 720.7302835203258 402.53229230811723 723.1024413604439 397.80741378491496 725.4745992005619 393.08253526171274 728.4529945199051 388.01880804465196 731.4313898392485 382.9550808275912 735.0288297376655 377.01687164823363 738.6262696360826 371.078662468876 742.8763857407646 363.86035081840015 747.1265018454467 356.6420391679243 752.8891071809337 347.3060382702157 758.6517125164206 337.9700373725071 763.6918107396812 330.5034619116888 768.7319089629416 323.03688645087055 773.8169702294417 315.6610728092513 778.9020314959417 308.2852591676321 784.0933982972631 301.1358361353236 789.2847650985844 293.9864131030151 793.8936391525109 288.222544796457 798.5025132064374 282.45867648989895 802.4254400711991 278.44581907621114 806.3483669359608 274.4329616625233 806.5582817155114 274.268505238135 806.7681964950619 274.10404881374666 807.0113693729245 273.99460895963296 807.2545422507869 273.8851691055192 807.5168400078745 273.83710647114316 807.7791377649621 273.7890438367671 808.0453156433089 273.80515182469696 808.3114935216557 273.8212598126268 808.5660812504659 273.90060222584725 808.8206689792761 273.97994463906764 809.0488699077894 274.1179100927943 809.2770708363028 274.255875546521 809.4656219158321 274.44444548210106 809.6541729953614 274.6330154176812 809.7921156283054 274.86123014159887 809.9300582612494 275.0894448655165 810.0093752153002 275.3440405272951 810.0886921693511 275.5986361890736 810.1047735394127 275.86481567688827 810.1208549094741 276.130995164703 810.0727660455627 276.3932881142157 810.0246771816514 276.6555810637284 809.9152130107972 276.8987429963896 809.8057488399429 277.14190492905084 809.641271424899 277.3518032619094 809.476794009855 277.561701594768 809.4768722283534 277.5616233840911 Z" fill="currentColor"/><path d="M 755.1070597704908 427.91088176388917 Q 755.1070597704908 427.91088176388917 754.7318099087383 427.56477545136164 754.3565600469858 427.2186691388341 754.0776100053761 426.8626039757829 753.7986599637663 426.5065388127317 753.6130308473153 426.0940617137573 753.4274017308642 425.6815846147829 753.3458823125416 425.2366687682578 753.264362894219 424.7917529217328 753.291691086448 424.34025685756137 753.319019278677 423.88876079339 753.4536067656413 423.4569254840354 753.5881942526055 423.0250901746808 753.8222188032391 422.6380139086124 754.0562433538727 422.2509376425439 754.3761034502971 421.93111731053216 754.6959635467216 421.6112969785204 755.0830689051043 421.37732055328865 755.4701742634868 421.14334412805687 755.9020263022103 421.0088103304329 756.3338783409337 420.8742765328089 756.7853777992169 420.84700447343164 757.2368772575002 420.81973241405433 757.6817829656143 420.9013071462962 758.1266886737283 420.98288187853797 758.5391426910137 421.16856227512824 758.951596708299 421.35424267171845 759.307627187892 421.6332369792832 759.663657667485 421.9122312868479 757.3898879808542 421.63192357889125 755.1161182942233 421.35161587093467 757.2831513718604 419.5153233240749 759.4501844494976 417.6790307772152 760.6873288668509 415.99626987508304 761.9244732842042 414.31350897295084 761.6164661526332 413.78807983344893 761.3084590210622 413.26265069394697 761.4801930038718 412.81073943913674 761.6519269866815 412.3588281843265 761.9268231932841 411.96114939601705 762.2017193998868 411.5634706077076 762.5638008498388 411.2431373957603 762.9258822997908 410.922804183813 763.3541048022087 410.6984343295571 763.7823273046265 410.47406447530113 764.2518025475497 410.3586983652079 764.7212777904729 410.24333225511464 765.2047198507245 410.24367497292315 765.6881619109761 410.2440176907316 766.1574731132998 410.36004931766666 766.6267843156237 410.47608094460173 767.0546882708901 410.70105771705425 767.4825922261565 410.9260344895068 767.8442191363806 411.2468807468913 768.2058460466046 411.5677270042758 768.480178138773 411.96579514703825 768.7545102309414 412.3638632898007 768.925603310968 412.8160175787805 769.0966963909945 413.2681718677603 769.1546065210291 413.74813307443765 769.2125166510639 414.22809428111503 769.1538780916283 414.707967037607 769.0952395321927 415.18783979409886 766.4287103378606 416.61591340773214 763.7621811435284 418.0439870213654 762.1805277204335 419.90682825880657 760.5988742973385 421.76966949624773 760.0123296458086 423.6402937751239 759.4257849942786 425.51091805400006 759.4100088896109 425.63857355076516 759.3942327849431 425.7662290475303 759.2542219635928 426.25214071444793 759.1142111422425 426.7380523813655 758.8619791361309 427.1763356153989 758.6097471300194 427.61461884943225 758.2599536751927 427.9798006084267 757.9101602203662 428.34498236742115 757.4831353288541 428.615838270386 757.056110437342 428.8866941733508 756.5766728159027 429.0474820624795 756.0972351944635 429.20826995160826 755.5932497801814 429.2496448272302 755.0892643658992 429.2910197028521 754.590022814732 429.21057685525204 754.0907812635648 429.13013400765203 753.6252995179232 428.9325487789122 753.1598177722815 428.73496355017227 752.7551496530925 428.4317196030704 752.3504815339037 428.1284756559685 752.0301463712681 427.73719754295803 751.7098112086325 427.34591942994757 751.4924268972534 426.8893482533408 751.2750425858743 426.4327770767341 751.1732435121428 425.9374487747674 751.0714444384114 425.4421204728007 751.0911471692759 424.9368235496572 751.1108499001404 424.4315266265137 754.0527978816726 422.7225782394938 756.9947458632048 421.0136298524739 759.5904532056757 420.5413879609488 762.1861605481464 420.0691460694237 763.9027216450781 419.23286075811154 765.6192827420098 418.3965754467993 767.1890029173934 417.61446498369673 768.758723092777 416.83235452059415 771.2998741911863 415.0771268976049 773.8410252895956 413.32189927461565 774.2826715465812 412.5106217421825 774.7243178035668 411.69934420974937 775.0525329627974 411.3729151762388 775.3807481220281 411.0464861427282 775.7775473600436 410.80809262482614 776.1743465980591 410.569699106924 776.6166679245025 410.43319654709177 777.058989250946 410.2966939872595 777.521124929542 410.2700159206881 777.983260608138 410.24333785411665 778.4383512915333 410.3280348112886 778.8934419749287 410.4127317684606 779.315037771222 410.6038811582457 779.7366335675154 410.7950305480308 780.1002313092175 411.0815227589136 780.4638290509197 411.3680149697964 780.7482964201995 411.73319906101955 781.0327637894792 412.0983831522427 781.2215675294683 412.5210346072663 781.4103712694573 412.94368606228994 781.4925380979166 413.3992403586898 781.5747049263761 413.8547946550896 781.5454593033751 414.3167749557548 781.5162136803741 414.77875525642 781.3772553628957 415.22031124456987 781.2382970454172 415.6618672327197 780.9977022974022 416.0573356535765 780.757107549387 416.45280407443335 779.0451892175728 417.0938806128674 777.3332708857586 417.73495715130144 775.4331031587697 416.83847129749313 773.5329354317806 415.94198544368476 776.0907715746871 416.036456987529 778.6486077175934 416.13092853137323 781.073934393911 415.2001401628754 783.4992610702287 414.26935179437766 786.3233745817402 412.8931471248673 789.1474880932516 411.51694245535697 791.8093794334296 410.37840910440525 794.4712707736077 409.2398757534536 794.9311581864977 409.0811006152211 795.3910455993877 408.92232547698853 795.867578072575 408.8401344506192 796.3441105457624 408.75794342424985 796.8264651880245 408.79218611552744 797.3088198302866 408.82642880680504 797.7689621671518 408.97511502890364 798.229104504017 409.12380125100225 798.6402910412469 409.3782893537075 799.0514775784769 409.6327774564127 799.3898101352083 409.9782765792383 799.7281426919399 410.32377570206387 799.9739573640791 410.74020541975796 800.2197720362184 411.15663513745204 800.3587820634712 411.6197925352564 800.4977920907238 412.0829499330608 800.5219182037747 412.56591628125364 800.5460443168256 413.04888262944655 800.4538843048506 413.52358790117887 800.3617242928757 413.99829317291125 800.158634500101 414.43714747548603 799.9555447073262 414.8760017780608 799.6533287220499 415.2534988787929 799.3511127367735 415.6309959795251 798.9673353662595 415.9251957291834 798.5835579957453 416.21939547884165 798.1405243987995 416.41319897415303 797.6974908018536 416.6070024694644 799.1549304391126 414.9133807893849 800.6123700763715 413.2197591093054 802.3785965247666 413.3705359399653 804.1448229731619 413.52131277062523 805.9346056571783 413.6465087683927 807.7243883411946 413.7717047661602 808.7938604850658 413.4969772504052 809.863332628937 413.22224973465023 810.484963843644 413.1936910334423 811.1065950583511 413.1651323322344 811.7048029138846 413.33656257487246 812.3030107694179 413.50799281751046 812.815162745392 413.861463212337 813.3273147213658 414.2149336071636 813.6997883707008 414.7134357105332 814.0722620200359 415.21193781390286 814.266059253323 415.803278324001 814.4598564866101 416.3946188340991 814.4546866823667 417.01688424341967 814.4495168781234 417.6391496527403 814.2459213162185 418.2271886086654 814.0423257543137 418.81522756459054 813.6616209438228 419.3074722332076 813.2809161333317 419.79971690182464 812.7629619684094 420.1446291363894 812.2450078034872 420.4895413709542 811.6440342219275 420.65100876945985 811.0430606403678 420.81247616796554 810.4219897348016 420.7735930511652 809.8009188292355 420.7347099343649 809.2247768874224 420.4995473748518 808.6486349456094 420.2643848153386 808.177744180944 419.8575643951706 807.7068534162786 419.4507439750025 807.3905162161244 418.9148598995613 807.0741790159702 418.3789758241201 806.9455159686884 417.77013529756414 806.8168529214064 417.16129477100816 806.8893350820108 416.5432435571861 806.9618172426153 415.92519234336396 807.2278557097575 415.3626405675126 807.4938941768996 414.80008879166127 807.9256346528424 414.35193577321155 808.3573751287852 413.90378275476183 808.9096142717289 413.6169502330464 809.4618534146725 413.3301177113309 810.076771640574 413.2346371270897 810.6916898664755 413.13915654284847 811.3049050747602 413.245024738456 811.9181202830449 413.3508929340635 812.4654286795324 413.6470254814932 813.0127370760198 413.9431580289229 813.4368353271224 414.3985497722874 813.860933578225 414.85394151565197 814.1174184851011 415.4209128192094 814.3739033919774 415.9878841227668 814.4359209171718 416.60707294136864 814.4979384423661 417.22626175997055 814.35899533462 417.8328388608594 814.2200522268737 418.4394159617482 813.8946958662452 418.96987256234 813.5693395056168 419.5003291629319 813.0916347889497 419.89912631711786 812.6139300722825 420.2979234713039 812.0338928095136 420.5233070117685 811.4538555467446 420.74869055223314 811.4544200298102 420.74857126301345 811.4549845128757 420.7484519737937 809.4510781906386 421.12368687868644 807.4471718684014 421.4989217835792 805.4000501422731 421.45611266873937 803.3529284161449 421.41330355389954 800.8794299765779 421.1623384365868 798.4059315370108 420.9113733192741 796.7315668785471 420.2349022006928 795.0572022200835 419.5584310821115 793.8113968508558 416.641924742042 792.5655914816282 413.72541840197255 793.97812642935 411.323929619822 795.3906613770719 408.92244083767156 795.867185628774 408.8402021584659 796.343709880476 408.7579634792603 796.8260679445955 408.79215793490255 797.3084260087148 408.82635239054474 797.7685832119015 408.9749925976663 798.2287404150882 409.12363280478786 798.6399523990724 409.378079787567 799.0511643830567 409.6325267703462 799.3895314880087 409.97799205818865 799.7278985929609 410.32345734603115 799.9737549068427 410.73986248017593 800.2196112207246 411.15626761432065 800.358667563022 411.6194111088065 800.4977239053194 412.0825546032924 800.5218983148844 412.56551853645914 800.5460727244495 413.04848246962587 800.4539601834624 413.5231969549859 800.3618476424753 413.9979114403459 800.1588017361462 414.4367860497057 799.955755829817 414.87566065906543 799.6535775957618 415.25318797950854 799.3513993617065 415.6307152999517 798.9676514130863 415.92495342587597 798.583903464466 416.21919155180024 798.1408892500847 416.41303934950224 797.6978750357035 416.6068871472042 797.012520978067 416.699820736839 796.3271669204303 416.7927543264738 794.4611238433035 417.6261431309841 792.5950807661767 418.45953193549434 789.8001957210806 419.8876601143699 787.0053106759846 421.3157882932455 784.8341083728086 422.3973123378322 782.6629060696326 423.478836382419 779.3839700804829 423.893433360289 776.1050340913332 424.3080303381591 774.124548146415 424.0672890308489 772.1440622014969 423.82654772353874 770.5165977926449 421.3195856542483 768.889133383793 418.8126235849579 769.931630250453 416.3488427919974 770.9741271171131 413.88506199903696 772.8491036389257 412.7923539360198 774.7240801607385 411.6996458730027 775.0522626754248 411.3731840196084 775.380445190111 411.0467221662141 775.7772205867907 410.80828896958025 776.1739959834705 410.56985577294637 776.6163036574465 410.433308981664 777.0586113314223 410.29676219038174 777.5207443399011 410.2700379103759 777.9828773483797 410.2433136303701 778.4379764991953 410.3279650780503 778.8930756500109 410.4126165257305 779.3146905591352 410.60372375498036 779.7363054682595 410.79483098423015 780.0999318573647 411.08128683390635 780.4635582464699 411.36774268358255 780.7480621327363 411.73289832624295 781.0325660190028 412.09805396890334 781.2214120231934 412.5206865414397 781.4102580273839 412.9433191139761 781.4924704108619 413.3988651914153 781.57468279434 413.85441126885456 781.5454833695153 414.31639449177214 781.5162839446905 414.7783777146898 781.3773697835056 415.2199475964636 781.2384556223207 415.6615174782374 780.9979004223505 416.0570099565916 780.7573452223804 416.4525024349458 780.3561320637966 416.9164980862946 779.9549189052127 417.38049373764335 777.7453901447905 419.2114344426999 775.5358613843681 421.04237514775645 772.3592395536657 423.1048858216607 769.1826177229632 425.1673964955649 767.0084959370547 426.378694685705 764.8343741511463 427.58999287584504 760.5976408975955 428.4951348274842 756.3609076440448 429.40027677912343 757.877603561346 427.5830458254188 759.394299478647 425.76581487171427 759.2543372491634 426.25174053728443 759.1143750196798 426.7376662028546 758.8621868431526 427.1759746578971 758.6099986666255 427.61428311293963 758.2602417317237 427.9794998494536 757.910484796822 428.34471658596755 757.4834869930353 428.61561519006716 757.0564891892485 428.88651379416683 756.5770676489954 429.04734962625366 756.0976461087421 429.20818545834055 755.5936648344675 429.2496107322969 755.0896835601928 429.2910360062533 754.5904339672371 429.2106430832105 754.0911843742814 429.13025016016775 753.6256828724443 428.9327114805902 753.1601813706072 428.73517280101277 752.755482929047 428.43196932223896 752.3507844874867 428.12876584346515 752.0304101986416 427.73751976592735 751.7100359097964 427.3462736883895 751.4926059423866 426.8897242524967 751.2751759749768 426.4331748166039 751.1733273689242 425.9378566970212 751.0714787628717 425.4425385774385 751.0911309639455 424.93723968654837 751.1107831650193 424.43194079565825 751.1931429315246 424.00866535622686 751.27550269803 423.5853899167954 751.9380773457799 421.3580921282112 752.6006519935299 419.1307943396269 753.908734690648 417.2364683205199 755.216817387766 415.34214230141293 757.1334306328565 413.2661730396767 759.050043877947 411.19020377794044 762.1570540490898 410.66638594545225 765.2640642202326 410.1425681129641 763.286213510387 411.70280407778046 761.3083628005414 413.26304004259686 761.480051591367 412.81111161664796 761.6517403821925 412.359183190699 761.926596819542 411.9614769147573 762.2014532568915 411.56377063881564 762.563502671712 411.2434012203251 762.9255520865324 410.92303180183455 763.3537521498238 410.6986191264503 763.781952213115 410.47420645106604 764.2514159170798 410.3587933940254 764.7208796210447 410.2433803369847 765.2043217131509 410.24367471058554 765.687763805257 410.24396908418635 766.1570866083969 410.3599537794211 766.6264094115369 410.4759384746559 767.0543358623411 410.70087245558807 767.4822623131452 410.92580643652025 767.8439213061868 411.2466165296096 768.2055802992282 411.5674266226989 768.4799521968391 411.96546733026184 768.7543240944501 412.3635080378247 768.92546238905 412.8156452152358 769.09660068365 413.2677823926469 769.1545588095157 413.74773780591147 769.2125169353815 414.227693219176 769.1539263635146 414.7075718371245 769.0953357916478 415.18745045507296 768.9472354785739 415.70239872100774 768.7991351654999 416.2173469869426 767.3418368848662 418.888354885981 765.8845386042325 421.5593627850195 764.5538840181484 422.95189537992405 763.2232294320643 424.3444279748286 761.4783063166011 425.75514363510734 759.7333832011379 427.1658592953861 757.0451042982754 427.19239688128397 754.3568253954128 427.21893446718184 754.0778397486815 426.8628972009151 753.7988541019504 426.50685993464833 753.6131837387176 426.09440140064794 753.4275133754848 425.6819428666475 753.3459494659852 425.23703517428885 753.2643855564856 424.7921274819302 753.2916685989717 424.34062868719707 753.3189516414577 423.889129892464 753.4534959442182 423.4572811265199 753.5880402469786 423.02543236057573 753.8220260888155 422.63833269398765 754.0560119306524 422.2512330273995 754.3758400434444 421.9313807109773 754.6956681562365 421.6115283945551 755.0827501150411 421.3775132599574 755.4698320738456 421.14349812535977 755.9016706570301 421.00892114320465 756.3335092402145 420.8743441610495 756.7850059690344 420.84702695186286 757.2365026978542 420.8197097426762 757.6814165612169 420.9012399839394 758.1263304245796 420.9827702252026 758.5388030078423 421.16840937546283 758.9512755911051 421.354048525723 759.3073339683486 421.6330072288448 759.6633923455922 421.9119659319666 760.0094895297382 422.287224212945 760.3555867138842 422.66248249392333 760.6314719740296 423.0146356234595 760.9073572341752 423.3667887529957 761.0909468719008 423.7747340291388 761.2745365096265 424.18267930528185 761.3551602865618 424.62270692941513 761.4357840634971 425.0627345535484 761.4087561219385 425.5092700994826 761.3817281803798 425.95580564541683 761.2486193855605 426.38289644624194 761.1155105907412 426.80998724706706 760.8840572320703 427.1928107653723 760.6526038733994 427.57563428367763 760.3362580309575 427.89194079859226 760.0199121885157 428.2082473135069 759.6370598975291 428.4396530755224 759.2542076065425 428.671058837538 758.8271002601516 428.8041145328936 758.3999929137607 428.9371702282492 757.9534540110052 428.9641426536792 757.5069151082497 428.99111507910914 757.0668975111382 428.9104365959802 756.6268799140269 428.8297581128512 756.2189574659778 428.6461177583935 755.8110350179288 428.46247740393574 755.4589161907888 428.1865483641786 755.106797363649 427.9106193244214 755.1069285670699 427.9107505441553 Z" fill="currentColor"/><path d="M 826.3085800674046 417.972798288036 Q 826.3085800674046 417.972798288036 826.359135671817 418.8089022083715 826.4096912762293 419.645006128707 826.0658874236169 420.40882845468775 825.7220835710044 421.17265078066856 825.0626864968983 421.6891981002805 824.4032894227923 422.2057454198925 823.5793684792463 422.356675580974 822.7554475357002 422.50760574205555 821.9557648631189 422.2583403054001 821.1560821905375 422.00907486874473 820.5638468869579 421.4167211062582 819.9716115833784 420.82436734377166 819.7225060882417 420.02463483409696 819.4734005931051 419.22490232442226 819.6244955353557 418.40101158338666 819.7755904776061 417.57712084235106 820.2922696663011 416.9178270908962 820.808948854996 416.2585333394413 821.5728399264704 415.9148822581691 822.3367309979448 415.57123117689684 823.1728247904374 415.621954001081 824.00891858293 415.67267682526517 824.725664128977 416.10615284185633 825.4424096750239 416.53962885844743 825.8754948712142 417.2562135732417 Z" fill="currentColor"/></svg>