<svg xmlns="http://www.w3.org/2000/svg" version="1.1" xmlns:xlink="http://www.w3.org/1999/xlink" style="overflow: hidden; display: block;" viewBox="470.7 285.09 211.72 149.33"><defs/><g id="two-0" transform="matrix(1 0 0 1 0 0)" opacity="1"/><path d="M 641.575033492361 288.6153975454075 Q 641.575033492361 288.6153975454075 639.3603910484355 291.46229749587326 637.1457486045102 294.30919744633894 634.4393855510887 298.67476307307743 631.7330224976671 303.040328699816 627.6323229389375 308.93656838570917 623.5316233802079 314.8328080716023 618.9363010245938 322.3190742835536 614.3409786689798 329.8053404955049 606.2265300525504 342.3980020233752 598.112081436121 354.9906635512456 592.5142110290016 364.2762418610759 586.9163406218821 373.56182017090623 582.3536575712519 380.77859767793245 577.7909745206217 387.9953751849586 574.0513797896571 393.9379240220301 570.3117850586924 399.88047285910153 567.6422308366853 404.20272915833544 564.9726766146781 408.52498545756936 562.7333236722297 411.8373311076593 560.4939707297813 415.1496767577492 559.2943201146306 417.28609233206714 558.09466949948 419.42250790638514 556.4664707520446 422.4222168687856 554.8382720046092 425.42192583118606 553.8709975537502 427.4801302843429 552.9037231028913 429.5383347374998 552.4561655371076 431.2058360791395 552.008607971324 432.8733374207792 551.8770660281559 433.1303066233666 551.7455240849879 433.387275825954 551.5563060791144 433.6052964675091 551.3670880732409 433.82331710906425 551.1311913640538 433.9897178196563 550.8952946548667 434.1561185302483 550.6264295701874 434.26122809275927 550.3575644855082 434.36633765527023 550.0713574766909 434.4040470969885 549.7851504678736 434.4417565387068 549.4982358997181 434.40987418510787 549.2113213315627 434.37799183150895 548.9403746922509 434.27837068648205 548.6694280529391 434.17874954145515 548.4301967738782 434.0171795906299 548.1909654948171 433.85560963980464 547.9973537091862 433.6414813363143 547.8037419235552 433.42735303282404 547.667002357432 433.17311152372827 547.5302627913089 432.91887001463255 547.4583427547013 432.63929182838547 547.3864227180936 432.35971364213844 547.3835022069082 432.0710478760607 547.3805816957229 431.7823821099829 547.4468304502071 431.5014060319618 547.5130792046914 431.2204299539407 549.2815694926574 430.7592016294211 551.0500597806232 430.29797330490146 552.295884013319 428.75679800978025 553.5417082460148 427.2156227146591 556.5507854836858 423.20515633538395 559.5598627213569 419.1946899561088 560.6812798992248 417.31560825400356 561.8026970770927 415.4365265518983 563.0058719303657 413.6118926650777 564.2090467836388 411.787258778257 564.4418819914627 411.40797857281495 564.6747171992864 411.0286983673729 564.9166790839297 410.77274437464496 565.1586409685731 410.51679038191696 565.4548271466242 410.3261814945455 565.7510133246755 410.13557260717397 566.0842094415498 410.0213870226487 566.4174055584242 409.9072014381235 566.768246240154 409.8760756279821 567.1190869218836 409.8449498178407 567.4671812915624 409.89869281563097 567.8152756612412 409.95243581342123 568.1403924577481 410.0879240735865 568.465509254255 410.2234123337518 568.7487526741015 410.4327712722454 569.0319960939481 410.642130210739 569.2569040162647 410.913191876219 569.4818119385812 411.18425354169904 569.6353127043556 411.5012638174319 569.7888134701299 411.8182740931648 569.8619856076429 412.16280832703035 569.9351577451558 412.50734256089595 569.9237484863373 412.859376407034 569.9123392275188 413.21141025317206 569.8170116790275 413.55048348790484 569.721684130536 413.8895567226376 569.5479787339689 414.1959623936312 569.3742733374017 414.50236806462476 571.0370761988439 413.7881732590944 572.6998790602861 413.07397845356394 571.4884259909795 411.48466824843604 570.2769729216731 409.8953580433082 568.9254419636582 407.2883944560343 567.5739110056434 404.6814308687604 566.1698036699788 403.49482498475106 564.7656963343142 402.3082191007418 562.8909696483947 401.1070013247302 561.0162429624753 399.90578354871866 556.2723697574238 398.6119493226982 551.5284965523723 397.31811509667773 545.1414202237772 396.29328993401316 538.7543438951822 395.26846477134853 531.503315392468 395.5075015497006 524.2522868897538 395.7465383280526 516.5009104953282 396.8812972810339 508.7495341009025 398.0160562340151 503.6770928900773 399.1852853235603 498.6046516792521 400.35451441310556 494.96886019083115 401.20179484945845 491.3330687024102 402.0490752858114 488.45802231350183 403.1273139884391 485.5829759245935 404.20555269106677 483.3656770296081 405.40596916837353 481.1483781346227 406.60638564568035 479.02721018119723 407.575577725986 476.9060422277718 408.5447698062917 475.6897544223176 409.6192295235947 474.4734666168634 410.6936892408977 474.1948754665208 410.81431368867936 473.91628431617823 410.9349381364611 473.61692081044214 410.98538392801265 473.3175573047061 411.0358297195642 473.0148204645955 411.01316494311055 472.71208362448493 410.9905001666569 472.42356852937104 410.8960421000703 472.13505343425714 410.8015840334838 471.8775285950238 410.64082258403243 471.6200037557905 410.4800611345811 471.4084365281937 410.26233976526044 471.1968693005969 410.04461839593984 471.04355598184503 409.78259108296436 470.89024266309315 409.52056376998894 470.8040938304755 409.2294595531001 470.7179449978578 408.9383553362113 470.7039676255737 408.6350932061722 470.6899902532896 408.331831076133 470.74899670687296 408.03403664219013 470.80800316045634 407.7362422082473 470.93656398205246 407.4612232968932 471.06512480364864 407.18620438553916 471.255768032266 406.94994510882356 471.44641126088345 406.71368583210796 471.68805670311747 406.5299175902941 471.92970214535154 406.34614934848025 473.7134925266389 405.92198566420825 475.4972829079263 405.4978219799362 477.96937555967713 404.44087494413725 480.44146821142795 403.3839279083383 485.6007098998148 401.18480975845057 490.75995158820155 398.9856916085628 501.54781756097736 393.0683859333243 512.3356835337532 387.15108025808587 521.2885302550055 382.1178974341132 530.2413769762578 377.08471461014057 537.6557421990801 372.7994684918683 545.0701074219023 368.5142223735961 551.4213189575462 364.2119521761867 557.7725304931902 359.90968197877726 563.3384044930533 355.5835787545524 568.9042784929164 351.25747553032744 573.4121956093395 347.2842915989529 577.9201127257625 343.31110766757837 580.8050091346703 339.2373193050521 583.6899055435781 335.1635309425258 585.2417340479892 331.3794929597189 586.7935625524003 327.595454976912 587.4470871963324 324.2728260720291 588.1006118402644 320.9501971671462 588.3529031729645 318.22905203892253 588.6051945056646 315.5079069106988 587.0552438305131 313.34352591855236 585.5052931553616 311.17914492640597 583.2832513731564 310.007909852646 581.0612095909512 308.83667477888605 577.4874982096537 308.27874885508675 573.9137868283561 307.72082293128744 569.0094724768132 309.2003317712156 564.1051581252705 310.6798406111438 558.4280413290271 313.76043930604226 552.7509245327839 316.8410380009408 546.7888923848524 321.6905225928268 540.8268602369209 326.5400071847128 536.1702584691473 331.78404357131654 531.5136567013737 337.0280799579203 527.7525185974497 342.4549581379589 523.9913804935256 347.88183631799757 521.0125420823883 355.4596656073844 518.033703671251 363.03749489677125 516.7613818338455 367.99420751353864 515.48905999644 372.95092013030603 516.2692688563841 377.12101404491636 517.049477716328 381.29110795952664 523.6523225588758 385.41316553974474 530.2551674014236 389.53522311996284 530.4647722449153 389.72828411276816 530.6743770884069 389.92134510557344 530.8113625276311 390.171228531992 530.9483479668553 390.42111195841056 530.9983715901647 390.7016549577336 531.048395213474 390.98219795705654 531.006219534303 391.26402760319866 530.9640438551321 391.54585724934077 530.8340846782232 391.79946590395514 530.7041255013145 392.05307455856956 530.4999895867961 392.2519093285719 530.2958536722779 392.45074409857426 530.0389141042866 392.573986931058 529.7819745362954 392.6972297635418 529.4991329554255 392.731977101413 529.2162913745556 392.76672443928425 528.937161368987 392.7093382270954 528.6580313634183 392.65195201490644 528.4118379184172 392.50844060422213 528.165644473416 392.3649291935378 527.9781641076628 392.1503182669401 527.7906837419096 391.9357073403423 527.6815456991885 391.6724667184976 527.5724076564675 391.40922609665296 527.5530387186612 391.12491714215736 527.533669780855 390.84060818766176 527.6060978808648 390.56499812310113 527.6785259808745 390.2893880585405 527.8351678775101 390.0513333304284 527.9918097741457 389.81327860231625 528.2162650194799 389.6377036035263 528.4407202648141 389.46212860473634 528.70948833541 389.36741608398916 528.9782564060059 389.272703563242 529.2631972139243 389.2687699464615 529.5481380218425 389.264836329681 529.8194181892773 389.35209346758245 530.0906983567119 389.4393506054839 530.3199147785215 389.60866265269544 530.549131200331 389.777974699907 530.7122848566447 390.0116146403915 530.8754385129585 390.24525458087595 530.9554471728919 390.51876025118975 531.0354558328254 390.7922659215035 531.0239425685634 391.0770012057662 531.0124293043012 391.3617364900289 530.9105995576512 391.62788952881544 530.8087698110011 391.89404256760196 530.6272851833176 392.11374706749376 530.445800555634 392.33345156738557 530.2036625353429 392.48370440924765 529.9615245150518 392.63395725110973 529.6840850167957 392.69902692273627 529.4066455185398 392.76409659436274 529.1229525310232 392.73717028395765 528.8392595435066 392.7102439735525 528.5790157974101 392.59414087292305 528.3187720513135 392.4780377722936 528.3189927624142 392.4781830019459 528.3192134735147 392.47832823159825 521.1823500889986 387.56250197771607 514.0454867044825 382.6466757238339 513.0485522119143 377.432335938723 512.0516177193462 372.21799615361215 513.3870133555793 366.97482233365054 514.7224089918122 361.7316485136889 517.8793764010009 353.7963047103356 521.0363438101895 345.8609609069823 524.9231646274825 340.24589314959917 528.8099854447755 334.6308253922161 533.6620627276138 329.1696034581171 538.5141400104523 323.7083815240181 544.7415821796776 318.6448139521872 550.969024348903 313.5812463803562 556.9999041939018 310.310094565383 563.0307840389007 307.03894275040983 568.7016602563651 305.45433159468394 574.3725364738297 303.8697204389581 578.7085070322462 304.58866010730105 583.0444775906626 305.307599775644 585.8549896486852 307.140754330454 588.6655017067078 308.97390888526394 590.4703357739581 312.18135150503304 592.2751698412086 315.3887941248022 591.9344713444499 318.51800272153605 591.5937728476912 321.64721131826985 590.8520273046613 325.300889345502 590.1102817616313 328.9545673727342 588.3791215908377 333.09880953063464 586.6479614200441 337.2430516885351 583.5054657599961 341.64019326128994 580.3629700999481 346.03733483404477 575.7807323080285 350.1145754286993 571.1984945161088 354.19181602335385 565.5596568865072 358.6240412881083 559.9208192569057 363.05626655286267 553.4864659176144 367.4806527725369 547.0521125783232 371.9050389922112 539.6585453978053 376.27192676891525 532.2649782172874 380.63881454561925 523.3487504474544 385.7797469610898 514.4325226776215 390.9206793765604 503.5432012276691 397.0612930606736 492.65387977771667 403.2019067447869 487.5434446316052 405.6120542031854 482.4330094854937 408.0222016615838 478.453346733316 409.3578818462604 474.47368398113827 410.69356203093696 474.1951048946334 410.8142143372305 473.91652580812854 410.93486664352406 473.61716734846846 410.98534237117394 473.3178088888084 411.0358180988238 473.0150697837338 411.01318359616744 472.7123306786592 410.990549093511 472.42380613918124 410.89611987890623 472.1352815997033 410.8016906643014 471.8777406856127 410.64095496813775 471.6201997715221 410.48021927197414 471.40861077284626 410.2625190604648 471.19702177417037 410.0448188489555 471.0436822534538 409.78280686862206 470.8903427327373 409.5207948882886 470.80416479012865 409.2296992877385 470.7179868475201 408.9386036871885 470.7039791490929 408.6353429564029 470.6899714506658 408.3320822256173 470.7489481245108 408.03428189251804 470.80792479835577 407.7364815594188 470.93645811741806 407.4614497933577 471.0649914364803 407.1864180272966 471.25561103821684 406.95013968743945 471.4462306399534 406.71386134758234 471.6878577041551 406.53006894214315 471.92948476835676 406.34627653670395 473.5405463153101 405.34414039402736 475.15160786226346 404.3420042513508 477.1927133584162 403.5796771337473 479.2338188545689 402.8173500161438 481.71816046939045 401.64089084166073 484.202502084212 400.4644316671776 487.29823645884306 399.3446373994862 490.3939708334741 398.2248431317948 494.0178027265199 397.29489690717173 497.64163461956576 396.3649506825486 502.8614289444069 395.04979843687005 508.081223269248 393.7346461911915 516.0603532535501 392.4184176245973 524.0394832378522 391.10218905800315 531.7363887323054 390.6660991674784 539.4332942267587 390.2300092769537 546.1527638267007 391.0113076863713 552.8722334266428 391.792606095789 558.5995980853828 393.051145937007 564.3269627441229 394.309685778225 566.7227490637699 395.7194384206468 569.118535383417 397.12919106306856 570.9734626989473 398.69142936501 572.8283900144777 400.25366766695134 574.450976018526 402.40297232093315 576.0735620225743 404.55227697491495 576.6459272588169 406.7058298109288 577.2182924950595 408.85938264694255 577.538323764715 411.2958110201674 577.8583550343704 413.7322393933922 577.2643039528066 415.7936206437327 576.6702528712426 417.8550018940732 574.5814441215873 418.87360895282745 572.492635371932 419.89221601158175 570.6833949244005 419.63356740907903 568.8741544768692 419.3749188065763 566.7900616053618 417.56653697317137 564.7059687338543 415.7581551397664 564.6902561365772 413.39354425115675 564.6745435393001 411.02893336254715 564.9164798273343 410.7729551749105 565.1584161153687 410.51697698727395 565.4545832310503 410.32633848223776 565.7507503467317 410.13569997720157 566.0839350433816 410.02148107363564 566.4171197400317 409.90726217006966 566.7679573074262 409.8761012760158 567.1187948748207 409.84494038196186 567.4668946170588 409.8986485700465 567.8149943592969 409.95235675813115 568.1401247030042 410.0878125059394 568.4652550467115 410.2232682537477 568.7485194010357 410.4325988668526 569.0317837553598 410.6419294799574 569.2567187827183 410.9129686532899 569.4816538100769 411.1840078266224 569.6351862761112 411.5010027506937 569.7887187421455 411.81799767476497 569.861925332716 412.16252458969416 569.9351319232865 412.5070515046233 569.9237578679096 412.85908648992705 569.9123838125327 413.2111214752308 569.8170901718413 413.55020424102304 569.7217965311498 413.8892870068153 569.5481217760183 414.1957100468165 569.3744470208868 414.50213308681765 569.080197964887 414.8360240889194 568.7859489088871 415.1699150910211 567.517455305756 416.68957147937226 566.2489617026249 418.20922786772337 564.9865623185648 420.1549069247785 563.7241629345046 422.1005859818336 561.8178676887776 425.0529481776613 559.9115724430505 428.00531037348895 558.500499712062 429.6512715861339 557.0894269810736 431.2972327987788 554.5490587876465 432.085172717428 552.0086905942193 432.8731126360773 551.8771743486292 433.13009499157414 551.7456581030391 433.387077347071 551.5564619001758 433.6051169093366 551.3672656973125 433.82315647160215 551.1313856293759 433.98958077103305 550.8955055614393 434.1560050704639 550.6266509890606 434.26114151895774 550.3577964166819 434.3662779674516 550.0715931802399 434.4040160296821 549.7853899437978 434.4417540919127 549.4984721888416 434.40990042992996 549.2115544338853 434.3780467679473 548.9405978338137 434.27845271808235 548.6696412337421 434.17885866821746 548.4303937988823 434.0173126413279 548.1911463640224 433.8557666144384 547.9975131665292 433.64165767319724 547.8038799690361 433.4275487319561 547.6671149794457 433.17332089808815 547.5303499898554 432.9190930642202 547.4584019957888 432.6395220713747 547.3864540017221 432.35995107852915 547.3835046239748 432.07128560594583 547.3805552462275 431.78262013336257 547.4467759027727 431.5016374318709 547.512996559318 431.22065473037924 548.3443237095265 429.40934628157913 549.175650859735 427.598037832779 550.3200539585021 425.60936468009965 551.464457057269 423.62069152742026 553.1076242009569 420.4929511570397 554.750791344645 417.3652107866592 556.1565281605845 415.2679866740109 557.5622649765239 413.17076256136255 559.7559482345264 409.9162186877772 561.9496314925287 406.6616748141918 564.6188066059115 402.32165759609234 567.2879817192942 397.98164037799285 571.0181589941643 392.0289288738432 574.7483362690344 386.07621736969355 579.2750689387046 378.882609503534 583.8018016083748 371.68900163737453 589.4069035647381 362.3435817776457 595.0120055211013 352.99816191791683 603.073686299677 340.42358725983 611.1353670782527 327.8490126017432 615.7472309312444 320.24829686994406 620.3590947842362 312.647581138145 624.3439002866561 306.8073491348139 628.328705789076 300.96711713148284 631.0685980380837 296.38786182011097 633.8084902870913 291.80860650873916 635.9219652137715 288.8846599015877 638.0354401404516 285.96071329443623 638.2199871450009 285.76822294842316 638.4045341495502 285.57573260241014 638.6297856065041 285.43300239770053 638.8550370634582 285.2902721929909 639.1079013475554 285.20559761578863 639.3607656316526 285.1209230385864 639.6265462588204 285.09922537929685 639.8923268859883 285.07752772000737 640.1555766736881 285.120068047608 640.4188264613878 285.1626083752086 640.6642453195898 285.2669142438604 640.9096641777917 285.3712201125122 641.1229883509261 285.53122926022843 641.3363125240605 285.69123840794464 641.5051436011619 285.89765109554196 641.6739746782632 286.1040637831393 641.788500189198 286.3448832955163 641.9030257001326 286.58570280789337 641.956589416824 286.84693270367586 642.0101531335155 287.1081625994584 641.999641930233 287.3746201848297 641.9891307269505 287.64107777020104 641.9151555153227 287.8972765177799 641.8411803036948 288.15347526535874 641.7080405264973 288.3845248918984 641.5749007492997 288.6155745184381 641.5749671208303 288.61548603192284 Z" fill="currentColor"/><path d="M 597.151123046875 422.84550549141784 Q 597.151123046875 422.84550549141784 598.2331611633301 422.82542999348914 599.3151992797851 422.80535449556044 599.819551600966 421.05547380805535 600.3239039221468 419.3055931205503 600.502536072891 417.084080909368 600.6811682236352 414.86256869818567 603.2427834822045 414.1553065736391 605.8043987407736 413.4480444490925 604.9598962052784 415.83350342942737 604.1153936697831 418.21896240976224 603.5244865791334 420.322011487292 602.9335794884837 422.4250605648217 602.7043674408176 424.656902589997 602.4751553931516 426.88874461517224 603.7275755117284 425.1612466420679 604.9799956303052 423.4337486689635 607.040073192202 421.88708011966185 609.1001507540989 420.34041157036023 610.752934363418 418.8990352801406 612.4057179727372 417.45765898992096 614.00368672445 415.10602298198216 615.6016554761627 412.7543869740434 616.960235752889 411.5023937199675 618.3188160296155 410.2504004658915 618.4924309224168 410.09704155917717 618.6660458152181 409.9436826524628 619.0409051016222 409.7170921273563 619.4157643880264 409.4905016022497 619.8339586091524 409.3602083020062 620.2521528302783 409.2299150017626 620.6893765183454 409.20349157911403 621.1266002064126 409.17706815646545 621.5574419001275 409.2560503419777 621.9882835938425 409.3350325274899 622.3877027537237 409.51482987283 622.7871219136048 409.69462721817007 623.1319042793132 409.96478989317916 623.4766866450216 410.2349525681882 623.7467934492627 410.57977870550116 624.0169002535036 410.9246048428141 624.196632876124 411.3240531311287 624.3763654987443 411.7235014194434 624.4552778712726 412.15435590547486 624.5341902438009 412.58521039150634 624.5076959754381 413.0224297922829 624.4812017070753 413.4596491930595 624.3508406459434 413.8778222964653 624.2204795848115 414.2959953998712 623.9938283219086 414.67081796548854 623.7671770590057 415.0456405311059 623.4574085763808 415.3553278538102 623.1476400937559 415.6650151765145 623.3630107781987 417.5213342145146 623.5783814626415 419.3776532525146 626.0138839941063 418.4872222108057 628.4493865255712 417.59679116909683 630.9218207809944 415.9869443042063 633.3942550364176 414.37709743931583 635.8810665325459 412.5789382094608 638.3678780286743 410.7807789796057 639.9664988671497 409.2906253970414 641.565119705625 407.80047181447713 641.4039652161432 407.597569497629 641.2428107266613 407.39466718078086 641.5229652519571 407.0179942741168 641.8031197772528 406.64132136745275 642.165279545625 406.342642043041 642.5274393139972 406.0439627186293 642.950555582692 405.84063623283816 643.3736718513869 405.63730974704697 643.8331530829878 405.54115344478384 644.2926343145888 405.44499714252066 644.7617754383265 405.4615996325909 645.2309165620642 405.4782021226611 645.6824510737846 405.6065984675618 646.133985585505 405.7349948124625 646.5416702781715 405.9677226105954 646.9493549708382 406.2004504087282 647.2894951909582 406.52398350953104 647.6296354110783 406.8475166103339 647.8824621930771 407.24305125478696 648.1352889750758 407.63858589924 648.2861080145044 408.08313359522356 648.4369270539329 408.5276812912071 648.4769727411335 408.9954049057436 648.5170184283343 409.46312852028007 648.4439633060854 409.9268439349167 648.3709081838365 410.3905593495533 648.1889982192756 410.82331540260384 648.0070882547147 411.2560714556544 645.4151971138219 412.0442896670897 642.8233059729291 412.83250787852495 642.2813485163763 415.379494135917 641.7393910598236 417.9264803933091 643.7778070527711 418.37466997979914 645.8162230457186 418.82285956628914 649.4462315185807 418.1311018224458 653.0762399914428 417.4393440786025 653.5797271741924 417.4023445855271 654.083214356942 417.3653450924516 654.5721582766909 417.49105169140955 655.0611021964397 417.61675829036756 655.4843102957216 417.89200946726476 655.9075183950033 418.1672606441619 656.2206806741071 418.5632375281179 656.5338429532109 418.9592144120739 656.7041712388477 419.43445811881077 656.8744995244846 419.90970182554764 656.8841604001859 420.41445421351784 656.8938212758873 420.9192066014881 656.741803245417 421.4006199624296 656.5897852149468 421.882033323371 656.292004606224 422.2897035513123 655.9942239975014 422.69737377925355 655.5818585188658 422.98861769371473 655.1694930402303 423.2798616081759 654.6857174661491 423.42418589443196 654.2019418920678 423.56851018068807 653.6974076528514 423.5508040478701 653.1928734136351 423.53309791505217 652.7204053773137 423.3552151999402 652.2479373409924 423.1773324848282 651.8570030356883 422.8578975546509 651.4660687303842 422.53846262447354 651.1975990810594 422.1109204007431 650.9291294317345 421.6833781770127 650.8112332815424 421.19249244341387 650.6933371313502 420.70160670981505 650.7383582383372 420.1987733322369 650.7833793453244 419.6959399546588 650.9866039877049 419.2338057204689 651.1898286300855 418.771671486279 651.5299791341561 418.3986219717886 651.8701296382267 418.0255724572982 652.31159215642 417.7806660451499 652.7530546746134 417.5357596330017 653.24960796474 417.4446380891966 653.7461612548666 417.3535165453914 654.2458160563729 417.4257203196195 654.745470857879 417.4979240938476 655.195913181151 417.7258934318873 655.646355504423 417.953862769927 656.0004239193091 418.31372922190747 656.3544923341952 418.673595673888 656.5751157841919 419.1276811272914 656.7957392341884 419.5817665806948 656.8598183858419 420.08252816868287 656.9238975374953 420.583289756671 656.8247232867124 421.07829760879315 656.7255490359294 421.5733054609153 656.4735049529463 422.010732124385 656.2214608699634 422.4481587878547 655.8429360368018 422.7822055755372 655.4644112036402 423.11625236321976 654.999037270253 423.31194448826494 654.5336633368659 423.5076366133101 654.5341184588094 423.50752730655836 654.5345735807529 423.50741799980665 649.9489809291996 424.7901067165186 645.3633882776463 426.07279543323057 641.6323291272812 425.76740324630623 637.9012699769161 425.4620110593819 636.3588542157373 423.9984040276076 634.8164384545586 422.5347969958333 634.3011498500798 420.1504222637369 633.7858612456012 417.7660475316406 634.9226710604408 414.7205185511434 636.0594808752805 411.67498957064623 637.440615131354 409.8157446717029 638.8217493874273 407.95649977275957 642.0169536705557 406.68741383110046 645.212157953684 405.4183278894414 643.2273878219769 406.40666665170215 641.2426176902698 407.39500541396285 641.5227345468741 407.0183044937297 641.8028514034785 406.6416035734965 642.1649813021074 406.3428880346014 642.5271112007365 406.04417249570633 642.9502071346672 405.840803699305 643.3733030685979 405.6374349029037 643.8327746822713 405.54123265299825 644.2922462959446 405.44503040309274 644.7613890775856 405.46158597896766 645.2305318592266 405.4781415548426 645.6820792083238 405.6064927456502 646.133626557421 405.7348439364578 646.541334520829 405.96753096495786 646.9490424842369 406.20021799345784 647.2892150559662 406.5237170786211 647.6293876276957 406.8472161637843 647.8822539618947 407.2427255235815 648.1351202960936 407.63823488337874 648.2859837895376 408.08276749523566 648.4368472829816 408.5273001070925 648.4769397423435 408.99501971472165 648.5170322017053 409.4627393223508 648.4440234513631 409.92646204018104 648.3710147010208 410.39018475801134 648.1891480129748 410.8229589998946 648.0072813249286 411.25573324177776 647.8628891528783 411.48492886622427 647.7184969808281 411.71412449067077 646.4040091614042 413.00360090192083 645.0895213419805 414.2930773131709 642.6999183830233 416.3879060634294 640.3103154240661 418.4827348136879 637.6051134099926 420.421612287652 634.8999113959192 422.36048976161607 631.6438989942692 424.1741787207076 628.3878865926192 425.987867679799 626.1503731939918 426.7794902639056 623.9128597953643 427.57111284801215 620.999542389903 426.5346594499763 618.0862249844417 425.4982060519404 616.9926914462956 422.99246336143176 615.8991579081493 420.4867206709232 616.0795641438722 418.11013949051585 616.2599703795952 415.73355831010844 617.4628650752982 412.83873253544544 618.665759771001 409.94390676078245 619.0405963964785 409.71727875088027 619.4154330219559 409.4906507409781 619.8336142116609 409.360315621964 620.2517954013658 409.22998050294984 620.6890164449046 409.20351335806464 621.1262374884433 409.17704621317944 621.5570870782226 409.25598531412743 621.9879366680019 409.3349244150755 622.3873738056204 409.51468181760066 622.7868109432391 409.69443922012584 623.131620323491 409.96456741554755 623.4764297037428 410.2346956109693 623.746570989247 410.5794947358778 624.0167122747512 410.92429386078624 624.1964848413016 411.3237241738414 624.3762574078521 411.7231544868966 624.4552128654343 412.15400107953656 624.5341683230166 412.5848476721765 624.5077177767263 413.0220697201938 624.481267230436 413.4592917682111 624.3509479872662 413.87747790563213 624.2206287440964 414.2956640430532 623.9940149645832 414.6705092719227 623.7674011850701 415.04535450079226 623.4576636727262 415.3550727987963 623.1479261603823 415.6647910968004 622.6448550614225 416.0167585135323 622.1417839624626 416.36872593026425 620.8908750171355 417.8924307666131 619.6399660718084 419.41613560296196 618.3733168792577 420.9952146847379 617.1066676867069 422.5742937665139 615.4211501428559 424.1858095035103 613.7356325990049 425.7973252405067 611.3354582517882 428.03931642723273 608.9352839045714 430.2813076139588 604.7525912337512 431.60717863037127 600.569898562931 432.93304964678373 598.2462721911525 431.67201335162383 595.9226458193738 430.41097705646393 595.2987710187923 427.0501644751622 594.6748962182108 423.68935189386053 595.3213172199069 420.7122248927326 595.9677382216028 417.7350978916046 596.4044524065251 416.03439190472875 596.8411665914475 414.33368591785285 598.4470397937965 411.9608711257489 600.0529129961456 409.58805633364494 602.8583825651947 408.87708219381597 605.6638521342439 408.166108053987 607.1065162134722 411.7414766793255 608.5491802927005 415.31684530466396 608.3410044280554 417.19488374582426 608.1328285634103 419.07292218698456 607.2440138097195 421.8856646358061 606.3551990560287 424.69840708462766 604.572003024497 427.13742350194065 602.7888069929653 429.57643991925363 601.0520031363752 429.92674144231535 599.3151992797851 430.27704296537706 598.2331611633301 430.25696746744836 597.151123046875 430.23689196951966 596.708890604469 430.18319350334593 596.2666581620631 430.12949503717215 595.8501282899879 429.97152059602786 595.4335984179128 429.8135461548836 595.0669798519041 429.5604772207106 594.7003612858953 429.30740828653757 594.404961914235 428.97395323768023 594.1095625425745 428.64049818882296 593.9025509906227 428.2460374483883 593.6955394386708 427.85157670795365 593.5889472275534 427.4190363527093 593.4823550164359 426.98649599746506 593.482377290471 426.54101529318075 593.4823995645063 426.0955345888965 593.5890350291263 425.663004895036 593.6956704937463 425.23047520117547 593.9027214907371 424.8360351638683 594.1097724877278 424.44159512656114 594.405205203416 424.1081696193082 594.7006379191042 423.7747441120553 595.0672817901732 423.52171184100416 595.4339256612423 423.268679569953 595.8504713286789 423.11074678258575 596.2670169961154 422.9528139952185 596.7092548061569 422.8991597525574 597.1514926161983 422.8455055098963 597.1513078315367 422.84550550065705 Z" fill="currentColor"/><path d="M 678.883952331543 415.42820730395135 Q 678.883952331543 415.42820730395135 679.4564456634596 415.5220658625121 680.028938995376 415.6159244210728 680.5414921243173 415.88767308089734 681.0540452532587 416.15942174072194 681.4529937313237 416.5806083453921 681.8519422093887 417.0017949500622 682.0955160256119 417.52832115088654 682.3390898418351 418.0548473517108 682.4017867533606 418.63158571647347 682.4644836648862 419.2083240812361 682.339739288527 419.77488995090243 682.2149949121678 420.34145582056874 681.9158700170578 420.8385295990257 681.616745121948 421.33560337748264 681.1745581635669 421.7111413089111 680.7323712051857 422.08667924033966 680.1934192748017 422.3013624041867 679.6544673444179 422.51604556803375 679.0751788514118 422.54739658037374 678.4958903584057 422.5787475927137 677.9369169609126 422.42348399427874 677.3779435634195 422.26822039584374 676.8978099237115 421.94259832637556 676.4176762840035 421.61697625690744 676.066652520901 421.1550884330353 675.7156287577985 420.6932006091631 675.5304671519597 420.14340680797295 675.3453055461208 419.5936130067828 675.3453925665549 419.01347678439066 675.3454795869889 418.43334056199853 675.5308061226333 417.88360233403 675.7161326582778 417.3338641060614 676.0672949719293 416.8720816101016 676.4184572855808 416.41029911414176 676.8986885903021 416.08482109941633 677.3789198950235 415.75934308469095 677.9379398464416 415.60424718525957 678.4969597978597 415.4491512858282 679.0762388594942 415.4806760833027 679.6555179211288 415.51220088077713 680.1944054223118 415.7270457205401 680.7332929234947 415.94189056030314 681.1753672005997 416.31756113091797 681.6174414777047 416.69323170153274 681.9164172372226 417.19039519508857 682.2153929967405 417.6875586886444 682.3399673977278 418.2541619561276 682.4645417987152 418.82076522361075 682.4016718685043 419.39748475334704 682.3388019382933 419.9742042830833 682.0950701751731 420.50065738807007 681.8513384120528 421.0271104930569 681.4522635959609 421.44817739423206 681.0531887798691 421.86924429540716 680.5405541493959 422.1408391770667 680.0279195189228 422.4124340587262 679.4553980552014 422.5061208650663 678.8828765914799 422.5998076714064 678.8834144615114 422.5998077520869 678.883952331543 422.5998078327674 678.4339069825999 422.7203453474051 677.9838616336566 422.84088286204275 677.5180471974716 422.85021129074346 677.0522327612864 422.85953971944423 676.5977223947767 422.7571168934937 676.143212028267 422.6546940675431 675.7264218952894 422.4464728063978 675.3096317623117 422.2382515452525 674.9547857249776 421.93633367839345 674.5999396876434 421.63441581153444 674.327661414315 421.2563488195691 674.0553831409866 420.8782818276037 673.8814974577026 420.44603898186836 673.7076117744188 420.01379613613307 673.6422249252619 419.55249941113084 673.5768380761049 419.0912026861286 673.6237503478201 418.6276626691905 673.6706626195353 418.1641226522524 673.8271474686863 417.7252803109422 673.9836323178374 417.286437969632 674.2405948376393 416.8977988414456 674.4975573574412 416.5091597132591 674.8400628741698 416.1933115225868 675.1825683908984 415.8774633319145 675.5907104678287 415.65276319043824 675.998852544759 415.4280630489619 677.441402438151 415.42813517645664 Z" fill="currentColor"/></svg>