<svg xmlns="http://www.w3.org/2000/svg" version="1.1" xmlns:xlink="http://www.w3.org/1999/xlink" style="overflow: hidden; display: block;" viewBox="236.46 223.23 394.04 179.05"><defs/><g id="two-0" transform="matrix(1 0 0 1 0 0)" opacity="1"/><path d="M 495.5387267260185 225.01115375527473 Q 495.5387267260185 225.01115375527473 489.2189233023205 242.38946836929657 482.8991198786224 259.7677829833184 473.44245627672933 282.9227185275878 463.98579267483626 306.0776540718571 458.2448366479964 316.8689720538148 452.50388062115655 327.6602900357724 447.44365192457644 336.45519667199335 442.38342322799633 345.25010330821436 437.9648635120694 352.77942592985073 433.54630379614247 360.30874855148704 427.8947646564968 369.6973427169421 422.2432255168512 379.0859368823971 420.42485769380994 382.2909785459861 418.60648987076866 385.4960202095751 418.78445958146705 386.57335637515325 418.96242929216544 387.6506925407315 418.9448446988756 387.7954218763141 418.92726010558573 387.9401512118967 418.87554944295215 388.07646630962745 418.82383878031857 388.2127814073582 418.7410074744831 388.3327596273523 418.6581761686476 388.4527378473463 418.54903837899724 388.5494060498205 418.4399005893469 388.6460742522946 418.310799409344 388.71381407677916 418.181698229341 388.7815539012637 418.04013702563304 388.8164283059768 417.898575821925 388.8513027106899 417.7527821383227 388.85128479359105 417.6069884547204 388.8512668764923 417.46543582696484 388.8163576789242 417.3238831992093 388.7814484813561 417.1947986726765 388.7136769275216 417.06571414614365 388.64590537368707 416.9566001195806 388.5492103494792 416.8474860930176 388.45251532527135 416.76468427877495 388.3325167500403 416.6818824645323 388.21251817480925 416.63020530794427 388.07619037138556 416.5785281513562 387.93986256796194 416.56097913119163 387.79512891468596 416.5434301110271 387.6503952614099 419.9232973735077 385.89024595929857 423.30316463598825 384.13009665718727 424.37162544539103 382.8340178189988 425.4400862547938 381.53793898081034 425.58697524444074 381.42286835201645 425.7338642340876 381.30779772322256 425.9040236896511 381.2312249828195 426.0741831452147 381.15465224241655 426.25772339114263 381.12102780167436 426.44126363707056 381.0874033609322 426.62751730564594 381.0986814739267 426.8137709742213 381.10995958692126 426.99191299347547 381.16548476919525 427.1700550127296 381.2210099514692 427.32973176013354 381.3175550768201 427.48940850753746 381.414100202171 427.6213395630296 381.54605406337726 427.75327061852175 381.6780079245835 427.84978814295823 381.83770135703196 427.94630566739465 381.9973947894804 428.0018000577203 382.175546403374 428.0572944480459 382.3536980172676 428.06854036768766 382.53995363243644 428.07978628732934 382.72620924760525 428.0461301229092 382.90974367894455 428.01247395848895 383.0932781102838 427.9358718078643 383.26342432802073 427.8592696572397 383.4335705457577 427.744173641004 383.58043964372314 427.62907762476834 383.7273087416886 430.12949379091276 388.39960396344054 432.6299099570572 393.0718991851925 436.057545451951 394.83793724928483 439.48518094684476 396.6039753133772 442.39455104619435 396.6419871881816 445.30392114554394 396.679999062986 448.4260434300604 396.73524212707537 451.5481657145769 396.7904851911647 454.5324170568641 395.61734046381196 457.51666839915134 394.4441957364593 459.2983985718331 392.67065275493144 461.0801287445148 390.89710977340354 462.37253024448603 387.6998907096024 463.66493174445725 384.50267164580134 451.34573688234184 380.23942396863094 439.0265420202265 375.97617629146055 416.03258939212583 375.31204377049175 393.0386367640251 374.647911249523 369.2764234586691 378.35030498363153 345.51421015331306 382.05269871774 334.7629289578318 384.55343200202236 324.0116477623505 387.05416528630474 314.5992131925455 389.5511864608619 305.1867786227405 392.04820763541903 292.6764206677268 395.7914932058154 280.166062712713 399.5347787762118 277.5575356211838 400.18719916739406 274.9490085296545 400.8396195585764 273.7033826315438 401.55427256552343 272.45775673343303 402.26892557247044 272.3555062366587 402.28188412194265 272.2532557398844 402.2948426714148 272.1508753642888 402.2829537358896 272.0484949886933 402.2710648003643 271.95193508651636 402.23501936533296 271.85537518433944 402.1989739303016 271.77024782163255 402.1408669581417 271.68512045892567 402.0827599859819 271.61637324200905 402.0059686566456 271.5476260250924 401.92917732730933 271.4992545454433 401.8381647564657 271.4508830657942 401.74715218562204 271.42569867608256 401.64720802816464 271.4005142863709 401.5472638707073 271.39998070450997 401.44419688576346 271.39944712264906 401.3411299008196 271.42359536044177 401.24093034639685 271.44774359823447 401.1407307919741 271.49517015896566 401.04922227088326 271.54259671969686 400.95771374979245 271.6105451694285 400.8802147415789 271.6784936191602 400.8027157333654 271.7630147908013 400.7437304840278 271.8475359624425 400.68474523469024 271.9437174815262 400.64770196969147 272.0398990006099 400.6106587046927 274.47155378348725 399.4874922524534 276.9032085663646 398.36432580021415 281.87367367422735 395.2617381406054 286.84413878209006 392.1591504809967 295.5910394506743 386.5391322568932 304.33794011925863 380.9191140327897 314.97418998789817 373.41716795511087 325.61043985653765 365.91522187743203 336.8840784506783 357.1541871590823 348.15771704481904 348.3931524407326 356.9379334299773 340.2543401513353 365.71814981513563 332.1155278619381 370.0875344984197 325.2939579136951 374.4569191817037 318.4723879654521 374.48999233682736 305.58595590932896 374.523065491951 292.69952385320573 360.92240578995836 280.9373692746572 347.3217460879657 269.1752146961087 337.9864818173875 266.02336638306605 328.65121754680933 262.8715180700234 306.92139181137463 264.10268869513436 285.1915660759399 265.33385932024527 275.14607060511963 269.0565800897155 265.1005751342994 272.77930085918575 257.603338409267 277.1393804337739 250.1061016842346 281.49946000836206 243.30768282420803 288.0864507554205 236.50926396418143 294.673441502479 237.6632497125285 297.0452443756135 238.81723546087557 299.41704724874796 245.53830421598724 301.8072062382246 252.25937297109888 304.19736522770125 262.21751160705287 306.0704892621164 272.1756502430069 307.9436132965315 286.5334732201562 309.1991662120947 300.89129619730556 310.45471912765794 323.38405886497685 311.08627201548865 345.8768215326481 311.71782490331935 345.98012767997216 311.73775666942976 346.0834338272962 311.75768843554016 346.17496744535845 311.80956359471725 346.2665010634207 311.86143875389433 346.3366785582475 311.9398259632785 346.40685605307436 312.01821317266274 346.44832982243236 312.11490527073937 346.48980359179035 312.211597368816 346.4982313210797 312.31647066739214 346.506659050369 312.4213439659683 346.4811583541084 312.5234182029992 346.45565765784784 312.6254924400301 346.3988984656673 312.7140804159536 346.34213927348674 312.8026683918772 346.26006428779056 312.8684949222292 346.1779893020943 312.93432145258123 346.0791917955505 312.9704944822574 345.98039428900677 313.00666751193353 345.87521838663054 313.0093997151779 345.77004248425436 313.0121319184223 345.66950013078826 312.98113723283404 345.56895777732217 312.95014254724583 345.4835757837147 312.8886661245878 345.3981937901072 312.8271897019298 345.3369116736277 312.7416681398825 345.27562955714814 312.6561465778352 345.2448635715689 312.55553400652053 345.21409758598963 312.45492143520585 345.2170689381222 312.3497520173995 345.2200402902548 312.24458259959323 345.2564378787466 312.1458676011016 345.2928354672385 312.04715260261 345.3588484549664 311.9652275098334 345.4248614426943 311.8833024170568 345.51357825241746 311.8267448088351 345.6022950621406 311.7701872006134 345.70442702046205 311.7449186734571 345.80655897878347 311.7196501463008 345.9114128427067 311.72831632167345 346.0162667066299 311.7369824970461 346.1128642489234 311.77867602409844 346.20946179121694 311.82036955115086 346.28768922370335 311.8907251065947 346.36591665618977 311.96108066203846 346.4175835460377 312.05273200064653 346.4692504358856 312.14438333925466 346.4889472460893 312.2477345416812 346.50864405629295 312.35108574410776 346.49430852562455 312.4553159121767 346.47997299495614 312.5595460802456 346.43310605726083 312.65374228784594 346.3862391195656 312.74793849544625 346.3117477555918 312.8222383747769 346.2372563916181 312.8965382541075 346.14293986683765 312.94316258818924 346.0486233420573 312.989786922271 345.9443566215119 313.0038541310179 345.84008990096646 313.0179213397647 345.84018740819994 313.0179240946371 345.8402849154334 313.0179268495095 323.3091341273016 312.3841778152391 300.77798333916985 311.7504287809688 286.3566328768298 310.48616364087366 271.93528241448973 309.22189850077854 261.87503954054506 307.32074293740413 251.81479666660036 305.41958737402973 244.83316563439934 302.79098753004166 237.85153460219829 300.16238768605353 236.63516124603103 297.44178169913874 235.4187878898638 294.72117571222395 242.43127534185987 287.55104858928644 249.44376279385597 280.380921466349 257.04528465811757 275.97029445478137 264.6468065223792 271.55966744321375 274.8746505505907 267.79849641311046 285.1024945788021 264.03732538300716 307.0686462828745 262.8353474972855 329.03479798694696 261.6333696115639 338.59017213609513 264.9036587390622 348.1455462852433 268.1739478665605 361.90938041365047 280.2683360831524 375.6732145420576 292.3627242997443 375.6310056233555 305.71502339869915 375.5887967046534 319.06732249765406 371.10146682019877 326.06703439395494 366.61413693574417 333.0667462902558 357.78831566702513 341.24734347499975 348.96249439830615 349.42794065974374 337.6654692090841 358.20878018261953 326.368444019862 366.98961970549533 315.71017465441867 374.5097006286122 305.0519052889754 382.0297815517291 296.299707976651 387.6576370138389 287.5475106643267 393.2854924759487 282.5248901994114 396.42331673125113 277.50226973449617 399.5611409865536 274.9800546895915 400.91502282892304 272.45783964468677 402.26890467129255 272.3555904442787 402.2818734457496 272.2533412438706 402.29484222020665 272.1509596798934 402.28296352277835 272.04857811591614 402.2710848253501 271.9520146096785 402.23504904648917 271.8554511034409 402.1990132676283 271.77031793046245 402.1409148084952 271.685184757484 402.08281634936213 271.6164298617782 402.0060318951315 271.54767496607235 401.9292474409009 271.499294385408 401.83823970766025 271.4509138047437 401.7472319744196 271.4257194207422 401.64729033590095 271.40052503674076 401.54734869738223 271.39998114818405 401.4442817663119 271.39943725962735 401.3412148352416 271.4235754773439 401.241012866496 271.44771369506043 401.1408108977505 271.4951311047024 401.04929763446114 271.5425485143444 400.95778437117184 271.6104892138355 400.8802785685009 271.67842991332657 400.8027727658299 271.7629451860202 400.7437790646701 271.84746045871384 400.68478536351023 271.94363827299014 400.6477324805448 272.03981608726644 400.61067959757935 273.32602760958827 400.0703340826328 274.6122391319101 399.52998856768625 277.1920345527801 398.8747556334956 279.77182997365014 398.21952269930506 292.2989892029067 394.45691239633373 304.8261484321633 390.6943020933624 314.25493662692753 388.17301997879565 323.6837248216918 385.65173786422895 334.4833309675346 383.1136557403251 345.2829371133774 380.57557361642125 369.18077558201776 376.82596146441983 393.0786140506582 373.07634931241836 416.31929144293565 373.7303522175066 439.55996883521317 374.3843551225948 452.11795870048775 378.86019163457615 464.6759485657624 383.3360281465575 463.42702245045604 387.66590728144695 462.1780963351497 391.99578641633644 460.1749188781786 393.97500932452976 458.1717414212074 395.95423223272314 454.8833174544981 397.26882186020816 451.59489348778885 398.58341148769324 448.4442531588608 398.6383811118541 445.2936128299328 398.69335073601485 441.91994920430517 398.6991932074601 438.54628557867755 398.70503567890535 434.47896150019983 396.6864380536878 430.41163742172205 394.6678404284703 428.24222949885865 391.21440111130386 426.07282157599525 387.7609617941374 425.7563991866232 384.64950511773134 425.4399767972512 381.5380484413252 425.58685427910075 381.42296312420774 425.7337317609504 381.3078778070903 425.9038835583891 381.2312880511246 426.0740353558278 381.15469829515894 426.25757223839395 381.1210555005604 426.4411091209601 381.08741270596175 426.62736391641556 381.09867219353305 426.81361871187096 381.10993168110434 426.9917662827526 381.1654390488988 427.1699138536343 381.22094641669327 427.32960025475234 381.3174755738867 427.4892866558704 381.4140047310802 427.62123090608895 381.5459453985211 427.7531751563076 381.67788606596207 427.8497086496046 381.83756984585966 427.9462421429017 381.9972536257572 428.00175434811126 382.175399689321 428.05726655332074 382.3535457528848 428.0685310984677 382.5398002425304 428.07979564361466 382.726054732176 428.0461578328059 382.90959252821403 428.0125200219971 383.09313032425206 427.9359348863772 383.2632842013533 427.8593497507573 383.43343807845457 427.7442684220069 383.5803186852873 427.62918709325646 383.72719929212 426.1564132465103 384.96151043256503 424.6836393997641 386.19582157301005 421.8230343473492 386.92319658189075 418.9624292949344 387.65057159077145 418.944859174666 387.79530268408973 418.92728905439765 387.940033777408 418.87559202353236 388.07635404552343 418.8238949926671 388.2126743136389 418.74107568506776 388.33266081616364 418.65825637746843 388.4526473186884 418.549128255184 388.5493264344581 418.4400001328995 388.64600555022787 418.3109057275245 388.7137582844917 418.1818113221495 388.7815110187555 418.0402536065898 388.81639957941456 417.89869589103006 388.8512881400737 417.752902206365 388.8512848023433 417.60710852169996 388.8512814646129 417.46555240373243 388.8163864224821 417.32399628576485 388.78149138035127 417.19490498272205 388.7137327353082 417.0658136796793 388.6459740902652 416.9566899841594 388.5492899779435 416.8475662886396 388.45260586562176 416.76475247495347 388.33261557117214 416.68193866126734 388.21262527672246 416.6302478721573 388.0763026416961 416.5785570830473 387.9399800066697 416.56099358960523 387.79524810901944 416.5434300961631 387.6505162113691 416.73225145141896 386.19726948249365 416.92107280667483 384.74402275361814 418.9520461755783 381.53694893455287 420.98301954448175 378.3298751154876 426.6010468134458 368.93228308519065 432.2190740824099 359.53469105489376 436.5930112692115 351.9880167842987 440.96694845601303 344.44134251370355 445.954178214626 335.63897647127067 450.94140797323894 326.83661042883784 456.55477416809936 316.08843818313665 462.1681403629598 305.3402659374355 471.47524579209545 282.1759866095049 480.7823512212311 259.0117072815742 486.9012311929188 241.56167813033724 493.0201111646065 224.11164897910027 493.0922269967622 223.96749314479703 493.1643428289179 223.8233373104938 493.2688627992118 223.70062963501698 493.3733827695057 223.57792195954016 493.50423217235357 223.48379421875387 493.6350815752014 223.38966647796755 493.78465543716175 223.32958938058886 493.934229299122 223.26951228321016 494.09383438031 223.24697751296142 494.2534394614979 223.22444274271268 494.4137995070958 223.24076002149954 494.5741595526937 223.2570773002864 494.72595442931697 223.31129826709912 494.8777493059402 223.3655192339118 495.0121566882274 223.45449256361167 495.14656407051456 223.5434658933115 495.25577219509205 223.6620204517959 495.36498031966954 223.78057501028033 495.4426420052058 223.92182040103995 495.520303690742 224.06306579179957 495.5619052364247 224.21879282608708 495.6035067821074 224.3745198603746 495.60663030414685 224.5356776756404 495.6097538261863 224.69683549090615 495.5742177853348 224.854057587355 495.53868174448326 225.01127968380382 495.53870423525086 225.01121671953928 Z" fill="currentColor"/><path d="M 499.7748181743528 385.04160587294774 Q 499.7748181743528 385.04160587294774 498.39556436932025 386.81715933573275 497.0163105642878 388.5927127985177 497.0080951382896 388.61014381436553 496.9998797122914 388.6275748302133 496.861655190315 388.78876864669684 496.7234306683386 388.9499624631804 496.5506455450267 389.0733916579045 496.37786042171484 389.19682085262855 496.1805569765527 389.2753117149965 495.98325353139046 389.3538025773645 495.77289904988106 389.3827932147676 495.5625445683716 389.4117838521708 495.35136486286376 389.38958932740115 495.1401851573559 389.36739480263145 494.94045400225593 389.2953050625114 494.740722847156 389.2232153223913 494.5640486265827 389.10542022600373 494.3873744060094 388.98762512961616 494.24402543396354 388.8309709334977 494.1006764619176 388.67431673737923 493.9989841873896 388.48790819076874 493.8972919128616 388.3014996441582 493.8431666956251 388.09617082054285 493.7890414783885 387.8908419969276 493.78562907861226 387.6785266171835 493.78221667883605 387.4662112374393 493.82971542535546 387.2592490814126 493.87721417187487 387.0522869253859 493.9728634353105 386.862706643309 494.0685126987461 386.6731263612321 498.10586702181325 384.7119536885201 502.14322134488043 382.7507810158082 503.9154929422308 380.8611132961512 505.6877645395812 378.97144557649426 506.59539164830994 378.27749244750567 507.5030187570386 377.58353931851707 507.5333291421575 377.3649118773707 507.5636395272764 377.1462844362243 507.64539169608054 376.9412642899847 507.7271438648847 376.73624414374507 507.85558637748204 376.5567470729446 507.98402889007946 376.3772500021441 508.15169666160307 376.23370838497124 508.3193644331266 376.0901667677984 508.51651260481765 375.99092324978756 508.71366077650873 375.8916797317768 508.92883108736555 375.84250235085767 509.1440013982224 375.7933249699386 509.36468813966826 375.79707191780085 509.58537488111415 375.80081886566313 509.7987517293673 375.85727236952096 510.0121285776205 375.9137258733787 510.205794060235 376.0196048529354 510.39945954284957 376.1254838324921 510.56215781287653 376.27463459648106 510.72485608290356 376.4237853604701 510.84713110924474 376.60753925948063 510.96940613558587 376.7912931584911 511.0441512879652 376.9989704072789 511.11889644034443 377.2066476560667 511.1417675269937 377.4261780431747 511.1646386136429 377.64570843028264 510.51454144036427 380.79994945294777 509.8644442670857 383.9541904756129 513.7336705217233 384.4537223501976 517.6028967763608 384.95325422478226 520.0668856729349 383.8711307363136 522.5308745695088 382.7890072478449 526.2685034772883 380.4061216286185 530.0061323850679 378.0232360093921 532.2036373294854 376.4514147730637 534.4011422739029 374.87959353673523 534.4064227973834 374.8787441541577 534.4117033208638 374.87789477158015 534.5892263506274 374.8979078820224 534.766749380391 374.91792099246476 534.9343239864459 374.9798378891214 535.1018985925008 375.0417547857781 535.2497853308695 375.14197685570633 535.3976720692382 375.24219892563457 535.5172757557384 375.3749012574212 535.6368794422385 375.5076035892078 535.7212487049912 375.6650735170944 535.8056179677438 375.822543444981 535.8498492612337 375.99562880936014 535.8940805547236 376.1687141737392 535.8956031540949 376.34735524510074 535.8971257534662 376.5259963164623 535.855851165172 376.6998104673453 535.8145765768777 376.87362461822823 535.7329036819287 377.03250976201673 535.6512307869798 377.1913949058052 535.533906417868 377.3261166304771 535.4165820487563 377.46083835514895 535.2704251033269 377.56356662773635 535.1242681578975 377.6662949003238 534.957773284686 377.73105914879727 534.7912784114745 377.7958233972708 534.6141223003348 377.81885952046616 534.436966189195 377.8418956436616 540.2827169408201 380.24778674766316 546.1284676924453 382.6536778516647 556.5261539842854 383.34335952540545 566.9238402761257 384.03304119914617 572.5255547049813 383.48643707043937 578.127269133837 382.9398329417326 581.8311760016176 381.7546496285519 585.5350828693981 380.5694663153712 588.8231967865142 380.4047064274404 592.1113107036304 380.2399465395096 595.86018307705 380.22123937657625 599.6090554504697 380.20253221364294 604.4871690227192 379.05328089710105 609.3652825949686 377.90402958055915 619.3714040400399 375.458615760671 629.3775254851113 373.01320194078295 629.5238579160039 373.0011060176283 629.6701903468963 372.9890100944736 629.8127246210693 373.02427299812456 629.9552588952421 373.0595359017755 630.079071636564 373.1384655969114 630.2028843778859 373.21739529204723 630.295012359657 373.3317278187518 630.3871403414282 373.44606034545643 630.4379377396377 373.58382505800296 630.4887351378472 373.7215897705495 630.4928834514934 373.86836266716796 630.4970317651396 374.01513556378643 630.4540966646886 374.15554948345664 630.4111615642375 374.2959634031268 630.3256383660404 374.41531697139357 630.2401151678432 374.53467053966034 630.1209581733269 374.62046740641983 630.0018011788108 374.70626427317933 629.8614861567557 374.74952148383375 629.7211711347009 374.7927786944881 629.5743891049558 374.78896720766306 629.4276070752107 374.78515572083796 629.2897261550368 374.73467460021016 629.1518452348627 374.6841934795824 629.0373015929988 374.5923281118073 628.9227579511349 374.50046274403223 628.8435443371211 374.37683145736605 628.7643307231072 374.25320017069987 628.7287408232407 374.110747193492 628.6931509233743 373.9682942162841 628.7049110095663 373.82193441285216 628.7166710957584 373.6755746094202 628.7745498838801 373.54063188981877 628.8324286720019 373.4056891702173 628.9303662376585 373.29629207280993 629.0283038033151 373.18689497540265 629.1560460575292 373.11449740516605 629.2837883117435 373.0420998349295 629.4279606067785 373.01428183657856 629.5721329018133 372.9864638382276 629.717640360321 373.00613796353286 629.8631478188286 373.0258120888381 629.994755771493 373.09091845168666 630.1263637241575 373.15602481453516 630.2302927835935 373.25974676155033 630.3342218430297 373.36346870856545 630.3995906092798 373.49494652451483 630.46495937553 373.62642434046415 630.4849237215124 373.77189226331103 630.5048880674946 373.9173601861579 630.4773577209144 374.0615876859805 630.4498273743343 374.20581518580303 630.377684769746 374.33370160529745 630.3055421651577 374.46158802479187 630.1963406523055 374.5597436220784 630.0871391394533 374.6578992193649 629.9523121455591 374.716047077497 629.8174851516649 374.7741949356291 629.8176172261406 374.77416193865383 629.8177493006161 374.7741289416786 619.8370340240579 377.325334241717 609.8563187474996 379.8765395417553 604.7411042006354 381.21502490429054 599.6258896537711 382.5535102668258 595.8686816948862 382.5348046512629 592.1114737360012 382.51609903570005 589.0837367098344 382.37275449284743 586.0559996836676 382.2294099499949 582.1999773118634 383.5424441500901 578.3439549400593 384.85547835018525 572.5704994660331 385.5419135389791 566.7970439920068 386.228348727773 555.9747330927794 385.6422479159503 545.1524221935518 385.0561471041276 540.4813625926438 383.1580546461059 535.8103029917356 381.25996218808416 535.1109290563413 378.06892911881386 534.4115551209471 374.87789604954355 534.5890801511341 374.89789140758285 534.7666051813212 374.91788676562214 534.9341859782279 374.97978690450867 535.1017667751346 375.0416870433952 535.2496635349708 375.1418943241485 535.397560294807 375.2421016049018 535.5171772509423 375.3747919756563 535.6367942070776 375.50748234641077 535.7211792164012 375.66494383658375 535.8055642257248 375.8224053267567 535.84981282753 375.9954862671411 535.8940614293351 376.1685672075254 535.8956018928059 376.3472081257338 535.8971423562766 376.5258490439422 535.8558851496039 376.6996673214149 535.814627942931 376.8734855988876 535.7329709369047 377.03237890917114 535.6513139308785 377.19127221945473 535.5340030345258 377.32600567588986 535.4166921381731 377.46073913232505 535.2705454663017 377.5634820200933 535.1243987944304 377.6662249078616 534.9579103984763 377.73100580549857 534.7914220025222 377.79578670313555 534.6142681958804 377.81884054182683 534.4371143892388 377.84189438051817 532.8120333858487 378.8211228386483 531.1869523824586 379.80035129677844 527.4187760357916 382.414174668003 523.6505996891244 385.02799803922755 518.9871371447808 387.14363290449506 514.3236746004372 389.2592677697626 510.56542234340793 389.4392843102272 506.8071700863787 389.6193008506919 506.55073821853284 386.6980411947775 506.29430635068695 383.77678153886313 506.8986610087891 380.68025196934155 507.50301566689114 377.58372239982 507.5333041891144 377.3650919287282 507.56359271133766 377.1464614576364 507.64532437771845 376.9414331372051 507.72705604409924 376.7364048167737 507.8554806063473 376.55689490261943 507.98390516859547 376.3773849884652 508.151558585119 376.23382660523293 508.3192120016426 376.0902682220007 508.5163502479961 375.99100498966897 508.71348849434963 375.89174175733723 508.92865388639257 375.842542859633 509.14381927843544 375.79334396192877 509.36450639347265 375.79706884109817 509.58519350850986 375.80079372026756 509.7985760010465 375.8572258861583 510.0119584935832 375.9136580520491 510.2056345631274 376.01951766452817 510.39931063267153 376.1253772770072 510.5620238169614 376.2745117704235 510.7247370012513 376.42364626383977 510.84703040237093 376.60738793442886 510.96932380349057 376.79112960501794 511.04408972322096 376.99879937825216 511.11885564295136 377.2064691514864 511.14174868252496 377.42599725038804 511.1646417220985 377.64552534928964 509.55235863244434 379.47139150736274 507.9400755427902 381.29725766543584 505.9167489755091 383.19231395824374 503.89342240822793 385.0873702510516 500.44669991414276 386.8573992515713 496.9999774200576 388.62742825209097 496.86176901815395 388.78863589022075 496.72356061625027 388.9498435283505 496.5507878367218 389.0732900009698 496.3780150571933 389.196736473589 496.18071946210387 389.27524706590896 495.9834238670144 389.353757658229 495.7730722856205 389.3827693309353 495.5627207042266 389.4117810036416 495.35153878032213 389.3896075969534 495.1403568564177 389.3674341902652 494.9406184933424 389.2953644236211 494.74088013026716 389.2232946569769 494.5641941310676 389.1055172286003 494.38750813186806 388.9877398002238 494.2441434951193 388.83109993978576 494.1007788583706 388.6744600793478 493.99906794349636 388.48806170289674 493.8973570286222 388.30166332644563 493.84321127877394 388.0963399163787 493.7890655289257 387.8910165063118 493.7856318976286 387.67870146886924 493.7821982663315 387.4663864314266 493.8296763163978 387.25941952656007 493.8771543664642 387.05245262169353 493.97278467139336 386.8628627756382 494.0684149763226 386.6732729295829 494.08134531209646 386.6589851741752 494.0942756478704 386.64469741876746 495.20275852191503 384.6886307338474 496.3112413959597 382.73256404892726 496.4745560825216 382.54211073978706 496.63787076908346 382.3516574306469 496.84201940966295 382.20582368160785 497.0461680502425 382.0599899325688 497.27928551625723 381.967251607977 497.512402982272 381.87451328338517 497.7609404756443 381.8402603390232 498.0094779690166 381.80600739466115 498.25899047895416 381.83223061326464 498.5085029888917 381.85845383186813 498.7444888365935 381.9436291187398 498.9804746842954 382.0288044056115 499.18921836120546 382.1679813690764 499.39796203811557 382.3071583325413 499.56733135192405 382.4922480009436 499.7367006657325 382.677337669346 499.856851863963 382.89758262246187 499.97700306219355 383.11782757557773 500.0409529515597 383.3604271663839 500.10490284092583 383.60302675719004 500.108934650853 383.85388108607026 500.1129664607801 384.10473541495054 500.05684586228585 384.34926481652406 500.0007252637916 384.5937942180975 499.8877139886972 384.81778663205563 499.77470271360284 385.04177904601374 499.7747604439778 385.0416924594807 Z" fill="currentColor"/></svg>