<svg xmlns="http://www.w3.org/2000/svg" version="1.1" xmlns:xlink="http://www.w3.org/1999/xlink" style="overflow: hidden; display: block;" viewBox="319.81 297.83 255.6 209.72"><defs/><g id="two-0" transform="matrix(1 0 0 1 0 0)" opacity="1"/><path d="M 456.26749846037296 312.05262768259576 Q 456.26749846037296 312.05262768259576 457.04449269834697 308.4570625376065 457.821486936321 304.8614973926172 458.13479835555256 302.7028780623102 458.4481097747842 300.5442587320033 458.1571334838134 299.8924625932912 457.86615719284265 299.2406664545791 457.9162725161967 299.0492025420731 457.96638783955086 298.8577386295671 458.0608685538406 298.6838324190561 458.15534926813024 298.5099262085451 458.2887041498018 298.3636851371549 458.4220590314734 298.21744406576465 458.5865374885385 298.10736767143555 458.75101594560357 297.9972912771065 458.9370584824095 297.92977720504894 459.1231010192155 297.8622631329913 459.31989483478196 297.8412353042453 459.51668865034844 297.8202074754993 459.71279607886845 297.8468880284595 459.90890350738846 297.87356858141976 460.09292677590236 297.9464068410947 460.2769500444162 298.0192451007696 460.4381937119116 298.1340077040845 460.599437379407 298.2487703073995 460.7285299563531 298.3987872464578 460.85762253329915 298.5488041855161 460.9470611530585 298.72535646877105 461.03649977281776 298.90190875202603 461.08108625860757 299.09473515247964 461.12567274439743 299.2875615529333 461.1228157275688 299.4854549911313 461.1199587107402 299.6833484293293 459.39321205637015 302.57105670348085 457.6664654020001 305.4587649776323 454.4940810287357 312.2739589021998 451.3216966554713 319.0891528267673 442.7417994240991 338.2316784573766 434.1619021927269 357.37420408798585 424.74831683139473 380.9942295039978 415.3347314700625 404.6142549200098 408.79934475763673 420.79645164866474 402.2639580452109 436.97864837731964 398.051127808193 448.8769731152738 393.838297571175 460.775297853228 390.9635140117393 469.43724097814373 388.08873045230354 478.0991841030595 386.5154359344256 484.26705026171066 384.9421414165477 490.43491642036184 383.9028276134425 494.16921593068855 382.86351381033734 497.9035154410153 382.4542983379992 500.1493016936838 382.0450828656611 502.39508794635225 382.4333921665992 504.09106402556824 382.8217014675374 505.7870401047843 382.8232943720576 505.97661137261707 382.8248872765778 506.16618264044985 382.7810651014986 506.3506261816863 382.73724292641936 506.5350697229228 382.6505526186154 506.7036656702803 382.5638623108114 506.8722616176379 382.4393423150453 507.01521116673456 382.3148223192792 507.15816071583123 382.1597097435555 507.26715563215714 382.0045971678318 507.376150548483 381.82790716233944 507.44485604238014 381.65121715684705 507.5135615362773 381.4632189530071 507.5379844412122 381.27522074916703 507.56240734614715 381.0868408114196 507.5411282017376 380.89846087367215 507.5198490573281 380.72064785285016 507.4541046084469 380.5428348320282 507.38836015956576 380.38592322925626 507.28197147667095 380.2290116264844 507.1755827937761 380.10212115148823 507.0347331921161 379.97523067649206 506.89388359045614 379.8857362096403 506.72675925549726 379.7962417427885 506.5596349205384 379.7493447066994 506.3759491264807 379.7024476706103 506.19226333242307 380.1460161442951 504.91820687827624 380.5895846179799 503.6441504241294 381.1044915021104 500.9601020113749 381.61939838624096 498.27605359862036 381.86806333703544 494.974760518144 382.11672828782997 491.6734674376677 382.60207596962147 488.0298213099129 383.08742365141296 484.38617518215807 383.29537113944616 481.09864119634466 383.5033186274793 477.81110721053125 383.5593516335688 475.7124796369025 383.6153846396582 473.6138520632738 382.9705825977734 472.33037042911644 382.32578055588857 471.04688879495916 380.717253548558 472.8843873764304 379.1087265412275 474.7218859579017 378.8311871470593 476.01501181461845 378.55364775289115 477.30813767133515 378.5126165094992 477.62449112931256 378.47158526610724 477.94084458729003 378.3914803573108 478.176612800578 378.31137544851435 478.412381013866 378.17717360276845 478.6221268395902 378.0429717570226 478.83187266531434 377.8624727919075 479.0034056662287 377.6819738267924 479.174938667143 377.46566835064124 479.298289337175 377.2493628744901 479.4216400072069 377.0098225717399 479.48963919961864 376.7702822689897 479.5576383920303 376.52142923329103 479.56633399056386 376.27257619759234 479.57502958909737 376.02887377907234 479.52391620515743 375.7851713605523 479.47280282121744 375.5607835552256 479.36485116708013 375.33639574989894 479.2568995129429 375.144363987554 479.0983837438188 374.95233222520903 478.9398679746947 374.8038174008959 478.7400010345332 374.65530257658276 478.54013409437164 374.55893637886845 478.31053225912547 374.46257018115415 478.08093042387935 374.4239534179776 477.83493816300097 374.385336654801 477.5889459021226 374.4067137342523 477.34086029737205 374.4280908137037 477.0927746926215 376.327243161731 476.4074822724233 378.22639550975833 475.72218985222514 380.4438570656668 475.4171946207871 382.6613186215753 475.11219938934903 384.50522545929397 474.81348099111335 386.34913229701266 474.5147625928776 388.53597203838376 475.9757239781504 390.7228117797549 477.43668536342324 391.5183389157921 478.7146304175898 392.3138660518294 479.99257547175625 395.18260701669726 481.21962705329076 398.05134798156513 482.4466786348253 401.61916981201455 481.7739086499731 405.186991642464 481.10113866512097 407.7053226293252 479.52145172323293 410.2236536161865 477.9417647813449 412.3399680700487 475.60790921752323 414.456282523911 473.2740536537016 415.30450642984107 469.6237007013024 416.15273033577114 465.9733477489032 415.4982970430746 460.93182808272985 414.8438637503781 455.8903084165565 412.4690094294591 450.5780909260919 410.09415510854006 445.26587343562727 406.26956028981857 440.17600663131134 402.4449654710971 435.08613982699546 394.83088534298633 430.4923603129479 387.2168052148756 425.89858079890024 381.201240585747 424.30651180131383 375.1856759566184 422.71444280372737 369.56329998013166 423.4517201292641 363.9409240036449 424.1889974548008 355.1971263799778 430.1754307074292 346.4533287563108 436.1618639600576 340.5520442905366 441.9211509532612 334.6507598247625 447.68043794646485 330.71648250768317 452.6221013180736 326.7822051906039 457.56376468968233 324.790496883107 461.39316904039936 322.79878857561005 465.2225733911163 321.70623712019864 466.87900025782983 320.6136856647872 468.5354271245434 323.62094921072406 470.1536183665243 326.6282127566609 471.77180960850524 336.3166500939026 467.8035354400097 346.0050874311442 463.8352612715142 354.8386090408354 457.8916671655272 363.67213065052664 451.94807305954026 371.3458790155174 444.067904980423 379.0196273805082 436.1877369013057 384.4096850208528 427.8520652534637 389.7997426611974 419.5163936056217 393.142883968788 410.29042101496066 396.4860252763786 401.0644484242996 397.53830178996367 387.1500913484662 398.59057830354874 373.23573427263284 397.97074475841544 363.7389922552711 397.35091121328213 354.24225023790933 394.95196042497287 346.7077477413512 392.5530096366636 339.1732452447931 389.7790210759748 334.59900478173233 387.005032515286 330.0247643186715 384.8127203955519 327.7803994870551 382.62040827581774 325.53603465543875 380.89826941195804 324.6815817867729 379.17613054809834 323.82712891810706 377.3103622753042 327.26967960119157 375.44459400251014 330.71223028427613 374.65119122336927 336.26459456364415 373.8577884442284 341.8169588430122 373.50939632223447 351.7306209555358 373.16100420024054 361.64428306805945 373.1191973349428 361.8541627916286 373.077390469645 362.06404251519774 372.9707552248713 362.24958560163196 372.8641199800976 362.4351286880662 372.7038210941247 362.5769087272372 372.54352220815184 362.7186887664082 372.3463430166559 362.8018613507885 372.14916382516 362.88503393516885 371.93574904154093 362.9008908732184 371.72233425792183 362.9167478112679 371.5150284663605 362.8636288773871 371.3077226747992 362.81050994350625 371.1282308463956 362.69397670409444 370.948739017992 362.5774434646826 370.81585399456117 362.40969698066795 370.6829689711304 362.2419504966533 370.61060384970375 362.040553869193 370.5382387282771 361.83915724173266 370.53397015617065 361.62519675088527 370.5297015840642 361.41123626003787 370.5939764819042 361.2071136256752 370.6582513797441 361.0029909913126 370.78434014875984 360.83007790713555 370.9104289177755 360.6571648229586 371.08513003056675 360.5335653345252 371.259831143358 360.40996584609184 371.4648533472989 360.3486208524682 371.66987555123984 360.2872758588445 371.8837529674572 360.2946081970564 372.09763038367464 360.3019405352683 372.29796999023245 360.37718250756944 372.4983095967902 360.4524244798706 372.66413578399715 360.58769823189914 372.82996197120417 360.72297198392766 372.94391269348597 360.9041143181374 373.05786341576777 361.0852566523471 373.1080080024214 361.29330191852927 373.15815258907503 361.50134718471145 373.139240888641 361.71451298857824 373.12032918820694 361.9276787924451 373.03434126071284 362.12364661806134 372.94835333321873 362.31961444367755 372.8042921373718 362.47786640797074 372.66023094152496 362.63611837226387 372.4731797225589 362.74008545279804 372.2861285035928 362.8440525333322 372.07567157351 362.88284934933074 371.8652146434273 362.9216461653293 371.6533868983627 362.89121067991584 371.44155915329816 362.8607751945024 371.25053901407716 362.76429401103394 371.05951887485617 362.6678128275655 370.9093062004796 362.51538755141974 370.759093526103 362.3629622752739 370.6654156232304 362.1705518730996 370.57173772035776 361.9781414709254 370.54440269014833 361.7658913626217 370.51706765993896 361.55364125431794 370.51706086180286 361.55383954955994 370.5170540636668 361.55403784480194 370.8503062497941 351.4972960234938 371.1835584359213 341.44055420218564 371.9940246170656 335.647217431476 372.8044907982098 329.8538806607664 374.08498298508914 326.39286366146484 375.3654751719685 322.93184666216337 377.4843428825982 322.1963572531943 379.60321059322786 321.4608678442253 381.9890585044289 322.61359449780355 384.37490641562994 323.76632115138176 386.75654274238525 326.24473166622215 389.13817906914056 328.7231421810625 392.0344780698147 333.56398584259193 394.9307770704889 338.4048295041213 397.3871196681762 346.23423487999065 399.8434622658635 354.06364025586 400.4640015861035 363.7441915923945 401.08454090634353 373.42474292892905 399.9633977316067 387.6603096396072 398.8422545568698 401.89587635028533 395.37418001923595 411.3803585531394 391.9061054816021 420.86484075599344 386.36171697532484 429.3968436452826 380.8173284690476 437.9288465345718 372.946815120135 445.9749737817925 365.0763017712224 454.0211010290133 356.0054965023818 460.0915051747961 346.9346912335412 466.1619093205789 336.5603228093705 470.09417259995155 326.1859543851998 474.02643587932414 322.7220036051113 472.16910481056743 319.2580528250228 470.3117737418107 319.9122341192669 467.1851166759752 320.566415413511 464.05845961013966 322.68466651696815 460.0281644475749 324.8029176204253 455.9978692850101 328.8418045796948 450.9326404482077 332.8806915389643 445.86741161140526 338.95056236152 439.96224520062674 345.02043318407567 434.0570787898483 354.2602129018602 427.87353027104353 363.4999926196448 421.6899817522388 369.6403343824652 420.9489741163842 375.7806761452856 420.20796648052954 382.16630348835497 421.92681117098357 388.5519308314244 423.64565586143766 396.53866344350365 428.5395486625405 404.5253960555829 433.43344146364336 408.5543424873315 438.78637548530196 412.5832889190801 444.1393095069605 415.10889269899144 449.81988430061324 417.63449647890275 455.500459094266 418.32670596883554 461.04854209396143 419.01891545876833 466.5966250936569 417.94376654050814 470.88990618560445 416.86861762224794 475.183187277552 414.4593489603685 477.9617728589765 412.05008029848904 480.7403584404009 409.0119245022171 482.7033850818813 405.9737687059452 484.66641172336176 401.5594067767937 485.5402071610034 397.14504484764217 486.4140025986451 394.05181692047177 485.62176315846796 390.9585889933014 484.82952371829083 389.65860237058143 483.67443161140295 388.3586157478614 482.5193395045151 387.540245219824 480.8147461806723 386.7218746917866 479.11015285682953 385.2339913809788 479.2193575302641 383.74610807017103 479.32856220369877 382.13802837396275 479.6778873643915 380.5299486777545 480.0272125250842 379.5007881635694 478.98392746670606 378.47162764938435 477.9406424083279 378.3915463178097 478.17641863092797 378.3114649862351 478.412194853528 378.17728411574274 478.62195409838796 378.0431032452504 478.8317133432479 377.8626214343378 479.00326439320105 377.6821396234253 479.1748154431542 377.4658464834227 479.29818774311696 377.2495533434201 479.42156004307975 377.0100198417868 479.48958318918164 376.7704863401535 479.5576063352836 376.52163417525895 479.5663268190772 376.2727820103644 479.57504730287076 376.0290744817245 479.5239582894282 375.7853669530846 479.47286927598566 375.56096835371443 479.3649400611686 375.3365697543443 479.2570108463516 375.1445221413826 479.0985142811963 374.95247452842096 478.940017716041 374.8039397181564 478.7401656283612 374.65540490789186 478.5403135406814 374.5590157504759 478.310721343203 374.46262659305995 478.0811291457246 374.4239852308504 477.83514074775246 374.38534386864086 477.58915234978036 374.40669613942487 477.3410646085623 374.42804841020893 477.0929768673443 374.51755477437086 476.7867878994126 374.6070611385328 476.48059893148087 375.3593686136482 474.5596045810628 376.1116760887636 472.63861023064464 377.0956749818773 471.33583813688955 378.079673874991 470.03306604313445 379.4582728190582 468.89467365831365 380.83687176312543 467.7562812734929 382.8961659023431 468.7055862928563 384.9554600415608 469.6548913122198 385.68337000137427 471.63212529973873 386.41127996118774 473.60935928725763 386.3026079373807 475.788388142504 386.1939359135737 477.9674169977504 386.0143421547915 481.3503413401036 385.8347483960094 484.7332656824569 385.4082343205884 488.2982559214131 384.9817202451674 491.8632461603694 384.7821565754758 495.3396035469475 384.58259290578417 498.8159609335256 383.702137048282 502.30142253882343 382.8216811907799 505.78688414412125 382.8232930524188 505.9764552517157 382.82490491405775 506.16602635931014 382.78110118355175 506.3504742818419 382.73729745304576 506.5349222043737 382.65062400526995 506.70352681991903 382.5639505574941 506.8721314354643 382.4394448573055 507.0150934358458 382.3149391571169 507.1580554362273 382.15983748166036 507.26706586326577 382.0047358062038 507.37607629030424 381.8280526721443 507.4447994528583 381.6513695380848 507.51352261541246 381.4633737774752 507.53796432004566 381.2753780168657 507.56240602467886 381.08699595214574 507.5411457183694 380.89861388742577 507.51988541206003 380.72079429304796 507.45415874480966 380.54297469867015 507.38843207755923 380.38605245781457 507.28205908635664 380.229130216959 507.175686095154 380.1022256576371 507.0348491832457 379.97532109831525 506.89401227133743 379.8858099194774 506.7268968866608 379.79629874063966 506.5597815019843 379.7493833362057 506.37610039854866 379.7024679317717 506.19241929511304 379.6820615746125 505.61613820643737 379.66165521745324 505.0398571177617 379.57420835810456 503.4943387299992 379.4867614987558 501.9488203422366 379.95561748697446 499.5880744836012 380.4244734751931 497.2273286249657 381.45121016751574 493.51734467199935 382.47794685983837 489.80736071903294 384.068619170012 483.5511685765302 385.6592914801857 477.29497643402743 388.53180729615167 468.6050165249781 391.40432311211765 459.9150566159288 395.62264744003846 447.9584936142684 399.8409717679593 436.00193061260796 406.35436455231047 419.81728907353465 412.8677573366616 403.6326475344614 422.27600723428975 379.9496598705017 431.68425713191795 356.266672206542 440.2340648325895 337.09228839863795 448.78387253326116 317.9179045907339 451.9705200141164 310.9545779729355 455.15716749497165 303.99125135513714 456.51165128499235 301.61604025100246 457.866135075013 299.2408291468677 457.9162312517253 299.0493602237867 457.96632742843764 298.8578913007057 458.06079075163393 298.6839756429928 458.15525407483017 298.5100599852799 458.28859433172784 298.36380557913276 458.42193458862556 298.2175511729856 458.5864020372288 298.1074583313613 458.7508694858321 297.9973654897369 458.9369052703006 297.92983281376326 459.12294105476917 297.86230013778953 459.3197327665688 297.84125262976715 459.51652447836847 297.8202051217447 459.7126345739632 297.84686606382877 459.908744669558 297.87352700591276 460.0927752209777 297.9463468628967 460.27680577239744 298.01916671988056 460.4380609153469 298.13391319825496 460.5993160582964 298.2486596766294 460.7284236362909 298.39866370567995 460.8575312142854 298.54866773473043 460.9469874888258 298.7252110732407 461.0364437633662 298.90175441175097 461.0810495315731 299.0945763525919 461.12565529978 299.28739829343283 461.1228180723095 299.48529201634307 461.11998084483895 299.6831857392533 461.28977935750663 300.2261295726558 461.4595778701743 300.7690734060583 461.1597368426591 303.1189354066229 460.8598958151439 305.46879740718754 460.1941784137136 309.08680800682714 459.5284610122833 312.70481860646674 459.46574900637756 312.8951863792561 459.40303700047184 313.0855541520454 459.2965879951127 313.25538139915125 459.19013898975356 313.42520864625703 459.04613980613397 313.5646250000982 458.90214062251437 313.70404135393943 458.72896049995205 313.8049439294804 458.55578037738974 313.90584650502126 458.3634845527448 313.96237083983056 458.17118872809993 314.0188951746398 457.9709534437358 314.02775607172254 457.7707181593717 314.0366169688053 457.57418109942364 313.9972994324067 457.37764403947557 313.9579818960081 457.196227947102 313.87277106319107 457.01481185472835 313.78756023037397 456.85906064174173 313.6614085587454 456.7033094287552 313.53525688711676 456.5822753629723 313.37549631775886 456.4612412971895 313.21573574840096 456.38195888420046 313.03165157311116 456.3026764712114 312.84756739782136 456.2697536085841 312.6498585975167 456.23683074595687 312.45214979721203 456.2521809120142 312.2523072166555 456.2675310780715 312.05246463609893 456.2675147692222 312.05254615934734 Z" fill="currentColor"/><path d="M 443.2143611964743 472.3479881586602 Q 443.2143611964743 472.3479881586602 444.0644671544271 469.8600329943081 444.91457311238 467.37207782995597 445.24523697097396 465.5840623997004 445.5759008295679 463.7960469694448 445.6068619743378 463.44504874228255 445.6378231191076 463.09405051512033 445.7098381865709 462.84269929941064 445.7818532540341 462.59134808370095 445.9119297223881 462.36453601179767 446.0420061907421 462.13772393989444 446.22258400953444 461.94863334007346 446.40316182832674 461.7595427402524 446.62374580624487 461.61916356705956 446.84432978416294 461.4787843938667 447.0920995700461 461.39527549144367 447.33986935592924 461.31176658902064 447.6004245581805 461.28998149869994 447.8609797604318 461.26819640837925 448.1191768984542 461.3094012806339 448.3773740364766 461.3506061528885 448.618206680477 461.452406158607 448.8590393244773 461.5542061643255 449.0685102698708 461.7106846823924 449.2779812152643 461.8671632004594 449.4439160008627 462.06922569205267 449.60985078646115 462.27128818364594 449.7226052747292 462.5071907672602 449.83535976299714 462.7430933508745 449.8883806577788 462.9991253572664 449.9414015525604 463.2551573636582 449.9316072769599 463.5164382005865 449.92181300135934 463.77771903751477 448.84924126249416 465.02695092285046 447.7766695236289 466.2761828081862 446.82618522901134 467.19752144237236 445.8757009343937 468.1188600765585 444.8107565300615 469.4550743134385 443.7458121257293 470.7912885503185 442.96054296199804 472.59823678076225 442.17527379826674 474.405185011206 441.44131776994925 476.03644484328 440.70736174163176 477.66770467535395 440.24495353596944 479.69449918469394 439.78254533030713 481.72129369403393 443.9374319870616 479.73946098715476 448.092318643816 477.7576282802755 450.9346132322438 475.6862383553952 453.7769078206717 473.6148484305149 456.41413359920637 470.99440907898645 459.05135937774105 468.37396972745796 461.31001560591153 466.15660104870835 463.568671834082 463.93923236995875 464.7976570843192 462.0343659683221 466.0266423345564 460.12949956668547 466.88470545116024 458.54779560028726 467.742768567764 456.9660916338891 468.21705224193363 455.958288619398 468.6913359161032 454.95048560490693 468.81722425573395 454.78271332816985 468.9431125953647 454.61494105143277 469.10549440379833 454.48217223285565 469.26787621223195 454.3494034142786 469.45731385113277 454.25935458383526 469.64675149003364 454.16930575339194 469.8522348349281 454.1272105533387 470.05771817982253 454.08511535328546 470.26730452905076 454.0934203586272 470.47689087827894 454.101725363969 470.6783990633764 454.1599478874051 470.87990724847384 454.21817041084125 471.0616256042548 454.32292655657403 471.2433439600358 454.4276827023068 471.3947110071244 454.5728840382243 471.54607805421296 454.7180853741418 471.6582963327203 454.8952927917783 471.77051461122767 455.07250020941467 471.8370619895345 455.271414405331 471.9036093678413 455.4703286012473 471.9206181091936 455.67938867303087 471.9376268505459 455.8884487448144 471.9041084060972 456.09550411127054 471.8705899616485 456.3025594777266 471.78849242496494 456.49557607122836 471.7063948882814 456.68859266473015 471.6485802952109 459.545054053621 471.5907657021403 462.4015154425119 471.49557507830775 463.6488281755311 471.4003844544752 464.89614090855025 471.31233505358597 466.8377065718021 471.2242856526967 468.7792722350539 473.45753417748824 469.18576975212204 475.6907827022797 469.59226726919024 477.63668174502874 469.33901908843274 479.5825807877778 469.0857709076752 481.77696875686433 468.3564594522122 483.97135672595095 467.6271479967493 485.6452426518198 466.9001151425583 487.3191285776886 466.1730822883673 488.9132242487144 465.77521254260705 490.50731991974027 465.37734279684673 491.9562261588818 465.09602593444686 493.40513239802334 464.814709072047 495.55717381221484 465.1172311860842 497.7092152264064 465.41975330012144 499.1548327343294 465.5068635806572 500.60045024225235 465.593973861193 503.3399104126875 465.4198969993124 506.0793705831227 465.24582013743185 509.5485132917847 465.2035157233022 513.0176560004467 465.16121130917253 518.404543404177 464.8123432685911 523.7914308079075 464.46347522800966 527.635043845818 464.6933104538781 531.4786568837284 464.9231456797466 536.0945350189776 466.1385564555243 540.7104131542268 467.3539672313019 546.2435271903337 469.3269652717587 551.7766412264407 471.2999633122155 562.8744520422184 470.30366140405874 573.9722628579962 469.30735949590206 574.1888388368441 469.3239341120325 574.4054148156919 469.34050872816283 574.6053605506842 469.42537082554543 574.8053062856765 469.5102329229281 574.967687405579 469.65449741756555 575.1300685254814 469.798761912203 575.2378836841758 469.98732427342463 575.3456988428702 470.1758866346463 575.3876597647808 470.3890043334566 575.4296206866914 470.60212203226695 575.4013340522175 470.81748158934283 575.3730474177437 471.0328411464187 575.2774748449817 471.22789435928496 575.1819022722198 471.4229475721512 575.0290502347666 471.57727231793166 574.8761981973134 471.7315970637121 574.6820703438394 471.8290355007858 574.4879424903654 471.92647393785944 574.2728640583741 471.95682423614346 574.0577856263827 471.9871745344275 573.8442753844788 471.9472590096798 573.6307651425748 471.90734348493214 573.4411776694467 471.8013413031306 573.2515901963186 471.69533912132897 573.1057753504492 471.53434873888995 572.9599605045798 471.3733583564509 572.8731851388229 471.17423550891317 572.7864097730661 470.97511266137536 572.7677592911231 470.7587055634394 572.74910880918 470.5422984655034 572.8005359214335 470.331264997449 572.851963033687 470.12023152939463 572.9680833079085 469.93666695103457 573.08420358213 469.75310237267456 573.2528591949558 469.6162259438195 573.4215148077817 469.4793495149644 573.6250474720282 469.40349223384726 573.8285801362748 469.3276349527302 574.0456799282681 469.3207390967084 574.2627797202613 469.3138432406866 574.4707162344707 469.3766308077059 574.6786527486803 469.4394183747252 574.8556549771783 469.5653154899444 575.0326572056763 469.69121260516357 575.1601929684151 469.8670378073856 575.287728731154 470.04286300960763 575.3524450001086 470.2502073537465 575.4171612690632 470.4575516978853 575.4122822337907 470.67470617637605 575.4074031985183 470.89186065486683 575.3334396952996 471.09608913648833 575.259476192081 471.3003176181098 575.1241722192276 471.47023732692514 574.9888682463743 471.64015703574046 574.8063901655607 471.7579773333822 574.6239120847472 471.87579763102394 574.4133653992042 471.92918270122755 574.2028187136613 471.98256777143115 574.2030193542835 471.9825504797418 574.2032199949056 471.9825331880525 562.584150558832 472.94745930702413 550.9650811227584 473.9123854259957 545.4794694226619 472.0135192368555 539.9938577225654 470.11465304771525 535.6564417599919 469.00902629222594 531.3190257974185 467.9033995367367 527.674526976022 467.7638727721012 524.0300281546254 467.62434600746565 518.5870600748303 468.1037193857122 513.1440919950352 468.58309276395875 509.8016283672309 468.79226323293994 506.45916473942657 469.00143370192114 503.35516274926545 469.41906244736026 500.2511607591043 469.8366911927994 497.0881271042563 469.27903199022364 493.9250934494083 468.72137278764785 492.5873035144553 468.81095385198444 491.2495135795023 468.900534916321 489.93954050553043 469.115086927814 488.6295674315586 469.3296389393069 486.8649660501489 470.0435984551234 485.1003646687392 470.75755797093996 482.5988098898864 471.7215296310278 480.0972551110336 472.6855012911157 477.78314963255116 473.02183305423245 475.46904415406874 473.3581648173492 472.6105047388238 473.2112812717028 469.7519653235788 473.0643977260564 468.78890829314656 472.2525637565106 467.8258512627143 471.44072978696477 467.5824796407568 470.0495453492178 467.33910801879927 468.6583609114708 467.3767672791885 466.560598704403 467.4144265395778 464.46283649733516 467.6150210011065 462.99507960326946 467.81561546263526 461.5273227092038 468.1678459995235 460.2696815140663 468.52007653641164 459.0120403189288 468.6056627811188 456.9813383427371 468.69124902582587 454.95063636654544 468.81712058759956 454.7828515018133 468.9429921493732 454.61506663708116 469.1053606801131 454.4822815809871 469.26772921085296 454.34949652489297 469.4571578439236 454.25942875113606 469.64658647699423 454.16936097737914 469.85206561134123 454.1272452292019 470.0575447456883 454.0851294810247 470.2671319243691 454.0934135276901 470.4767191030499 454.10169757435546 470.6782331093921 454.159899946682 470.87974711573435 454.2181023190085 471.0614759462213 454.32284029238195 471.2432047767083 454.4275782657554 471.3945863431736 454.5727644642422 471.5459679096389 454.717950662729 471.65820390832687 454.8951468576515 471.77043990701486 455.0723430525741 471.8370071764085 455.27125059275807 471.9035744458021 455.47015813294195 471.9206040930766 455.67921650280607 471.937633740351 455.8882748726702 471.90413600160645 456.0953335899354 471.8706382628619 456.3023923072007 471.7885600282482 456.4954171094911 471.70648179363445 456.6884419117814 471.07213358267563 457.60398233516776 470.43778537171676 458.51952275855416 469.46529016406305 460.113618070385 468.4927949564093 461.70771338221584 467.1118713163898 463.88070024840215 465.7309476763703 466.05368711458846 463.54597026512704 468.339323223869 461.3609928538838 470.6249593331495 458.63455414652765 473.5079225762737 455.9081154391715 476.39088581939797 452.91925424622946 478.78211877060755 449.93039305328745 481.1733517218171 446.1373818380264 483.2611952579141 442.34437062276527 485.3490387940111 440.383887432146 485.28967725384274 438.4234042415268 485.2303157136744 437.3387590193024 484.05638628160375 436.25411379707805 482.8824568495332 436.27105730718426 481.0574606678193 436.28800081729054 479.2324644861054 436.6836627172802 477.6427758450053 437.0793246172698 476.05308720390525 437.7901795128048 474.4762502655379 438.5010344083398 472.8994133271705 439.41799190424774 470.5525141904683 440.3349494001557 468.20561505376605 441.57795702815474 466.5573020239697 442.82096465615376 464.9089889941734 444.22937680662767 464.00162685610263 445.6377889571016 463.09426471803187 445.7097788890832 462.8429063020722 445.7817688210649 462.59154788611255 445.9118226075613 462.3647228076966 446.04187639405774 462.13789772928055 446.2224353028872 461.94878907262313 446.40299421171676 461.7596804159657 446.62356415061464 461.61927918507695 446.8441340895125 461.47887795418825 447.0918955232666 461.39534427520425 447.3396569570207 461.31181059622025 447.60020997946015 461.28999945048827 447.8607630018996 461.26818830475634 448.11896425911823 461.30936735709116 448.3771655163369 461.350546409426 448.6180083391336 461.4523223313711 448.8588511619303 461.5540982533162 449.06833775412827 461.7105558235063 449.2778243463262 461.86701339369637 449.4437793373441 462.0690592908008 449.609734328362 462.2711051879052 449.72251240632454 462.5069964948912 449.83529048428704 462.7428878018772 449.8883369820042 462.9989145048994 449.94138347972137 463.2549412079216 449.9316153322534 463.5162230229711 449.92184718478546 463.7775048380205 449.8420576688617 464.1207132019995 449.76226815293785 464.46392156597847 449.2191897749176 466.45536324374365 448.67611139689734 468.44680492150883 448.0835057154459 471.00833172126806 447.4909000339945 473.5698585210273 447.38672549339356 473.81685029398454 447.2825509527926 474.06384206694173 447.1222928818437 474.2787248757323 446.9620348108948 474.49360768452283 446.7550074162113 474.6638925302036 446.5479800215278 474.83417737588434 446.3062157450157 474.94996729522353 446.0644514685037 475.0657572145627 445.80200166127327 475.120322492008 445.5395518540429 475.1748877694533 445.27167011122145 475.1650570685158 445.0037883684 475.15522636757834 444.7460439894668 475.0815710490584 444.4882996105335 475.00791573053857 444.255672710902 474.87471664500936 444.02304581127055 474.7415175594801 443.82905667727744 474.55651624405084 443.63506754328426 474.37151492862154 443.49099083251167 474.14546366843723 443.34691412173913 473.9194124082529 443.2611235793866 473.66544931317645 443.1753330370341 473.4114862181 443.15281481345403 473.1443716351496 443.1302965898739 472.8772570521992 443.17235944527874 472.6125156934863 443.2144223006836 472.34777433477336 443.2143917485789 472.3478812467168 Z" fill="currentColor"/></svg>